<svg xmlns="http://www.w3.org/2000/svg" xmlns:xlink="http://www.w3.org/1999/xlink" width="120" zoomAndPan="magnify" viewBox="0 0 90 89.999999" height="120" preserveAspectRatio="xMidYMid meet" version="1.0"><defs><clipPath id="ffe262284c"><path d="M 13.664062 69 L 60 69 L 60 83 L 13.664062 83 Z M 13.664062 69 " clip-rule="nonzero"/></clipPath><clipPath id="b66d8cced5"><path d="M 63 5 L 76.664062 5 L 76.664062 25 L 63 25 Z M 63 5 " clip-rule="nonzero"/></clipPath></defs><path fill="#000000" d="M 35.863281 26.1875 C 35.863281 26.652344 35.785156 27.101562 35.632812 27.53125 C 35.476562 27.960938 35.257812 28.339844 34.972656 28.667969 C 34.691406 28.996094 34.363281 29.25 33.992188 29.429688 C 33.617188 29.605469 33.230469 29.695312 32.832031 29.695312 C 32.429688 29.695312 32.042969 29.605469 31.671875 29.429688 C 31.296875 29.25 30.972656 28.996094 30.6875 28.667969 C 30.402344 28.339844 30.183594 27.960938 30.03125 27.53125 C 29.875 27.101562 29.796875 26.652344 29.796875 26.1875 C 29.796875 25.722656 29.875 25.273438 30.03125 24.84375 C 30.183594 24.414062 30.402344 24.035156 30.6875 23.707031 C 30.972656 23.378906 31.296875 23.125 31.671875 22.945312 C 32.042969 22.769531 32.429688 22.679688 32.832031 22.679688 C 33.230469 22.679688 33.617188 22.769531 33.992188 22.945312 C 34.363281 23.125 34.691406 23.378906 34.972656 23.707031 C 35.257812 24.035156 35.476562 24.414062 35.632812 24.84375 C 35.785156 25.273438 35.863281 25.722656 35.863281 26.1875 Z M 35.863281 26.1875 " fill-opacity="1" fill-rule="nonzero"/><path fill="#000000" d="M 70.027344 30.625 C 70.027344 31.089844 69.953125 31.539062 69.796875 31.96875 C 69.644531 32.398438 69.425781 32.777344 69.140625 33.105469 C 68.855469 33.433594 68.527344 33.6875 68.15625 33.867188 C 67.785156 34.046875 67.398438 34.132812 66.996094 34.132812 C 66.59375 34.132812 66.207031 34.046875 65.835938 33.867188 C 65.464844 33.6875 65.136719 33.433594 64.855469 33.105469 C 64.570312 32.777344 64.351562 32.398438 64.195312 31.96875 C 64.042969 31.539062 63.964844 31.089844 63.964844 30.625 C 63.964844 30.160156 64.042969 29.710938 64.195312 29.28125 C 64.351562 28.851562 64.570312 28.472656 64.855469 28.144531 C 65.136719 27.816406 65.464844 27.5625 65.835938 27.382812 C 66.207031 27.207031 66.59375 27.117188 66.996094 27.117188 C 67.398438 27.117188 67.785156 27.207031 68.15625 27.382812 C 68.527344 27.5625 68.855469 27.816406 69.140625 28.144531 C 69.425781 28.472656 69.644531 28.851562 69.796875 29.28125 C 69.953125 29.710938 70.027344 30.160156 70.027344 30.625 Z M 70.027344 30.625 " fill-opacity="1" fill-rule="nonzero"/><path fill="#000000" d="M 57.660156 25.203125 C 59.410156 29.195312 60.613281 33.363281 61.605469 37.578125 C 62.640625 41.78125 63.511719 46.023438 64.253906 50.285156 L 65.300781 56.6875 L 65.542969 58.292969 L 65.660156 59.09375 C 65.667969 59.300781 65.726562 59.171875 65.6875 59.769531 C 65.644531 60.261719 65.421875 60.699219 65.292969 60.792969 C 64.070312 62.121094 63.109375 62.324219 62.050781 62.875 C 59.972656 63.75 57.882812 64.425781 55.753906 65 C 53.609375 65.546875 51.515625 66.078125 49.132812 66.101562 C 48.730469 66.105469 48.402344 65.785156 48.398438 65.382812 C 48.394531 65.015625 48.664062 64.710938 49.019531 64.65625 L 49.132812 64.640625 C 53.101562 64.066406 57.335938 62.519531 61.042969 60.75 C 61.890625 60.332031 62.988281 59.644531 63.199219 59.34375 C 63.292969 59.257812 63.105469 59.421875 63.117188 59.648438 C 63.1875 59.988281 63.117188 59.589844 63.101562 59.53125 L 62.941406 58.742188 L 62.617188 57.167969 L 61.242188 50.890625 L 58.242188 38.398438 C 57.175781 34.25 56.136719 30.105469 55.480469 25.832031 C 55.382812 25.210938 55.8125 24.628906 56.4375 24.53125 C 56.960938 24.449219 57.457031 24.738281 57.660156 25.203125 Z M 57.660156 25.203125 " fill-opacity="1" fill-rule="nonzero"/><g clip-path="url(#ffe262284c)"><path fill="#000000" d="M 15.449219 69.273438 L 25.621094 73.996094 C 29.035156 75.480469 32.53125 76.785156 36.113281 77.859375 C 43.273438 80.015625 50.785156 81.066406 58.339844 81.101562 C 58.746094 81.101562 59.074219 81.429688 59.074219 81.832031 C 59.070312 82.210938 58.777344 82.523438 58.40625 82.558594 C 50.71875 83.257812 42.890625 82.585938 35.316406 80.8125 C 31.527344 79.921875 27.804688 78.710938 24.230469 77.152344 C 20.644531 75.636719 17.195312 73.722656 14.230469 71.175781 C 13.746094 70.773438 13.683594 70.054688 14.089844 69.570312 C 14.425781 69.171875 14.992188 69.070312 15.449219 69.273438 Z M 15.449219 69.273438 " fill-opacity="1" fill-rule="nonzero"/></g><path fill="#000000" d="M 22.320312 8.730469 C 23.542969 6.503906 25.535156 4.796875 27.730469 3.574219 C 29.90625 2.304688 32.300781 1.4375 34.75 0.953125 C 39.632812 -0.00390625 44.808594 0.410156 49.242188 2.484375 C 49.609375 2.652344 49.769531 3.089844 49.597656 3.457031 C 49.441406 3.789062 49.0625 3.945312 48.722656 3.847656 C 44.351562 2.582031 39.710938 2.648438 35.484375 3.921875 C 33.371094 4.5625 31.359375 5.453125 29.480469 6.546875 C 27.621094 7.6875 25.910156 8.953125 24.019531 10.226562 L 23.996094 10.242188 C 23.460938 10.601562 22.738281 10.464844 22.378906 9.9375 C 22.125 9.5625 22.117188 9.097656 22.320312 8.730469 Z M 22.320312 8.730469 " fill-opacity="1" fill-rule="nonzero"/><g clip-path="url(#b66d8cced5)"><path fill="#000000" d="M 64.863281 5.378906 C 66.964844 5.484375 68.914062 6.472656 70.484375 7.808594 C 72.09375 9.113281 73.414062 10.765625 74.347656 12.601562 C 76.203125 16.269531 76.652344 20.53125 75.515625 24.300781 C 75.398438 24.6875 74.988281 24.910156 74.597656 24.792969 C 74.257812 24.691406 74.042969 24.355469 74.078125 24.011719 C 74.421875 20.476562 73.578125 16.917969 71.6875 14.132812 C 70.742188 12.742188 69.582031 11.527344 68.292969 10.476562 C 66.964844 9.460938 65.59375 8.597656 64.144531 7.523438 L 64.101562 7.488281 C 63.578125 7.101562 63.472656 6.367188 63.863281 5.847656 C 64.105469 5.527344 64.488281 5.363281 64.863281 5.378906 Z M 64.863281 5.378906 " fill-opacity="1" fill-rule="nonzero"/></g><path fill="#000000" d="M 26.027344 84.332031 C 27.246094 84.496094 28.183594 84.933594 29.136719 85.414062 C 30.109375 85.851562 31.09375 86.277344 32.113281 86.648438 C 34.15625 87.402344 36.355469 87.757812 38.628906 87.847656 C 39.035156 87.859375 39.359375 88.199219 39.347656 88.605469 C 39.339844 88.933594 39.105469 89.210938 38.804688 89.300781 C 36.425781 89.957031 33.871094 89.996094 31.367188 89.617188 C 30.113281 89.421875 28.871094 89.082031 27.710938 88.554688 C 26.53125 88.074219 25.421875 87.355469 24.722656 86.183594 C 24.371094 85.59375 24.566406 84.832031 25.160156 84.484375 C 25.410156 84.339844 25.691406 84.289062 25.960938 84.324219 Z M 26.027344 84.332031 " fill-opacity="1" fill-rule="nonzero"/></svg>