<svg xmlns="http://www.w3.org/2000/svg" xmlns:xlink="http://www.w3.org/1999/xlink" width="120" zoomAndPan="magnify" viewBox="0 0 90 89.999999" height="120" preserveAspectRatio="xMidYMid meet" version="1.0"><defs><clipPath id="89d08287f6"><path d="M 61 3 L 73.949219 3 L 73.949219 19 L 61 19 Z M 61 3 " clip-rule="nonzero"/></clipPath><clipPath id="b16b72da08"><path d="M 16.199219 57 L 61 57 L 61 82 L 16.199219 82 Z M 16.199219 57 " clip-rule="nonzero"/></clipPath></defs><path fill="#f88187" d="M 72.207031 35.601562 C 70.117188 32.929688 61.402344 32.003906 61.625 36.875 C 62.910156 41.277344 73.878906 41.230469 72.207031 35.601562 Z M 72.207031 35.601562 " fill-opacity="1" fill-rule="nonzero"/><path fill="#f88187" d="M 31.308594 30.289062 C 29.21875 27.613281 20.503906 26.691406 20.726562 31.5625 C 22.011719 35.964844 32.980469 35.917969 31.308594 30.289062 Z M 31.308594 30.289062 " fill-opacity="1" fill-rule="nonzero"/><path fill="#000000" d="M 34.703125 28.738281 C 34.703125 29.1875 34.628906 29.617188 34.484375 30.027344 C 34.335938 30.441406 34.125 30.804688 33.855469 31.121094 C 33.582031 31.4375 33.265625 31.679688 32.910156 31.851562 C 32.554688 32.023438 32.1875 32.109375 31.800781 32.109375 C 31.414062 32.109375 31.046875 32.023438 30.691406 31.851562 C 30.335938 31.679688 30.019531 31.4375 29.746094 31.121094 C 29.476562 30.804688 29.265625 30.441406 29.117188 30.027344 C 28.972656 29.617188 28.898438 29.1875 28.898438 28.738281 C 28.898438 28.292969 28.972656 27.863281 29.117188 27.449219 C 29.265625 27.039062 29.476562 26.671875 29.746094 26.359375 C 30.019531 26.042969 30.335938 25.796875 30.691406 25.628906 C 31.046875 25.457031 31.414062 25.371094 31.800781 25.371094 C 32.1875 25.371094 32.554688 25.457031 32.910156 25.628906 C 33.265625 25.796875 33.582031 26.042969 33.855469 26.359375 C 34.125 26.671875 34.335938 27.039062 34.484375 27.449219 C 34.628906 27.863281 34.703125 28.292969 34.703125 28.738281 Z M 34.703125 28.738281 " fill-opacity="1" fill-rule="nonzero"/><path fill="#000000" d="M 67.425781 33 C 67.425781 33.449219 67.351562 33.878906 67.207031 34.289062 C 67.058594 34.703125 66.847656 35.066406 66.578125 35.382812 C 66.304688 35.699219 65.992188 35.941406 65.636719 36.113281 C 65.277344 36.285156 64.910156 36.371094 64.523438 36.371094 C 64.140625 36.371094 63.769531 36.285156 63.414062 36.113281 C 63.058594 35.941406 62.742188 35.699219 62.472656 35.382812 C 62.199219 35.066406 61.988281 34.703125 61.839844 34.289062 C 61.695312 33.878906 61.621094 33.449219 61.621094 33 C 61.621094 32.554688 61.695312 32.125 61.839844 31.710938 C 61.988281 31.300781 62.199219 30.933594 62.472656 30.617188 C 62.742188 30.304688 63.058594 30.058594 63.414062 29.886719 C 63.769531 29.71875 64.140625 29.632812 64.523438 29.632812 C 64.910156 29.632812 65.277344 29.71875 65.636719 29.886719 C 65.992188 30.058594 66.304688 30.304688 66.578125 30.617188 C 66.847656 30.933594 67.058594 31.300781 67.207031 31.710938 C 67.351562 32.125 67.425781 32.554688 67.425781 33 Z M 67.425781 33 " fill-opacity="1" fill-rule="nonzero"/><path fill="#000000" d="M 55.566406 27.742188 C 57.285156 31.085938 58.480469 34.628906 59.46875 38.222656 C 60.5 41.800781 61.371094 45.429688 62.105469 49.082031 L 63.140625 54.570312 L 63.261719 55.257812 C 63.28125 55.433594 63.304688 55.347656 63.320312 55.742188 C 63.363281 56.191406 63.03125 56.914062 62.925781 56.925781 C 62.609375 57.289062 62.296875 57.515625 62.078125 57.628906 C 61.820312 57.800781 61.582031 57.921875 61.351562 58.023438 C 60.414062 58.480469 59.511719 58.777344 58.601562 59.078125 C 54.933594 60.144531 51.378906 61.125 47.414062 61.203125 C 47.03125 61.210938 46.710938 60.90625 46.703125 60.523438 C 46.695312 60.164062 46.960938 59.863281 47.308594 59.816406 L 47.414062 59.804688 C 50.855469 59.367188 54.496094 58.214844 57.839844 56.953125 C 58.671875 56.625 59.507812 56.265625 60.21875 55.863281 C 60.40625 55.765625 60.574219 55.667969 60.695312 55.570312 C 60.882812 55.457031 60.914062 55.398438 60.914062 55.398438 C 61.023438 55.273438 60.652344 55.714844 60.78125 55.960938 C 60.839844 56.132812 60.753906 55.8125 60.746094 55.765625 L 60.585938 55.09375 L 59.238281 49.746094 L 56.28125 39.132812 C 55.226562 35.617188 54.191406 32.101562 53.511719 28.445312 C 53.398438 27.851562 53.789062 27.277344 54.386719 27.167969 C 54.875 27.074219 55.351562 27.324219 55.566406 27.742188 Z M 55.566406 27.742188 " fill-opacity="1" fill-rule="nonzero"/><path fill="#000000" d="M 21.695312 6.378906 C 23.109375 4.464844 25.164062 3.171875 27.300781 2.308594 C 29.429688 1.398438 31.683594 0.835938 33.945312 0.550781 C 38.464844 0 43.101562 0.339844 47.320312 1.910156 C 47.6875 2.046875 47.871094 2.449219 47.734375 2.816406 C 47.613281 3.140625 47.261719 3.324219 46.929688 3.257812 C 42.773438 2.429688 38.496094 2.515625 34.453125 3.441406 C 32.433594 3.910156 30.476562 4.550781 28.609375 5.347656 C 26.753906 6.191406 25.011719 7.117188 23.113281 8.023438 L 23.074219 8.042969 C 22.515625 8.304688 21.851562 8.070312 21.585938 7.515625 C 21.40625 7.132812 21.460938 6.699219 21.695312 6.378906 Z M 21.695312 6.378906 " fill-opacity="1" fill-rule="nonzero"/><g clip-path="url(#89d08287f6)"><path fill="#000000" d="M 62.261719 3.9375 C 63.957031 3.8125 65.585938 4.371094 67.011719 5.234375 C 68.464844 6.0625 69.777344 7.183594 70.8125 8.542969 C 72.925781 11.226562 73.753906 15.007812 72.527344 18.109375 C 72.382812 18.472656 71.972656 18.648438 71.609375 18.507812 C 71.300781 18.386719 71.125 18.066406 71.167969 17.75 C 71.550781 14.96875 70.496094 12.277344 68.589844 10.460938 C 67.640625 9.542969 66.535156 8.777344 65.367188 8.105469 C 64.164062 7.472656 62.957031 6.914062 61.722656 6.035156 L 61.675781 6.003906 C 61.164062 5.636719 61.042969 4.925781 61.410156 4.410156 C 61.613281 4.125 61.933594 3.960938 62.261719 3.9375 Z M 62.261719 3.9375 " fill-opacity="1" fill-rule="nonzero"/></g><path fill="#000000" d="M 25.285156 84.570312 C 26.453125 84.726562 27.347656 85.148438 28.265625 85.609375 C 29.195312 86.03125 30.136719 86.4375 31.113281 86.792969 C 33.070312 87.515625 35.175781 87.859375 37.351562 87.945312 C 37.746094 87.957031 38.054688 88.28125 38.042969 88.675781 C 38.035156 88.988281 37.8125 89.253906 37.523438 89.339844 C 35.242188 89.96875 32.796875 90.007812 30.398438 89.640625 C 29.199219 89.457031 28.011719 89.128906 26.898438 88.625 C 25.769531 88.164062 24.707031 87.472656 24.035156 86.347656 C 23.699219 85.78125 23.886719 85.050781 24.453125 84.714844 C 24.695312 84.574219 24.964844 84.527344 25.222656 84.5625 Z M 25.285156 84.570312 " fill-opacity="1" fill-rule="nonzero"/><g clip-path="url(#b16b72da08)"><path fill="#000000" d="M 19.492188 57.070312 L 58.5 65.347656 C 59.921875 65.652344 60.660156 67.210938 59.992188 68.5 C 57.75 72.835938 51.988281 81.144531 40.589844 81.613281 C 28.929688 82.09375 20.488281 67.386719 17.042969 60.128906 C 16.269531 58.496094 17.722656 56.695312 19.492188 57.070312 Z M 19.492188 57.070312 " fill-opacity="1" fill-rule="nonzero"/></g><path fill="#ffffff" d="M 51.386719 66.960938 C 51.386719 66.960938 50.347656 69.804688 48.144531 71.078125 C 45.9375 72.351562 22.898438 66.398438 22.898438 66.398438 C 22.898438 66.398438 20.300781 62.144531 20.699219 61.246094 C 21.101562 60.351562 51.386719 66.960938 51.386719 66.960938 Z M 51.386719 66.960938 " fill-opacity="1" fill-rule="nonzero"/><path fill="#ffffff" d="M 32.445312 76.035156 C 32.445312 76.035156 41.953125 75.589844 44.671875 76.921875 C 46.121094 77.628906 46.542969 78.332031 46.542969 78.332031 C 46.542969 78.332031 42.507812 79.640625 38.832031 79.09375 C 35.152344 78.542969 32.445312 76.035156 32.445312 76.035156 Z M 32.445312 76.035156 " fill-opacity="1" fill-rule="nonzero"/><path fill="#f88187" d="M 31.757812 75.289062 L 27.828125 71.367188 C 27.828125 71.367188 34.425781 70.863281 37.070312 72.554688 C 39.714844 74.246094 41.082031 75.566406 40.980469 75.582031 C 40.882812 75.601562 33.949219 74.515625 31.757812 75.289062 Z M 31.757812 75.289062 " fill-opacity="1" fill-rule="nonzero"/></svg>