<svg xmlns="http://www.w3.org/2000/svg" xmlns:xlink="http://www.w3.org/1999/xlink" width="120" zoomAndPan="magnify" viewBox="0 0 90 89.999999" height="120" preserveAspectRatio="xMidYMid meet" version="1.0"><defs><clipPath id="93ebffb76b"><path d="M 70 25 L 78.566406 25 L 78.566406 32 L 70 32 Z M 70 25 " clip-rule="nonzero"/></clipPath></defs><path fill="#9bc3eb" d="M 25.199219 24.863281 C 22.484375 22.96875 17.671875 20.039062 14.785156 23 C 11.074219 28.949219 28.6875 32.132812 25.199219 24.863281 Z M 25.199219 24.863281 " fill-opacity="1" fill-rule="nonzero"/><g clip-path="url(#93ebffb76b)"><path fill="#9bc3eb" d="M 78.21875 27.578125 C 77.144531 24.1875 69.847656 25.644531 70.523438 29.371094 C 71.621094 33.140625 78.554688 31.171875 78.21875 27.578125 Z M 78.21875 27.578125 " fill-opacity="1" fill-rule="nonzero"/></g><path fill="#000000" d="M 55.242188 21.164062 C 57.324219 24.957031 58.996094 28.921875 60.53125 32.941406 C 62.070312 36.957031 63.679688 40.945312 65.160156 44.980469 L 66.28125 48.007812 L 66.421875 48.386719 L 66.457031 48.480469 L 66.472656 48.527344 C 66.496094 48.59375 66.539062 48.75 66.554688 48.871094 C 66.589844 49.125 66.554688 49.425781 66.488281 49.625 C 66.4375 49.742188 66.378906 49.855469 66.3125 49.964844 C 65.773438 50.679688 65.507812 50.703125 65.203125 50.910156 C 64.625 51.226562 64.105469 51.433594 63.574219 51.636719 C 61.472656 52.421875 59.394531 52.992188 57.292969 53.527344 C 55.199219 54.054688 53.089844 54.519531 50.964844 54.921875 C 48.816406 55.296875 46.761719 55.71875 44.382812 55.625 C 44.003906 55.609375 43.710938 55.289062 43.726562 54.910156 C 43.738281 54.5625 44.007812 54.28125 44.347656 54.25 L 44.480469 54.238281 C 48.429688 53.867188 52.6875 52.570312 56.691406 51.371094 C 58.703125 50.730469 60.730469 50.058594 62.601562 49.246094 C 63.058594 49.042969 63.527344 48.824219 63.875 48.605469 C 64.023438 48.542969 64.238281 48.28125 64.011719 48.558594 C 63.976562 48.613281 63.953125 48.671875 63.941406 48.730469 C 63.882812 48.863281 63.84375 49.09375 63.882812 49.285156 C 63.894531 49.371094 63.941406 49.492188 63.957031 49.527344 L 63.898438 49.386719 L 63.738281 49.015625 L 62.46875 46.054688 C 60.761719 42.113281 59.183594 38.121094 57.535156 34.152344 C 55.886719 30.1875 54.371094 26.171875 53.261719 21.984375 L 53.257812 21.964844 C 53.105469 21.390625 53.449219 20.796875 54.023438 20.640625 C 54.511719 20.511719 55.011719 20.742188 55.242188 21.164062 Z M 55.242188 21.164062 " fill-opacity="1" fill-rule="nonzero"/><path fill="#000000" d="M 19.410156 22.160156 C 20.746094 19.988281 22.902344 18.386719 25.261719 17.472656 C 27.597656 16.488281 30.15625 16.058594 32.675781 16.199219 C 35.207031 16.3125 37.660156 17.0625 39.828125 18.101562 C 42.007812 19.152344 44.011719 20.398438 45.921875 21.726562 C 46.242188 21.941406 46.328125 22.375 46.113281 22.695312 C 45.921875 22.984375 45.542969 23.078125 45.238281 22.933594 C 41.085938 20.921875 36.894531 18.859375 32.644531 19.109375 C 30.527344 19.199219 28.449219 19.691406 26.515625 20.503906 C 24.578125 21.347656 22.84375 22.460938 20.96875 23.636719 L 20.917969 23.667969 C 20.40625 23.988281 19.734375 23.832031 19.414062 23.320312 C 19.1875 22.953125 19.199219 22.503906 19.410156 22.160156 Z M 19.410156 22.160156 " fill-opacity="1" fill-rule="nonzero"/><path fill="#000000" d="M 73.269531 27.753906 C 72.152344 26.675781 71.625 25.894531 70.84375 25.410156 C 69.976562 24.863281 68.574219 24.378906 67.457031 23.941406 C 66.253906 23.335938 65.160156 23.253906 63.847656 23.332031 C 62.566406 23.40625 61.238281 23.757812 59.859375 24.011719 C 59.480469 24.085938 59.117188 23.835938 59.042969 23.453125 C 58.984375 23.136719 59.148438 22.832031 59.417969 22.695312 C 60.679688 22.058594 62.011719 21.507812 63.488281 21.125 C 64.921875 20.734375 66.707031 20.660156 68.125 21.105469 C 69.679688 21.457031 71.011719 21.695312 72.542969 22.609375 C 74.246094 23.542969 75.109375 25.382812 75.191406 26.796875 L 75.191406 26.863281 C 75.230469 27.492188 74.75 28.03125 74.125 28.070312 C 73.796875 28.085938 73.492188 27.960938 73.269531 27.753906 Z M 73.269531 27.753906 " fill-opacity="1" fill-rule="nonzero"/><path fill="#000000" d="M 41.300781 78.742188 C 42.1875 78.277344 43.050781 78.253906 43.902344 78.324219 C 44.757812 78.347656 45.605469 78.429688 46.453125 78.519531 C 48.113281 78.667969 49.929688 78.789062 51.269531 78.4375 L 51.410156 78.402344 C 51.777344 78.304688 52.15625 78.527344 52.25 78.898438 C 52.316406 79.160156 52.226562 79.429688 52.03125 79.597656 C 51.15625 80.351562 50.195312 80.605469 49.289062 80.878906 C 48.367188 81.132812 47.449219 81.289062 46.535156 81.429688 C 45.621094 81.5625 44.707031 81.632812 43.796875 81.605469 C 42.886719 81.617188 41.988281 81.496094 41.113281 80.886719 C 40.554688 80.496094 40.414062 79.726562 40.800781 79.167969 C 40.917969 78.996094 41.070312 78.867188 41.238281 78.777344 Z M 41.300781 78.742188 " fill-opacity="1" fill-rule="nonzero"/><path fill="#000000" d="M 58.824219 5.410156 C 60.144531 4.210938 61.773438 3.417969 63.601562 3 C 65.394531 2.535156 67.457031 2.46875 69.351562 3.070312 C 73.15625 4.265625 75.683594 7.414062 77.082031 10.539062 C 77.242188 10.894531 77.085938 11.308594 76.734375 11.46875 C 76.433594 11.601562 76.085938 11.503906 75.894531 11.25 C 74.886719 9.933594 73.859375 8.679688 72.632812 7.742188 C 71.417969 6.808594 70.039062 6.128906 68.644531 5.898438 C 67.257812 5.660156 65.847656 5.816406 64.390625 6.1875 C 62.941406 6.59375 61.457031 7.148438 59.71875 7.363281 C 59.105469 7.445312 58.542969 7.011719 58.464844 6.394531 C 58.414062 6.015625 58.566406 5.648438 58.824219 5.410156 Z M 58.824219 5.410156 " fill-opacity="1" fill-rule="nonzero"/><path fill="#000000" d="M 42.472656 4.949219 C 40.566406 4.464844 38.839844 3.941406 37.019531 3.605469 C 35.203125 3.3125 33.34375 3.273438 31.507812 3.558594 C 27.824219 4.121094 24.316406 6.144531 21.703125 9.074219 C 21.445312 9.363281 21.007812 9.390625 20.722656 9.132812 C 20.464844 8.90625 20.417969 8.519531 20.59375 8.238281 C 22.867188 4.613281 26.605469 1.867188 30.898438 0.710938 C 33.046875 0.132812 35.328125 0.00390625 37.535156 0.363281 C 39.738281 0.667969 41.921875 1.523438 43.542969 3.085938 C 43.980469 3.511719 43.996094 4.210938 43.574219 4.652344 C 43.289062 4.949219 42.882812 5.054688 42.511719 4.960938 Z M 42.472656 4.949219 " fill-opacity="1" fill-rule="nonzero"/><path fill="#000000" d="M 19.113281 60.210938 C 31.320312 73.449219 54.398438 90.003906 65.359375 59.714844 C 65.570312 59.132812 65.210938 58.46875 64.691406 58.523438 C 57.914062 59.230469 28.484375 58.289062 19.585938 58.726562 C 18.953125 58.757812 18.644531 59.707031 19.113281 60.210938 Z M 19.113281 60.210938 " fill-opacity="1" fill-rule="nonzero"/><path fill="#ffffff" d="M 60.46875 60.929688 C 60.46875 60.929688 58.859375 64.925781 57.839844 65.808594 C 56.925781 66.605469 34.335938 66.414062 29.816406 66.367188 C 29.3125 66.363281 28.847656 66.136719 28.523438 65.746094 L 25.703125 62.371094 C 25.332031 61.925781 25.644531 61.25 26.222656 61.242188 Z M 60.46875 60.929688 " fill-opacity="1" fill-rule="nonzero"/><path fill="#ffffff" d="M 39 73.167969 C 38.871094 73.234375 44.246094 75.136719 46.117188 75.140625 C 47.988281 75.148438 52.058594 73.398438 52.058594 73.398438 C 52.058594 73.398438 44.050781 70.566406 39 73.167969 Z M 39 73.167969 " fill-opacity="1" fill-rule="nonzero"/></svg>