<svg xmlns="http://www.w3.org/2000/svg" xmlns:xlink="http://www.w3.org/1999/xlink" width="120" zoomAndPan="magnify" viewBox="0 0 90 89.999999" height="120" preserveAspectRatio="xMidYMid meet" version="1.0"><defs><clipPath id="5a615425f0"><path d="M 12.683594 0 L 42 0 L 42 14 L 12.683594 14 Z M 12.683594 0 " clip-rule="nonzero"/></clipPath><clipPath id="92d6fa7f1d"><path d="M 58 25 L 77.183594 25 L 77.183594 35 L 58 35 Z M 58 25 " clip-rule="nonzero"/></clipPath></defs><path fill="#000000" d="M 53.257812 26.398438 C 55.207031 30.882812 56.546875 35.566406 57.65625 40.296875 C 58.808594 45.019531 59.777344 49.78125 60.609375 54.570312 L 61.773438 61.761719 L 62.042969 63.5625 L 62.175781 64.464844 C 62.183594 64.695312 62.25 64.550781 62.207031 65.222656 C 62.15625 65.777344 61.910156 66.265625 61.765625 66.371094 C 60.402344 67.863281 59.332031 68.09375 58.148438 68.707031 C 55.832031 69.695312 53.503906 70.453125 51.128906 71.097656 C 48.738281 71.710938 46.402344 72.308594 43.746094 72.332031 C 43.300781 72.335938 42.929688 71.976562 42.925781 71.527344 C 42.921875 71.113281 43.226562 70.769531 43.621094 70.710938 L 43.746094 70.695312 C 48.171875 70.046875 52.890625 68.308594 57.027344 66.320312 C 57.972656 65.851562 59.195312 65.082031 59.429688 64.746094 C 59.535156 64.648438 59.328125 64.832031 59.339844 65.085938 C 59.417969 65.464844 59.335938 65.019531 59.320312 64.953125 L 59.144531 64.070312 L 58.78125 62.300781 L 57.246094 55.246094 L 53.90625 41.21875 C 52.714844 36.558594 51.558594 31.902344 50.824219 27.105469 C 50.71875 26.40625 51.195312 25.753906 51.890625 25.644531 C 52.476562 25.554688 53.027344 25.878906 53.257812 26.398438 Z M 53.257812 26.398438 " fill-opacity="1" fill-rule="nonzero"/><g clip-path="url(#5a615425f0)"><path fill="#000000" d="M 40.882812 0.902344 C 40.601562 0.675781 39.878906 0.714844 39.628906 0.953125 C 39.34375 1.160156 39.265625 1.324219 39.191406 1.492188 C 39.128906 1.65625 39.085938 1.839844 39.136719 2.109375 C 39.148438 2.363281 39.46875 2.761719 39.546875 2.800781 C 40.171875 3.214844 40.308594 3.019531 40.164062 3.125 C 39.871094 3.238281 39.585938 3.355469 39.289062 3.433594 L 37.546875 3.980469 L 34.042969 4.894531 C 31.71875 5.535156 29.40625 6.242188 27.121094 7.066406 C 22.550781 8.703125 18.195312 10.988281 14.070312 13.699219 C 13.691406 13.949219 13.179688 13.84375 12.933594 13.464844 C 12.707031 13.125 12.769531 12.675781 13.0625 12.40625 C 16.808594 8.957031 21.15625 6.144531 25.792969 3.902344 C 28.109375 2.78125 30.53125 1.84375 33.023438 1.164062 C 34.261719 0.808594 35.519531 0.488281 36.804688 0.339844 C 37.445312 0.238281 38.097656 0.226562 38.742188 0.195312 C 39.066406 0.167969 39.394531 0.183594 39.71875 0.195312 C 39.871094 0.253906 40.355469 0 41.242188 0.605469 C 41.382812 0.6875 41.753906 1.152344 41.78125 1.484375 C 41.847656 1.828125 41.800781 2.09375 41.710938 2.332031 C 41.613281 2.570312 41.492188 2.808594 41.144531 3.0625 C 40.828125 3.347656 40.019531 3.394531 39.667969 3.128906 C 39.054688 2.792969 38.832031 2.023438 39.164062 1.40625 C 39.5 0.792969 40.269531 0.566406 40.882812 0.902344 Z M 40.882812 0.902344 " fill-opacity="1" fill-rule="nonzero"/></g><path fill="#000000" d="M 72.933594 13.222656 C 71.46875 12.117188 70.453125 10.84375 69.390625 9.695312 C 68.292969 8.582031 67.125 7.625 65.738281 6.796875 C 62.945312 5.144531 59.527344 4.136719 56.214844 2.953125 C 55.785156 2.808594 55.550781 2.339844 55.695312 1.910156 C 55.820312 1.539062 56.199219 1.316406 56.570312 1.351562 C 60.117188 1.765625 63.660156 2.292969 67.25 3.714844 C 70.808594 5.214844 74.164062 8.195312 75.058594 11.847656 C 75.234375 12.570312 74.796875 13.292969 74.078125 13.472656 C 73.675781 13.570312 73.269531 13.476562 72.957031 13.242188 Z M 72.933594 13.222656 " fill-opacity="1" fill-rule="nonzero"/><path fill="#000000" d="M 15.589844 28.402344 C 16.867188 26.730469 18.550781 25.464844 20.496094 24.507812 C 22.402344 23.507812 24.625 22.785156 26.957031 22.757812 C 29.296875 22.703125 31.585938 23.417969 33.453125 24.523438 C 35.328125 25.644531 36.9375 27.039062 38.269531 28.625 C 38.566406 28.96875 38.527344 29.488281 38.183594 29.789062 C 37.886719 30.046875 37.445312 30.042969 37.144531 29.8125 C 34.09375 27.433594 30.53125 25.617188 27.191406 26.179688 C 25.519531 26.425781 23.898438 27.09375 22.269531 27.941406 C 20.664062 28.835938 19.039062 29.839844 17.050781 30.476562 C 16.351562 30.699219 15.605469 30.316406 15.382812 29.617188 C 15.246094 29.1875 15.34375 28.734375 15.589844 28.402344 Z M 15.589844 28.402344 " fill-opacity="1" fill-rule="nonzero"/><g clip-path="url(#92d6fa7f1d)"><path fill="#000000" d="M 58.421875 29.3125 C 59.5625 27.46875 61.585938 26.707031 63.234375 26.335938 C 64.894531 25.902344 66.8125 25.574219 68.835938 25.953125 C 70.886719 26.332031 72.625 27.484375 73.878906 28.792969 C 75.148438 30.113281 76.125 31.546875 76.933594 33.03125 C 77.152344 33.433594 77.003906 33.9375 76.601562 34.152344 C 76.269531 34.332031 75.867188 34.257812 75.617188 34.003906 C 74.460938 32.828125 73.378906 31.640625 72.152344 30.78125 C 70.933594 29.914062 69.664062 29.367188 68.40625 29.359375 C 67.125 29.328125 65.734375 29.675781 64.214844 30.078125 C 62.6875 30.539062 61.46875 30.847656 60.097656 31.214844 L 59.878906 31.273438 C 59.175781 31.460938 58.457031 31.042969 58.273438 30.34375 C 58.175781 29.980469 58.242188 29.609375 58.421875 29.3125 Z M 58.421875 29.3125 " fill-opacity="1" fill-rule="nonzero"/></g><path fill="#000000" d="M 26.878906 75.457031 C 30.207031 76.3125 33.277344 77.585938 36.359375 78.726562 C 39.457031 79.820312 42.578125 80.726562 45.769531 81.183594 C 52.050781 82.085938 58.949219 80.898438 63.871094 76.597656 C 64.210938 76.296875 64.730469 76.332031 65.027344 76.675781 C 65.300781 76.988281 65.292969 77.453125 65.023438 77.757812 C 62.667969 80.457031 59.417969 82.292969 56.027344 83.386719 C 52.613281 84.480469 48.996094 84.832031 45.417969 84.601562 C 41.855469 84.363281 38.371094 83.542969 35.078125 82.378906 C 31.757812 81.257812 28.628906 79.761719 25.808594 77.753906 C 25.230469 77.34375 25.097656 76.535156 25.507812 75.957031 C 25.824219 75.511719 26.378906 75.328125 26.878906 75.457031 Z M 26.878906 75.457031 " fill-opacity="1" fill-rule="nonzero"/><path fill="#000000" d="M 41.457031 85.75 C 42.6875 85.554688 43.671875 85.734375 44.695312 85.960938 C 45.71875 86.132812 46.753906 86.296875 47.816406 86.394531 C 49.945312 86.59375 52.125 86.34375 54.3125 85.785156 C 54.753906 85.664062 55.210938 85.921875 55.332031 86.367188 C 55.425781 86.710938 55.273438 87.074219 54.996094 87.273438 C 52.933594 88.679688 50.460938 89.484375 47.917969 89.824219 C 46.640625 89.992188 45.328125 89.996094 44.046875 89.773438 C 42.765625 89.609375 41.480469 89.164062 40.535156 88.113281 C 40.011719 87.535156 40.054688 86.640625 40.632812 86.113281 C 40.84375 85.925781 41.097656 85.808594 41.359375 85.765625 Z M 41.457031 85.75 " fill-opacity="1" fill-rule="nonzero"/></svg>