<svg xmlns="http://www.w3.org/2000/svg" xmlns:xlink="http://www.w3.org/1999/xlink" width="120" zoomAndPan="magnify" viewBox="0 0 90 89.999999" height="120" preserveAspectRatio="xMidYMid meet" version="1.0"><defs><clipPath id="f1225ef507"><path d="M 4.746094 1 L 39 1 L 39 10 L 4.746094 10 Z M 4.746094 1 " clip-rule="nonzero"/></clipPath><clipPath id="42f7d75df2"><path d="M 51 0 L 84.996094 0 L 84.996094 11 L 51 11 Z M 51 0 " clip-rule="nonzero"/></clipPath></defs><path fill="#000000" d="M 48.109375 16.816406 C 50.324219 22.207031 51.804688 27.816406 53.007812 33.480469 C 54.269531 39.132812 55.3125 44.828125 56.183594 50.554688 L 57.398438 59.148438 L 57.675781 61.296875 L 57.8125 62.375 C 57.816406 62.648438 57.898438 62.480469 57.832031 63.277344 C 57.757812 63.9375 57.453125 64.511719 57.28125 64.636719 C 55.621094 66.378906 54.34375 66.628906 52.921875 67.332031 C 50.140625 68.453125 47.351562 69.300781 44.515625 70.011719 C 41.652344 70.683594 38.859375 71.339844 35.703125 71.304688 C 35.167969 71.300781 34.738281 70.859375 34.742188 70.324219 C 34.75 69.832031 35.117188 69.429688 35.589844 69.371094 L 35.738281 69.351562 C 41.019531 68.6875 46.675781 66.730469 51.640625 64.464844 C 52.777344 63.929688 54.25 63.035156 54.539062 62.644531 C 54.667969 62.53125 54.414062 62.742188 54.421875 63.046875 C 54.511719 63.5 54.421875 62.96875 54.40625 62.890625 L 54.214844 61.832031 L 53.828125 59.714844 L 52.171875 51.277344 L 48.527344 34.488281 C 47.222656 28.910156 45.957031 23.335938 45.199219 17.601562 C 45.089844 16.765625 45.671875 16 46.503906 15.890625 C 47.199219 15.792969 47.851562 16.195312 48.109375 16.816406 Z M 48.109375 16.816406 " fill-opacity="1" fill-rule="nonzero"/><g clip-path="url(#f1225ef507)"><path fill="#000000" d="M 38.425781 4.152344 C 36.15625 6.375 33.421875 7.597656 30.515625 8.402344 C 27.628906 9.214844 24.585938 9.632812 21.546875 9.4375 C 18.519531 9.25 15.574219 8.664062 12.78125 7.589844 C 10 6.488281 7.382812 5.128906 5.148438 2.964844 C 4.761719 2.589844 4.753906 1.972656 5.125 1.585938 C 5.453125 1.246094 5.964844 1.199219 6.34375 1.441406 L 6.445312 1.503906 C 8.597656 2.886719 11.164062 3.980469 13.722656 4.59375 C 16.296875 5.226562 18.972656 5.480469 21.570312 5.347656 C 24.160156 5.230469 26.71875 4.675781 29.242188 3.972656 C 31.726562 3.175781 34.242188 2.253906 36.816406 1.601562 L 36.976562 1.558594 C 37.796875 1.347656 38.632812 1.847656 38.839844 2.671875 C 38.980469 3.222656 38.804688 3.78125 38.425781 4.152344 Z M 38.425781 4.152344 " fill-opacity="1" fill-rule="nonzero"/></g><g clip-path="url(#42f7d75df2)"><path fill="#000000" d="M 53.933594 0.457031 C 56.0625 1.773438 58.136719 3.289062 60.347656 4.414062 C 62.617188 5.464844 65.027344 6.21875 67.652344 6.398438 C 72.914062 6.804688 78.476562 5.636719 83.492188 3.585938 L 83.554688 3.5625 C 84.050781 3.359375 84.621094 3.597656 84.824219 4.097656 C 85.003906 4.542969 84.832031 5.042969 84.441406 5.292969 C 81.898438 6.898438 79.207031 7.976562 76.375 8.851562 C 73.550781 9.707031 70.589844 10.21875 67.5625 10.277344 C 64.523438 10.402344 61.292969 9.90625 58.417969 8.578125 C 55.535156 7.257812 52.902344 5.359375 51.492188 2.226562 C 51.148438 1.457031 51.488281 0.554688 52.253906 0.207031 C 52.730469 -0.0078125 53.257812 0.0429688 53.671875 0.292969 Z M 53.933594 0.457031 " fill-opacity="1" fill-rule="nonzero"/></g><path fill="#000000" d="M 14.632812 74.414062 C 19.121094 75.464844 23.863281 76.449219 28.542969 77.300781 C 33.269531 78.046875 38.058594 78.570312 42.882812 78.832031 C 47.710938 79.078125 52.5625 79.046875 57.34375 78.625 C 61.984375 78.152344 67.175781 77.285156 70.628906 74.9375 L 70.90625 74.75 C 71.339844 74.453125 71.929688 74.566406 72.226562 75 C 72.492188 75.394531 72.425781 75.914062 72.089844 76.226562 C 69.882812 78.316406 67.558594 79.113281 65.117188 79.96875 C 62.691406 80.75 60.21875 81.261719 57.742188 81.683594 C 52.78125 82.488281 47.789062 82.75 42.804688 82.828125 C 37.816406 82.886719 32.789062 82.648438 27.820312 81.847656 C 22.832031 81.078125 17.90625 79.925781 13.335938 77.140625 C 12.625 76.710938 12.398438 75.777344 12.828125 75.0625 C 13.175781 74.492188 13.839844 74.230469 14.460938 74.371094 Z M 14.632812 74.414062 " fill-opacity="1" fill-rule="nonzero"/><path fill="#000000" d="M 47.105469 88.808594 C 46.328125 89.699219 45.382812 89.914062 44.449219 89.921875 C 43.515625 89.988281 42.574219 89.902344 41.648438 89.726562 C 39.808594 89.363281 38.003906 88.882812 36.355469 88.03125 C 35.859375 87.773438 35.664062 87.164062 35.917969 86.667969 C 36.085938 86.34375 36.425781 86.144531 36.761719 86.121094 C 38.492188 85.992188 40.132812 85.917969 41.746094 85.636719 C 42.550781 85.503906 43.335938 85.375 44.128906 85.324219 C 44.914062 85.207031 45.6875 85.21875 46.613281 85.828125 L 46.710938 85.890625 C 47.609375 86.484375 47.859375 87.691406 47.273438 88.589844 C 47.222656 88.664062 47.164062 88.742188 47.105469 88.808594 Z M 47.105469 88.808594 " fill-opacity="1" fill-rule="nonzero"/><path fill="#000000" d="M 31.074219 24.484375 C 31.074219 24.792969 31.046875 25.097656 30.996094 25.402344 C 30.945312 25.703125 30.867188 25.996094 30.765625 26.28125 C 30.667969 26.566406 30.542969 26.835938 30.394531 27.09375 C 30.25 27.351562 30.082031 27.585938 29.894531 27.804688 C 29.707031 28.023438 29.503906 28.21875 29.285156 28.390625 C 29.066406 28.558594 28.835938 28.703125 28.589844 28.824219 C 28.347656 28.941406 28.09375 29.03125 27.835938 29.089844 C 27.578125 29.148438 27.316406 29.179688 27.050781 29.179688 C 26.785156 29.179688 26.527344 29.148438 26.265625 29.089844 C 26.007812 29.03125 25.757812 28.941406 25.511719 28.824219 C 25.269531 28.703125 25.035156 28.558594 24.816406 28.390625 C 24.597656 28.21875 24.394531 28.023438 24.207031 27.804688 C 24.019531 27.585938 23.851562 27.351562 23.707031 27.09375 C 23.558594 26.835938 23.4375 26.566406 23.335938 26.28125 C 23.234375 25.996094 23.15625 25.703125 23.105469 25.402344 C 23.054688 25.097656 23.027344 24.792969 23.027344 24.484375 C 23.027344 24.175781 23.054688 23.871094 23.105469 23.570312 C 23.15625 23.265625 23.234375 22.972656 23.335938 22.6875 C 23.4375 22.402344 23.558594 22.132812 23.707031 21.878906 C 23.851562 21.621094 24.019531 21.382812 24.207031 21.164062 C 24.394531 20.949219 24.597656 20.753906 24.816406 20.582031 C 25.035156 20.410156 25.269531 20.265625 25.511719 20.148438 C 25.757812 20.03125 26.007812 19.941406 26.265625 19.882812 C 26.527344 19.820312 26.785156 19.789062 27.050781 19.789062 C 27.316406 19.789062 27.578125 19.820312 27.835938 19.882812 C 28.09375 19.941406 28.347656 20.03125 28.589844 20.148438 C 28.835938 20.265625 29.066406 20.410156 29.285156 20.582031 C 29.503906 20.753906 29.707031 20.949219 29.894531 21.164062 C 30.082031 21.382812 30.25 21.621094 30.394531 21.878906 C 30.542969 22.132812 30.667969 22.402344 30.765625 22.6875 C 30.867188 22.972656 30.945312 23.265625 30.996094 23.570312 C 31.046875 23.871094 31.074219 24.175781 31.074219 24.484375 Z M 31.074219 24.484375 " fill-opacity="1" fill-rule="nonzero"/><path fill="#000000" d="M 71.359375 24.484375 C 71.359375 24.792969 71.332031 25.097656 71.28125 25.402344 C 71.230469 25.703125 71.152344 25.996094 71.054688 26.28125 C 70.953125 26.566406 70.828125 26.835938 70.679688 27.09375 C 70.535156 27.351562 70.367188 27.585938 70.179688 27.804688 C 69.996094 28.023438 69.792969 28.21875 69.570312 28.390625 C 69.351562 28.558594 69.121094 28.703125 68.875 28.824219 C 68.632812 28.941406 68.378906 29.03125 68.121094 29.089844 C 67.863281 29.148438 67.601562 29.179688 67.335938 29.179688 C 67.074219 29.179688 66.8125 29.148438 66.550781 29.089844 C 66.292969 29.03125 66.042969 28.941406 65.796875 28.824219 C 65.554688 28.703125 65.320312 28.558594 65.101562 28.390625 C 64.882812 28.21875 64.679688 28.023438 64.492188 27.804688 C 64.304688 27.585938 64.140625 27.351562 63.992188 27.09375 C 63.84375 26.835938 63.722656 26.566406 63.621094 26.28125 C 63.519531 25.996094 63.441406 25.703125 63.390625 25.402344 C 63.339844 25.097656 63.316406 24.792969 63.316406 24.484375 C 63.316406 24.175781 63.339844 23.871094 63.390625 23.570312 C 63.441406 23.265625 63.519531 22.972656 63.621094 22.6875 C 63.722656 22.402344 63.84375 22.132812 63.992188 21.878906 C 64.140625 21.621094 64.304688 21.382812 64.492188 21.164062 C 64.679688 20.949219 64.882812 20.753906 65.101562 20.582031 C 65.320312 20.410156 65.554688 20.265625 65.796875 20.148438 C 66.042969 20.03125 66.292969 19.941406 66.550781 19.882812 C 66.8125 19.820312 67.074219 19.789062 67.335938 19.789062 C 67.601562 19.789062 67.863281 19.820312 68.121094 19.882812 C 68.378906 19.941406 68.632812 20.03125 68.875 20.148438 C 69.121094 20.265625 69.351562 20.410156 69.570312 20.582031 C 69.792969 20.753906 69.996094 20.949219 70.179688 21.164062 C 70.367188 21.382812 70.535156 21.621094 70.679688 21.878906 C 70.828125 22.132812 70.953125 22.402344 71.054688 22.6875 C 71.152344 22.972656 71.230469 23.265625 71.28125 23.570312 C 71.332031 23.871094 71.359375 24.175781 71.359375 24.484375 Z M 71.359375 24.484375 " fill-opacity="1" fill-rule="nonzero"/></svg>