<svg xmlns="http://www.w3.org/2000/svg" xmlns:xlink="http://www.w3.org/1999/xlink" width="120" zoomAndPan="magnify" viewBox="0 0 90 89.999999" height="120" preserveAspectRatio="xMidYMid meet" version="1.0"><defs><clipPath id="71d6cd450a"><path d="M 11.699219 0 L 41 0 L 41 14 L 11.699219 14 Z M 11.699219 0 " clip-rule="nonzero"/></clipPath><clipPath id="41984e6792"><path d="M 58 3 L 78.449219 3 L 78.449219 16 L 58 16 Z M 58 3 " clip-rule="nonzero"/></clipPath><clipPath id="3c053527b3"><path d="M 61 24 L 78.449219 24 L 78.449219 30 L 61 30 Z M 61 24 " clip-rule="nonzero"/></clipPath></defs><path fill="#000000" d="M 57.65625 20.996094 C 59.59375 25.429688 60.925781 30.0625 62.023438 34.738281 C 63.171875 39.40625 64.132812 44.121094 64.957031 48.851562 L 66.117188 55.964844 L 66.382812 57.746094 L 66.511719 58.636719 C 66.519531 58.863281 66.589844 58.722656 66.546875 59.386719 C 66.496094 59.933594 66.25 60.417969 66.109375 60.523438 C 64.753906 61.996094 63.691406 62.226562 62.515625 62.832031 C 60.214844 63.808594 57.902344 64.558594 55.546875 65.195312 C 53.167969 65.800781 50.847656 66.394531 48.214844 66.417969 C 47.769531 66.421875 47.402344 66.0625 47.398438 65.621094 C 47.394531 65.210938 47.695312 64.871094 48.089844 64.8125 L 48.210938 64.796875 C 52.605469 64.15625 57.292969 62.4375 61.398438 60.472656 C 62.339844 60.011719 63.554688 59.246094 63.789062 58.914062 C 63.890625 58.816406 63.6875 59 63.699219 59.25 C 63.777344 59.625 63.695312 59.1875 63.679688 59.121094 L 63.503906 58.246094 L 63.144531 56.496094 L 61.621094 49.523438 L 58.300781 35.652344 C 57.117188 31.046875 55.96875 26.441406 55.242188 21.695312 C 55.136719 21.003906 55.609375 20.355469 56.300781 20.25 C 56.882812 20.160156 57.433594 20.484375 57.65625 20.996094 Z M 57.65625 20.996094 " fill-opacity="1" fill-rule="nonzero"/><g clip-path="url(#71d6cd450a)"><path fill="#000000" d="M 12.757812 12.894531 C 13.039062 13.121094 13.75 13.082031 14.003906 12.84375 C 14.285156 12.640625 14.363281 12.476562 14.4375 12.3125 C 14.5 12.148438 14.539062 11.96875 14.492188 11.703125 C 14.480469 11.449219 14.160156 11.054688 14.082031 11.019531 C 13.464844 10.609375 13.328125 10.800781 13.472656 10.695312 C 13.757812 10.585938 14.046875 10.46875 14.335938 10.390625 L 16.070312 9.851562 L 19.550781 8.949219 C 21.859375 8.3125 24.152344 7.617188 26.421875 6.800781 C 30.964844 5.179688 35.285156 2.921875 39.382812 0.242188 C 39.761719 -0.00390625 40.265625 0.0976562 40.511719 0.472656 C 40.738281 0.808594 40.671875 1.253906 40.382812 1.519531 C 36.664062 4.933594 32.34375 7.710938 27.742188 9.929688 C 25.4375 11.039062 23.035156 11.964844 20.5625 12.636719 C 19.328125 12.988281 18.082031 13.304688 16.804688 13.453125 C 16.171875 13.554688 15.523438 13.566406 14.882812 13.597656 C 14.5625 13.621094 14.234375 13.609375 13.914062 13.597656 C 13.761719 13.539062 13.28125 13.789062 12.398438 13.191406 C 12.261719 13.109375 11.890625 12.648438 11.863281 12.320312 C 11.796875 11.980469 11.847656 11.71875 11.933594 11.480469 C 12.03125 11.246094 12.152344 11.011719 12.496094 10.761719 C 12.808594 10.480469 13.613281 10.429688 13.960938 10.695312 C 14.570312 11.027344 14.792969 11.789062 14.460938 12.394531 C 14.128906 13.003906 13.367188 13.226562 12.757812 12.894531 Z M 12.757812 12.894531 " fill-opacity="1" fill-rule="nonzero"/></g><g clip-path="url(#41984e6792)"><path fill="#000000" d="M 61.085938 3.515625 C 62.539062 4.609375 63.550781 5.867188 64.605469 7 C 65.691406 8.101562 66.851562 9.050781 68.230469 9.871094 C 71.003906 11.5 74.394531 12.5 77.6875 13.667969 C 78.113281 13.8125 78.347656 14.273438 78.203125 14.703125 C 78.078125 15.066406 77.703125 15.289062 77.332031 15.25 C 73.8125 14.84375 70.292969 14.320312 66.726562 12.917969 C 63.195312 11.433594 59.863281 8.488281 58.972656 4.875 C 58.796875 4.160156 59.234375 3.445312 59.945312 3.269531 C 60.347656 3.171875 60.753906 3.265625 61.058594 3.496094 Z M 61.085938 3.515625 " fill-opacity="1" fill-rule="nonzero"/></g><g clip-path="url(#3c053527b3)"><path fill="#000000" d="M 63.394531 24.238281 C 64.792969 24.398438 65.867188 24.914062 66.914062 25.425781 C 67.980469 25.894531 69.015625 26.304688 70.09375 26.550781 C 72.242188 27.097656 74.617188 26.589844 77.011719 25.707031 C 77.4375 25.550781 77.910156 25.761719 78.070312 26.1875 C 78.199219 26.527344 78.082031 26.90625 77.808594 27.121094 C 75.675781 28.78125 72.828125 30.042969 69.722656 29.925781 C 68.195312 29.886719 66.699219 29.515625 65.375 28.929688 C 64.023438 28.390625 62.820312 27.597656 62.023438 26.339844 C 61.613281 25.699219 61.804688 24.847656 62.449219 24.4375 C 62.722656 24.265625 63.039062 24.199219 63.34375 24.230469 Z M 63.394531 24.238281 " fill-opacity="1" fill-rule="nonzero"/></g><path fill="#000000" d="M 40.222656 22.917969 C 38.957031 24.464844 37.257812 25.464844 35.472656 26.183594 C 33.707031 26.949219 31.84375 27.492188 29.957031 27.847656 C 26.1875 28.550781 22.328125 28.703125 18.609375 28.066406 C 18.167969 27.988281 17.867188 27.566406 17.945312 27.125 C 18.011719 26.742188 18.339844 26.464844 18.710938 26.449219 C 22.292969 26.265625 25.796875 25.691406 29.105469 24.5625 C 30.757812 24.003906 32.363281 23.359375 33.945312 22.675781 C 35.515625 21.941406 37.050781 21.222656 38.867188 20.804688 L 38.898438 20.796875 C 39.609375 20.632812 40.320312 21.074219 40.484375 21.785156 C 40.582031 22.195312 40.46875 22.613281 40.222656 22.917969 Z M 40.222656 22.917969 " fill-opacity="1" fill-rule="nonzero"/><path fill="#000000" d="M 19.722656 82.394531 C 23.023438 80.402344 26.625 78.859375 30.5 77.910156 C 34.359375 76.867188 38.476562 76.644531 42.355469 76.863281 C 46.265625 77.070312 50.035156 77.53125 53.84375 77.976562 C 57.640625 78.429688 61.445312 78.832031 65.230469 79.363281 C 65.675781 79.425781 65.984375 79.835938 65.921875 80.277344 C 65.867188 80.6875 65.507812 80.984375 65.105469 80.976562 L 65.082031 80.976562 C 57.472656 80.859375 49.785156 80.230469 42.292969 80.257812 C 38.546875 80.308594 34.976562 80.671875 31.457031 81.613281 C 27.9375 82.570312 24.4375 83.878906 20.660156 84.722656 C 19.972656 84.875 19.292969 84.445312 19.140625 83.757812 C 19.015625 83.214844 19.269531 82.671875 19.722656 82.394531 Z M 19.722656 82.394531 " fill-opacity="1" fill-rule="nonzero"/><path fill="#000000" d="M 37.964844 86.984375 C 39.015625 86.242188 40.089844 86.035156 41.179688 85.960938 C 42.261719 85.839844 43.355469 85.804688 44.457031 85.8125 C 46.660156 85.828125 48.871094 85.804688 51.125 85.957031 L 51.210938 85.964844 C 51.660156 85.996094 52 86.382812 51.96875 86.832031 C 51.945312 87.179688 51.703125 87.460938 51.390625 87.558594 C 49.238281 88.203125 47.039062 88.671875 44.835938 89.183594 C 43.734375 89.4375 42.625 89.652344 41.507812 89.773438 C 40.394531 89.945312 39.261719 89.988281 38.113281 89.492188 C 37.398438 89.183594 37.074219 88.355469 37.382812 87.644531 C 37.488281 87.40625 37.652344 87.207031 37.855469 87.0625 Z M 37.964844 86.984375 " fill-opacity="1" fill-rule="nonzero"/></svg>