<svg xmlns="http://www.w3.org/2000/svg" xmlns:xlink="http://www.w3.org/1999/xlink" width="120" zoomAndPan="magnify" viewBox="0 0 90 89.999999" height="120" preserveAspectRatio="xMidYMid meet" version="1.0"><defs><clipPath id="1659093a49"><path d="M 56 4 L 73.1875 4 L 73.1875 17 L 56 17 Z M 56 4 " clip-rule="nonzero"/></clipPath></defs><path fill="#000000" d="M 31.710938 28.191406 C 31.710938 28.695312 31.628906 29.175781 31.464844 29.636719 C 31.296875 30.101562 31.0625 30.507812 30.757812 30.863281 C 30.453125 31.21875 30.101562 31.492188 29.703125 31.683594 C 29.304688 31.875 28.890625 31.96875 28.457031 31.96875 C 28.027344 31.96875 27.609375 31.875 27.210938 31.683594 C 26.8125 31.492188 26.460938 31.21875 26.15625 30.863281 C 25.851562 30.507812 25.617188 30.101562 25.449219 29.636719 C 25.285156 29.175781 25.203125 28.695312 25.203125 28.191406 C 25.203125 27.691406 25.285156 27.210938 25.449219 26.746094 C 25.617188 26.285156 25.851562 25.875 26.15625 25.523438 C 26.460938 25.167969 26.8125 24.894531 27.210938 24.703125 C 27.609375 24.511719 28.027344 24.414062 28.457031 24.414062 C 28.890625 24.414062 29.304688 24.511719 29.703125 24.703125 C 30.101562 24.894531 30.453125 25.167969 30.757812 25.523438 C 31.0625 25.875 31.296875 26.285156 31.464844 26.746094 C 31.628906 27.210938 31.710938 27.691406 31.710938 28.191406 Z M 31.710938 28.191406 " fill-opacity="1" fill-rule="nonzero"/><path fill="#000000" d="M 68.386719 32.972656 C 68.386719 33.472656 68.304688 33.953125 68.140625 34.417969 C 67.972656 34.878906 67.738281 35.289062 67.433594 35.640625 C 67.128906 35.996094 66.777344 36.269531 66.378906 36.460938 C 65.980469 36.652344 65.566406 36.746094 65.132812 36.746094 C 64.703125 36.746094 64.285156 36.652344 63.886719 36.460938 C 63.488281 36.269531 63.136719 35.996094 62.832031 35.640625 C 62.527344 35.289062 62.292969 34.878906 62.125 34.417969 C 61.960938 33.953125 61.878906 33.472656 61.878906 32.972656 C 61.878906 32.46875 61.960938 31.988281 62.125 31.523438 C 62.292969 31.0625 62.527344 30.652344 62.832031 30.300781 C 63.136719 29.945312 63.488281 29.671875 63.886719 29.480469 C 64.285156 29.289062 64.703125 29.195312 65.132812 29.195312 C 65.566406 29.195312 65.980469 29.289062 66.378906 29.480469 C 66.777344 29.671875 67.128906 29.945312 67.433594 30.300781 C 67.738281 30.652344 67.972656 31.0625 68.140625 31.523438 C 68.304688 31.988281 68.386719 32.46875 68.386719 32.972656 Z M 68.386719 32.972656 " fill-opacity="1" fill-rule="nonzero"/><path fill="#000000" d="M 55.113281 27.132812 C 56.992188 31.429688 58.28125 35.917969 59.347656 40.453125 C 60.457031 44.980469 61.390625 49.546875 62.1875 54.136719 L 63.3125 61.03125 L 63.699219 63.621094 C 63.703125 63.84375 63.769531 63.703125 63.726562 64.347656 C 63.679688 64.878906 63.441406 65.34375 63.304688 65.449219 C 61.992188 66.878906 60.960938 67.097656 59.820312 67.6875 C 57.589844 68.632812 55.347656 69.359375 53.066406 69.976562 C 50.761719 70.566406 48.511719 71.136719 45.957031 71.164062 C 45.527344 71.167969 45.171875 70.820312 45.167969 70.390625 C 45.164062 69.992188 45.457031 69.664062 45.835938 69.609375 L 45.957031 69.589844 C 50.214844 68.96875 54.761719 67.308594 58.742188 65.398438 C 59.652344 64.953125 60.828125 64.210938 61.054688 63.890625 C 61.15625 63.796875 60.957031 63.972656 60.96875 64.214844 C 61.046875 64.582031 60.964844 64.152344 60.949219 64.089844 L 60.433594 61.546875 L 58.957031 54.785156 L 55.734375 41.335938 C 54.589844 36.871094 53.476562 32.410156 52.769531 27.808594 C 52.667969 27.140625 53.128906 26.511719 53.796875 26.410156 C 54.359375 26.320312 54.894531 26.632812 55.113281 27.132812 Z M 55.113281 27.132812 " fill-opacity="1" fill-rule="nonzero"/><path fill="#000000" d="M 55.179688 81.023438 C 53.199219 80.289062 51.359375 79.917969 49.25 79.769531 C 47.15625 79.6875 44.949219 79.933594 42.734375 80.34375 C 38.285156 81.179688 33.894531 82.8125 29.503906 84.453125 C 29.09375 84.609375 28.640625 84.402344 28.484375 83.996094 C 28.347656 83.628906 28.5 83.226562 28.828125 83.035156 C 32.9375 80.667969 37.25 78.582031 41.949219 77.148438 C 44.300781 76.453125 46.792969 75.960938 49.40625 76.0625 C 51.972656 76.089844 54.898438 76.957031 56.679688 79.105469 C 57.117188 79.636719 57.039062 80.421875 56.507812 80.855469 C 56.15625 81.148438 55.6875 81.210938 55.285156 81.0625 Z M 55.179688 81.023438 " fill-opacity="1" fill-rule="nonzero"/><path fill="#000000" d="M 17.175781 9.398438 C 18.488281 7.003906 20.628906 5.164062 22.980469 3.847656 C 25.316406 2.480469 27.886719 1.546875 30.515625 1.027344 C 35.761719 -0.00390625 41.316406 0.441406 46.074219 2.671875 C 46.46875 2.855469 46.640625 3.328125 46.453125 3.71875 C 46.285156 4.078125 45.882812 4.25 45.515625 4.140625 C 40.824219 2.777344 35.84375 2.851562 31.304688 4.222656 C 29.035156 4.910156 26.878906 5.871094 24.863281 7.046875 C 22.863281 8.273438 21.03125 9.636719 19 11.011719 L 18.972656 11.027344 C 18.402344 11.414062 17.625 11.265625 17.238281 10.695312 C 16.964844 10.296875 16.960938 9.796875 17.175781 9.398438 Z M 17.175781 9.398438 " fill-opacity="1" fill-rule="nonzero"/><g clip-path="url(#1659093a49)"><path fill="#000000" d="M 57.039062 5.554688 C 58.695312 4.664062 60.640625 4.605469 62.425781 5.003906 C 64.230469 5.347656 65.953125 6.101562 67.441406 7.164062 C 70.410156 9.289062 72.5 12.460938 73.097656 15.875 C 73.171875 16.304688 72.882812 16.714844 72.453125 16.789062 C 72.085938 16.855469 71.730469 16.640625 71.585938 16.316406 C 70.355469 13.53125 68.253906 11.234375 65.710938 9.964844 C 64.441406 9.332031 63.09375 8.910156 61.71875 8.644531 C 60.324219 8.425781 58.980469 8.3125 57.445312 7.953125 L 57.359375 7.933594 C 56.667969 7.773438 56.238281 7.082031 56.398438 6.394531 C 56.488281 6.023438 56.730469 5.726562 57.039062 5.554688 Z M 57.039062 5.554688 " fill-opacity="1" fill-rule="nonzero"/></g><path fill="#000000" d="M 49.085938 86.648438 C 48.234375 87.242188 47.476562 87.390625 46.660156 87.480469 L 44.238281 87.917969 C 42.59375 88.25 41.011719 88.914062 39.441406 89.769531 L 39.425781 89.777344 C 39.035156 89.988281 38.546875 89.84375 38.335938 89.457031 C 38.179688 89.167969 38.21875 88.828125 38.402344 88.585938 C 39.613281 87.003906 41.273438 85.773438 43.097656 84.832031 C 44.015625 84.363281 45 84.003906 46.023438 83.832031 C 47.03125 83.605469 48.121094 83.601562 49.117188 84.21875 C 49.785156 84.632812 49.988281 85.503906 49.574219 86.167969 C 49.472656 86.335938 49.339844 86.472656 49.191406 86.578125 Z M 49.085938 86.648438 " fill-opacity="1" fill-rule="nonzero"/></svg>