<svg xmlns="http://www.w3.org/2000/svg" xmlns:xlink="http://www.w3.org/1999/xlink" width="120" zoomAndPan="magnify" viewBox="0 0 90 89.999999" height="120" preserveAspectRatio="xMidYMid meet" version="1.0"><defs><clipPath id="26a2fb1021"><path d="M 11.128906 0 L 40 0 L 40 18 L 11.128906 18 Z M 11.128906 0 " clip-rule="nonzero"/></clipPath><clipPath id="308c176d25"><path d="M 55 8 L 78.628906 8 L 78.628906 22 L 55 22 Z M 55 8 " clip-rule="nonzero"/></clipPath></defs><path fill="#000000" d="M 30.074219 21.554688 C 30.074219 22.09375 29.984375 22.613281 29.808594 23.113281 C 29.632812 23.609375 29.378906 24.050781 29.054688 24.429688 C 28.726562 24.8125 28.351562 25.105469 27.925781 25.3125 C 27.5 25.519531 27.054688 25.621094 26.59375 25.621094 C 26.128906 25.621094 25.6875 25.519531 25.257812 25.3125 C 24.832031 25.105469 24.457031 24.8125 24.128906 24.429688 C 23.804688 24.050781 23.550781 23.609375 23.375 23.113281 C 23.199219 22.613281 23.109375 22.09375 23.109375 21.554688 C 23.109375 21.015625 23.199219 20.5 23.375 20 C 23.550781 19.503906 23.804688 19.0625 24.128906 18.679688 C 24.457031 18.300781 24.832031 18.007812 25.257812 17.800781 C 25.6875 17.59375 26.128906 17.492188 26.59375 17.492188 C 27.054688 17.492188 27.5 17.59375 27.925781 17.800781 C 28.351562 18.007812 28.726562 18.300781 29.054688 18.679688 C 29.378906 19.0625 29.632812 19.503906 29.808594 20 C 29.984375 20.5 30.074219 21.015625 30.074219 21.554688 Z M 30.074219 21.554688 " fill-opacity="1" fill-rule="nonzero"/><path fill="#000000" d="M 69.320312 26.699219 C 69.320312 27.238281 69.230469 27.753906 69.054688 28.253906 C 68.878906 28.75 68.625 29.191406 68.300781 29.574219 C 67.972656 29.953125 67.597656 30.246094 67.171875 30.453125 C 66.742188 30.660156 66.300781 30.761719 65.835938 30.761719 C 65.375 30.761719 64.929688 30.660156 64.503906 30.453125 C 64.078125 30.246094 63.703125 29.953125 63.375 29.574219 C 63.046875 29.191406 62.796875 28.75 62.621094 28.253906 C 62.445312 27.753906 62.355469 27.238281 62.355469 26.699219 C 62.355469 26.160156 62.445312 25.640625 62.621094 25.140625 C 62.796875 24.644531 63.046875 24.203125 63.375 23.824219 C 63.703125 23.441406 64.078125 23.148438 64.503906 22.941406 C 64.929688 22.734375 65.375 22.632812 65.835938 22.632812 C 66.300781 22.632812 66.742188 22.734375 67.171875 22.941406 C 67.597656 23.148438 67.972656 23.441406 68.300781 23.824219 C 68.625 24.203125 68.878906 24.644531 69.054688 25.140625 C 69.230469 25.640625 69.320312 26.160156 69.320312 26.699219 Z M 69.320312 26.699219 " fill-opacity="1" fill-rule="nonzero"/><path fill="#000000" d="M 55.113281 20.414062 C 57.125 25.039062 58.503906 29.871094 59.644531 34.753906 C 60.835938 39.621094 61.832031 44.539062 62.6875 49.476562 L 63.890625 56.898438 L 64.164062 58.753906 L 64.300781 59.683594 C 64.308594 59.921875 64.378906 59.773438 64.332031 60.464844 C 64.28125 61.035156 64.027344 61.542969 63.882812 61.652344 C 62.472656 63.191406 61.371094 63.425781 60.152344 64.058594 C 57.765625 65.078125 55.367188 65.863281 52.921875 66.523438 C 50.457031 67.15625 48.050781 67.773438 45.320312 67.800781 C 44.855469 67.804688 44.476562 67.433594 44.472656 66.96875 C 44.46875 66.542969 44.78125 66.1875 45.1875 66.128906 L 45.316406 66.109375 C 49.875 65.441406 54.738281 63.652344 58.996094 61.601562 C 59.972656 61.117188 61.230469 60.320312 61.472656 59.976562 C 61.582031 59.875 61.367188 60.0625 61.378906 60.324219 C 61.464844 60.714844 61.378906 60.257812 61.363281 60.1875 L 61.179688 59.277344 L 60.808594 57.453125 L 59.226562 50.175781 L 55.78125 35.703125 C 54.554688 30.898438 53.363281 26.09375 52.609375 21.144531 C 52.5 20.421875 52.988281 19.75 53.707031 19.636719 C 54.308594 19.542969 54.878906 19.878906 55.113281 20.414062 Z M 55.113281 20.414062 " fill-opacity="1" fill-rule="nonzero"/><g clip-path="url(#26a2fb1021)"><path fill="#000000" d="M 39.628906 1.792969 C 38.996094 4.664062 37.347656 7.207031 35.328125 9.273438 C 33.335938 11.386719 30.976562 13.125 28.429688 14.449219 C 23.351562 17.085938 17.511719 18.296875 11.953125 17.421875 C 11.492188 17.347656 11.175781 16.914062 11.25 16.449219 C 11.316406 16.03125 11.679688 15.734375 12.089844 15.734375 C 17.316406 15.734375 22.410156 14.164062 26.664062 11.382812 C 28.789062 9.992188 30.71875 8.351562 32.433594 6.53125 C 34.117188 4.660156 35.59375 2.703125 37.269531 0.675781 L 37.292969 0.648438 C 37.761719 0.078125 38.605469 -0.00390625 39.175781 0.46875 C 39.574219 0.800781 39.730469 1.316406 39.628906 1.792969 Z M 39.628906 1.792969 " fill-opacity="1" fill-rule="nonzero"/></g><g clip-path="url(#308c176d25)"><path fill="#000000" d="M 77.9375 20.058594 C 75.917969 21.390625 73.4375 21.796875 71.070312 21.613281 C 68.691406 21.484375 66.339844 20.839844 64.222656 19.757812 C 60.003906 17.59375 56.683594 13.914062 55.164062 9.613281 C 55.011719 9.171875 55.242188 8.6875 55.679688 8.53125 C 56.070312 8.390625 56.492188 8.5625 56.695312 8.902344 C 58.785156 12.441406 61.996094 15.199219 65.648438 16.515625 C 67.46875 17.175781 69.371094 17.519531 71.285156 17.625 C 73.210938 17.671875 75.066406 17.542969 77.144531 17.566406 L 77.207031 17.566406 C 77.957031 17.574219 78.554688 18.191406 78.546875 18.9375 C 78.542969 19.40625 78.296875 19.820312 77.9375 20.058594 Z M 77.9375 20.058594 " fill-opacity="1" fill-rule="nonzero"/></g><path fill="#000000" d="M 45.132812 89.886719 C 43.722656 89.992188 42.566406 89.714844 41.375 89.398438 C 40.179688 89.132812 38.976562 88.882812 37.742188 88.703125 C 35.265625 88.335938 32.707031 88.449219 30.132812 88.882812 C 29.667969 88.96875 29.226562 88.660156 29.140625 88.195312 C 29.074219 87.820312 29.269531 87.453125 29.589844 87.285156 C 32.109375 85.972656 34.972656 85.328125 37.875 85.160156 C 39.328125 85.082031 40.804688 85.179688 42.238281 85.5 C 43.675781 85.765625 45.09375 86.316406 46.160156 87.484375 C 46.691406 88.066406 46.652344 88.976562 46.070312 89.511719 C 45.824219 89.734375 45.515625 89.859375 45.207031 89.882812 Z M 45.132812 89.886719 " fill-opacity="1" fill-rule="nonzero"/><path fill="#000000" d="M 22.136719 84.769531 C 18.832031 85.84375 16.597656 81.441406 19.410156 79.390625 C 23.703125 76.253906 29.003906 73.171875 35.179688 71.078125 C 52.761719 65.117188 63.957031 77.914062 62.15625 82.148438 C 60.351562 86.382812 50.84375 81.59375 36.351562 82.03125 C 31.566406 82.175781 26.601562 83.320312 22.136719 84.769531 Z M 22.136719 84.769531 " fill-opacity="1" fill-rule="nonzero"/><path fill="#ffffff" d="M 53.554688 73.785156 C 53.554688 73.785156 53.289062 76.839844 48.433594 78.136719 C 43.574219 79.433594 27.816406 77.796875 27.816406 77.796875 C 27.816406 77.796875 35.058594 73.164062 41.757812 72.703125 C 48.457031 72.238281 53.554688 73.785156 53.554688 73.785156 Z M 53.554688 73.785156 " fill-opacity="1" fill-rule="nonzero"/></svg>