<svg xmlns="http://www.w3.org/2000/svg" xmlns:xlink="http://www.w3.org/1999/xlink" width="120" zoomAndPan="magnify" viewBox="0 0 90 89.999999" height="120" preserveAspectRatio="xMidYMid meet" version="1.0"><defs><clipPath id="08915b20bd"><path d="M 56 1 L 77.523438 1 L 77.523438 10 L 56 10 Z M 56 1 " clip-rule="nonzero"/></clipPath><clipPath id="9601db8066"><path d="M 12.273438 0 L 37 0 L 37 7 L 12.273438 7 Z M 12.273438 0 " clip-rule="nonzero"/></clipPath></defs><path fill="#000000" d="M 37.035156 27.53125 C 37.125 28.042969 37.164062 28.542969 37.152344 29.027344 C 37.140625 29.515625 37.078125 29.957031 36.96875 30.347656 C 36.859375 30.738281 36.707031 31.050781 36.515625 31.285156 C 36.324219 31.519531 36.105469 31.660156 35.859375 31.703125 C 35.617188 31.746094 35.363281 31.691406 35.105469 31.535156 C 34.84375 31.378906 34.597656 31.136719 34.359375 30.804688 C 34.125 30.476562 33.917969 30.082031 33.742188 29.628906 C 33.566406 29.171875 33.433594 28.691406 33.34375 28.179688 C 33.257812 27.667969 33.21875 27.171875 33.230469 26.683594 C 33.238281 26.195312 33.300781 25.757812 33.410156 25.363281 C 33.519531 24.972656 33.671875 24.660156 33.863281 24.425781 C 34.054688 24.191406 34.273438 24.050781 34.519531 24.007812 C 34.765625 23.964844 35.015625 24.023438 35.277344 24.179688 C 35.535156 24.332031 35.785156 24.578125 36.019531 24.90625 C 36.257812 25.238281 36.460938 25.628906 36.636719 26.085938 C 36.8125 26.539062 36.945312 27.023438 37.035156 27.53125 Z M 37.035156 27.53125 " fill-opacity="1" fill-rule="nonzero"/><path fill="#000000" d="M 63.574219 26.175781 C 63.664062 26.6875 63.699219 27.1875 63.6875 27.675781 C 63.679688 28.164062 63.617188 28.601562 63.507812 28.992188 C 63.398438 29.382812 63.246094 29.695312 63.054688 29.933594 C 62.863281 30.167969 62.644531 30.304688 62.398438 30.347656 C 62.152344 30.390625 61.902344 30.335938 61.640625 30.179688 C 61.382812 30.023438 61.132812 29.78125 60.898438 29.449219 C 60.660156 29.121094 60.457031 28.726562 60.28125 28.273438 C 60.105469 27.816406 59.972656 27.335938 59.882812 26.824219 C 59.792969 26.316406 59.753906 25.816406 59.765625 25.328125 C 59.777344 24.839844 59.839844 24.402344 59.949219 24.011719 C 60.058594 23.617188 60.210938 23.304688 60.402344 23.070312 C 60.59375 22.835938 60.8125 22.699219 61.058594 22.65625 C 61.300781 22.613281 61.554688 22.667969 61.8125 22.824219 C 62.074219 22.980469 62.324219 23.222656 62.558594 23.550781 C 62.792969 23.882812 63 24.273438 63.175781 24.730469 C 63.351562 25.183594 63.484375 25.667969 63.574219 26.175781 Z M 63.574219 26.175781 " fill-opacity="1" fill-rule="nonzero"/><path fill="#000000" d="M 53.65625 23.816406 C 55.625 26.734375 57.15625 29.890625 58.511719 33.109375 C 59.90625 36.316406 61.164062 39.578125 62.316406 42.878906 L 63.992188 47.84375 C 64.253906 48.652344 64.589844 49.59375 64.65625 50.667969 C 64.785156 51.703125 64.316406 53.242188 63.167969 53.898438 C 62.085938 54.539062 61.105469 54.546875 60.285156 54.691406 L 57.710938 55.0625 L 52.554688 55.753906 C 52.207031 55.800781 51.882812 55.554688 51.835938 55.203125 C 51.792969 54.871094 52.011719 54.5625 52.335938 54.492188 L 57.414062 53.371094 L 59.957031 52.832031 C 60.820312 52.652344 61.632812 52.492188 62.027344 52.179688 C 62.78125 51.734375 62.441406 50.234375 61.757812 48.648438 L 59.816406 43.84375 L 55.742188 34.320312 C 54.335938 31.167969 52.949219 28.015625 51.878906 24.691406 C 51.707031 24.164062 51.992188 23.597656 52.515625 23.425781 C 52.949219 23.285156 53.410156 23.457031 53.65625 23.816406 Z M 53.65625 23.816406 " fill-opacity="1" fill-rule="nonzero"/><g clip-path="url(#08915b20bd)"><path fill="#000000" d="M 75.765625 9.019531 C 74.289062 8.132812 73.027344 7.199219 71.667969 6.363281 C 70.292969 5.566406 68.828125 4.929688 67.289062 4.546875 C 64.21875 3.789062 60.765625 4.242188 57.933594 5.972656 C 57.632812 6.160156 57.238281 6.070312 57.050781 5.769531 C 56.882812 5.5 56.941406 5.152344 57.164062 4.945312 C 59.960938 2.441406 63.953125 1.425781 67.757812 1.902344 C 69.667969 2.140625 71.527344 2.777344 73.179688 3.742188 C 74.851562 4.664062 76.335938 5.972656 77.226562 7.679688 C 77.484375 8.183594 77.292969 8.804688 76.789062 9.066406 C 76.464844 9.238281 76.089844 9.210938 75.792969 9.039062 Z M 75.765625 9.019531 " fill-opacity="1" fill-rule="nonzero"/></g><g clip-path="url(#9601db8066)"><path fill="#000000" d="M 12.441406 5.152344 C 13.339844 3.171875 15.195312 1.667969 17.507812 0.804688 C 19.894531 0.00390625 22.195312 0.414062 24.265625 0.75 C 28.492188 1.433594 32.539062 3.117188 35.902344 5.695312 C 36.183594 5.910156 36.234375 6.3125 36.023438 6.59375 C 35.820312 6.859375 35.445312 6.917969 35.167969 6.746094 C 31.78125 4.582031 27.9375 3.175781 24 2.765625 C 22.019531 2.574219 20.046875 2.78125 18.558594 3.492188 C 16.996094 4.15625 15.832031 5.644531 13.835938 6.558594 C 13.308594 6.800781 12.679688 6.5625 12.4375 6.035156 C 12.308594 5.742188 12.320312 5.417969 12.441406 5.152344 Z M 12.441406 5.152344 " fill-opacity="1" fill-rule="nonzero"/></g><path fill="#000000" d="M 38.558594 86.164062 C 39.851562 86.21875 40.949219 86.492188 42.09375 86.75 C 43.242188 86.960938 44.410156 87.109375 45.597656 87.152344 C 47.980469 87.238281 50.402344 86.742188 52.683594 85.761719 C 53.007812 85.617188 53.386719 85.761719 53.53125 86.089844 C 53.65625 86.363281 53.5625 86.683594 53.335938 86.863281 C 51.175781 88.519531 48.496094 89.488281 45.734375 89.835938 C 44.347656 90.007812 42.925781 89.988281 41.539062 89.726562 C 40.152344 89.507812 38.773438 88.996094 37.726562 87.964844 C 37.3125 87.554688 37.308594 86.890625 37.714844 86.476562 C 37.929688 86.253906 38.21875 86.152344 38.503906 86.160156 Z M 38.558594 86.164062 " fill-opacity="1" fill-rule="nonzero"/><path fill="#000000" d="M 28.410156 78.707031 C 27.484375 78.347656 27.03125 77.285156 27.28125 76.320312 C 27.867188 74.066406 29.101562 71.984375 30.679688 70.261719 C 32.648438 68.105469 35.128906 66.472656 37.730469 65.144531 C 42.496094 62.710938 47.601562 60.636719 53.152344 60.804688 C 53.933594 60.828125 55.253906 61.117188 55.503906 61.859375 C 55.949219 63.164062 54.554688 68.625 53.417969 71.238281 C 52.285156 73.851562 50.523438 76.277344 48.066406 77.707031 C 45.539062 79.171875 42.523438 79.46875 39.613281 79.730469 C 35.933594 80.0625 31.863281 80.054688 28.410156 78.707031 Z M 28.410156 78.707031 " fill-opacity="1" fill-rule="nonzero"/><path fill="#ffffff" d="M 33.160156 69.902344 C 37.980469 65.398438 46.3125 63.3125 52.648438 62.480469 C 55.265625 67.921875 31.972656 73.902344 33.160156 69.902344 Z M 33.160156 69.902344 " fill-opacity="1" fill-rule="nonzero"/><path fill="#f88187" d="M 33.214844 35.722656 C 32.605469 35.910156 32.269531 35.726562 31.949219 35.511719 L 30.964844 34.910156 L 28.960938 33.773438 L 27.007812 32.550781 L 26.011719 31.96875 C 25.671875 31.78125 25.371094 31.53125 25.261719 30.863281 C 25.199219 30.515625 25.375 30.175781 25.667969 30.015625 C 26.261719 29.6875 26.664062 29.785156 27.027344 29.953125 L 28.121094 30.460938 L 30.269531 31.550781 C 30.949219 31.980469 31.613281 32.4375 32.269531 32.898438 L 33.242188 33.605469 C 33.570312 33.835938 33.878906 34.105469 33.90625 34.746094 C 33.929688 35.199219 33.625 35.59375 33.214844 35.722656 Z M 33.214844 35.722656 " fill-opacity="1" fill-rule="nonzero"/><path fill="#f88187" d="M 28.171875 37.851562 C 27.617188 38.132812 27.285156 38 26.964844 37.839844 L 25.996094 37.375 L 24.058594 36.449219 L 22.210938 35.347656 L 21.285156 34.796875 C 20.976562 34.617188 20.707031 34.367188 20.648438 33.710938 C 20.617188 33.359375 20.796875 33.039062 21.085938 32.878906 C 21.660156 32.558594 22.019531 32.644531 22.34375 32.796875 L 25.261719 34.167969 L 27.113281 35.257812 L 28.039062 35.800781 C 28.355469 35.976562 28.652344 36.179688 28.730469 36.796875 C 28.789062 37.242188 28.550781 37.660156 28.171875 37.851562 Z M 28.171875 37.851562 " fill-opacity="1" fill-rule="nonzero"/><path fill="#f88187" d="M 72.839844 35.480469 C 72.339844 35.683594 72.179688 35.574219 72.050781 35.4375 L 71.636719 35.054688 L 70.8125 34.285156 L 70.128906 33.382812 L 69.789062 32.933594 C 69.671875 32.785156 69.617188 32.582031 69.894531 32.070312 C 70.054688 31.777344 70.304688 31.558594 70.585938 31.433594 C 71.121094 31.199219 71.3125 31.273438 71.453125 31.402344 L 71.871094 31.78125 L 72.707031 32.542969 L 73.398438 33.433594 L 73.746094 33.878906 C 73.867188 34.023438 73.964844 34.191406 73.71875 34.671875 C 73.523438 35.050781 73.203125 35.328125 72.839844 35.480469 Z M 72.839844 35.480469 " fill-opacity="1" fill-rule="nonzero"/><path fill="#f88187" d="M 69.257812 38.105469 C 68.667969 38.191406 68.421875 37.964844 68.199219 37.710938 L 67.515625 36.976562 L 66.148438 35.5 L 64.929688 33.894531 L 64.320312 33.09375 C 64.117188 32.832031 63.972656 32.515625 64.191406 31.921875 C 64.308594 31.597656 64.589844 31.386719 64.90625 31.34375 L 64.929688 31.339844 C 65.574219 31.25 65.859375 31.441406 66.082031 31.683594 L 66.757812 32.398438 L 68.109375 33.832031 L 69.308594 35.390625 L 69.90625 36.167969 C 70.117188 36.425781 70.296875 36.699219 70.136719 37.296875 L 70.128906 37.324219 C 70.015625 37.746094 69.660156 38.042969 69.257812 38.105469 Z M 69.257812 38.105469 " fill-opacity="1" fill-rule="nonzero"/></svg>