<svg xmlns="http://www.w3.org/2000/svg" xmlns:xlink="http://www.w3.org/1999/xlink" width="1080" zoomAndPan="magnify" viewBox="0 0 810 809.999993" height="1080" preserveAspectRatio="xMidYMid meet" version="1.0"><defs><clipPath id="d2f9ac9fce"><path d="M 245 40.5 L 572 40.5 L 572 364 L 245 364 Z M 245 40.5 " clip-rule="nonzero"/></clipPath><clipPath id="8161b45c67"><path d="M 160.375 375 L 649.65625 375 L 649.65625 765.71875 L 160.375 765.71875 Z M 160.375 375 " clip-rule="nonzero"/></clipPath><clipPath id="d5a4c37701"><path d="M 193 444 L 590 444 L 590 765.71875 L 193 765.71875 Z M 193 444 " clip-rule="nonzero"/></clipPath></defs><g clip-path="url(#d2f9ac9fce)"><path fill="#5d4a46" d="M 320.445312 85.449219 C 279.6875 91.574219 271.125 106.011719 261.660156 128.347656 C 234.242188 193.058594 250.097656 237.816406 246.773438 287.007812 C 244.097656 326.625 300.164062 359.933594 326.753906 361.945312 C 380.792969 366.046875 452 360.453125 497.09375 345.1875 C 514.769531 339.203125 556.089844 317.515625 569.1875 269.40625 C 579.960938 229.789062 545.695312 183.300781 517.359375 125.289062 C 499.332031 88.378906 473.828125 40.453125 403.679688 40.859375 C 327.710938 41.296875 320.445312 85.449219 320.445312 85.449219 " fill-opacity="1" fill-rule="evenodd"/></g><path fill="#ffc2a4" d="M 444.054688 279.925781 L 365.976562 277.265625 L 360.0625 452.265625 L 448.785156 452.265625 L 444.054688 279.925781 " fill-opacity="1" fill-rule="evenodd"/><path fill="#ff9e86" d="M 363.820312 340.976562 L 446.351562 363.550781 L 444.054688 279.925781 L 365.976562 277.265625 L 363.820312 340.976562 " fill-opacity="1" fill-rule="evenodd"/><g clip-path="url(#8161b45c67)"><path fill="#4e95a6" d="M 362.894531 378.453125 C 362.894531 378.453125 230.453125 417.773438 195.597656 450.785156 C 170.160156 474.839844 160.375 584.660156 160.375 584.660156 L 193.203125 599.785156 C 193.203125 599.785156 211.523438 739.578125 275.25 764.789062 C 290.730469 770.898438 325.21875 744.875 325.21875 744.875 C 325.21875 744.875 362.316406 757.070312 406.71875 757.972656 C 462.546875 759.113281 484.574219 744.691406 479.925781 742.507812 C 479.925781 742.507812 520.710938 770.5625 534.457031 764.183594 C 610.605469 728.902344 629.167969 608.320312 629.167969 608.320312 L 649.671875 605.925781 C 649.671875 605.925781 645.207031 461.828125 614.578125 441.660156 C 569.902344 412.253906 445.5625 375.46875 445.5625 375.46875 C 445.5625 375.46875 443.632812 405.914062 404.621094 408.28125 C 375.453125 410.054688 362.894531 378.453125 362.894531 378.453125 " fill-opacity="1" fill-rule="evenodd"/></g><g clip-path="url(#d5a4c37701)"><path fill="#ffc2a4" d="M 193.246094 600.082031 C 194.230469 607.222656 213.242188 740.253906 275.25 764.789062 C 290.730469 770.898438 325.21875 744.875 325.21875 744.875 L 326.867188 743.578125 C 396.804688 688.441406 449.222656 629.769531 492.714844 569.296875 C 492.714844 569.296875 590.632812 531.371094 589.886719 517.105469 C 589.507812 509.722656 562.59375 519.625 562.59375 519.625 C 562.59375 519.625 588.972656 489.246094 586.902344 486.09375 C 581.605469 478.050781 554.722656 498.429688 554.722656 498.429688 C 554.722656 498.429688 577.890625 463.898438 576.679688 461.9375 C 570.355469 451.6875 539.640625 484.683594 539.640625 484.683594 C 539.640625 484.683594 560.355469 446.503906 549.695312 444.378906 C 544.371094 443.320312 514.65625 483.613281 514.65625 483.613281 C 514.65625 483.613281 516.980469 460.96875 509.949219 459.082031 C 500.585938 456.558594 484.6875 502.289062 484.6875 502.289062 L 295.953125 645.726562 L 279.898438 598.476562 C 253.507812 605.714844 207.1875 604.039062 193.246094 600.082031 " fill-opacity="1" fill-rule="evenodd"/></g><path fill="#ffc2a4" d="M 482.867188 744.480469 C 415.101562 690.34375 363.949219 632.855469 321.347656 573.632812 C 321.347656 573.632812 223.4375 535.707031 224.1875 521.441406 C 224.566406 514.074219 251.464844 523.960938 251.464844 523.960938 C 251.464844 523.960938 225.101562 493.585938 227.171875 490.429688 C 232.464844 482.386719 259.351562 502.765625 259.351562 502.765625 C 259.351562 502.765625 236.183594 468.234375 237.394531 466.277344 C 243.71875 456.023438 274.433594 489.019531 274.433594 489.019531 C 274.433594 489.019531 253.71875 450.839844 264.367188 448.714844 C 269.6875 447.660156 299.40625 487.949219 299.40625 487.949219 C 299.40625 487.949219 297.082031 465.304688 304.121094 463.417969 C 313.488281 460.898438 329.386719 506.625 329.386719 506.625 L 518.121094 650.066406 L 538.582031 605.082031 C 564.976562 612.335938 615.828125 611.828125 629.785156 607.871094 C 629.773438 607.96875 629.746094 608.109375 629.730469 608.25 L 629.167969 608.320312 C 629.167969 608.320312 627.265625 620.699219 622.167969 638.683594 C 620.84375 643.234375 619.351562 648.136719 617.675781 653.261719 C 605 691.355469 580.042969 743.058594 534.457031 764.183594 C 522.949219 769.519531 492.488281 750.734375 482.867188 744.480469 " fill-opacity="1" fill-rule="evenodd"/><path fill="#ffc2a4" d="M 493.320312 231.5625 C 503.386719 230.535156 513.175781 234.070312 514.304688 245.152344 C 515.429688 256.25 503.628906 270.828125 493.558594 271.84375 C 483.472656 272.871094 478.925781 259.957031 477.796875 248.871094 C 476.671875 237.773438 483.25 232.578125 493.320312 231.5625 " fill-opacity="1" fill-rule="evenodd"/><path fill="#ffc2a4" d="M 306.714844 231.5625 C 296.644531 230.535156 286.855469 234.070312 285.730469 245.152344 C 284.601562 256.25 296.40625 270.828125 306.476562 271.84375 C 316.558594 272.871094 321.105469 259.957031 322.234375 248.871094 C 323.359375 237.773438 316.796875 232.578125 306.714844 231.5625 " fill-opacity="1" fill-rule="evenodd"/><path fill="#ffc2a4" d="M 391.792969 100.503906 C 468.488281 98.40625 496.613281 171.355469 496.613281 229.199219 C 496.613281 287.039062 454.109375 334.003906 401.75 334.003906 C 349.386719 334.003906 306.882812 287.039062 306.882812 229.199219 C 306.882812 171.355469 311.503906 102.699219 391.792969 100.503906 " fill-opacity="1" fill-rule="evenodd"/><path fill="#5d4a46" d="M 347.316406 221.199219 C 349.765625 223.691406 354.019531 225.253906 358.738281 225.957031 C 366.0625 227.042969 374.582031 226.015625 379.777344 222.113281 C 380.890625 221.269531 382.46875 221.492188 383.300781 222.605469 C 384.128906 223.71875 383.90625 225.296875 382.792969 226.128906 C 376.652344 230.734375 366.652344 232.226562 358.003906 230.929688 C 352.0625 230.042969 346.808594 227.84375 343.726562 224.71875 C 342.753906 223.71875 342.765625 222.128906 343.765625 221.15625 C 344.753906 220.183594 346.34375 220.199219 347.316406 221.199219 " fill-opacity="1" fill-rule="evenodd"/><path fill="#5d4a46" d="M 427.902344 221.199219 C 430.351562 223.691406 434.605469 225.253906 439.324219 225.957031 C 446.644531 227.042969 455.152344 226.015625 460.363281 222.113281 C 461.460938 221.269531 463.054688 221.492188 463.882812 222.605469 C 464.714844 223.71875 464.488281 225.296875 463.378906 226.128906 C 457.238281 230.734375 447.238281 232.226562 438.578125 230.929688 C 432.648438 230.042969 427.378906 227.84375 424.308594 224.71875 C 423.339844 223.71875 423.351562 222.128906 424.339844 221.15625 C 425.339844 220.183594 426.929688 220.199219 427.902344 221.199219 " fill-opacity="1" fill-rule="evenodd"/><path fill="#e69684" d="M 388.609375 281.617188 C 391.046875 284.109375 395.296875 285.671875 400.03125 286.375 C 407.355469 287.472656 415.859375 286.433594 421.058594 282.53125 C 422.167969 281.699219 423.746094 281.925781 424.578125 283.039062 C 425.410156 284.152344 425.183594 285.714844 424.085938 286.558594 C 417.929688 291.164062 407.929688 292.644531 399.285156 291.363281 C 393.339844 290.472656 388.085938 288.277344 385.019531 285.136719 C 384.03125 284.152344 384.058594 282.546875 385.046875 281.585938 C 386.03125 280.601562 387.621094 280.628906 388.609375 281.617188 " fill-opacity="1" fill-rule="evenodd"/><path fill="#5d4a46" d="M 430.253906 202.609375 C 433.027344 199.792969 437.886719 198.609375 442.703125 198.59375 C 447.574219 198.582031 452.546875 199.777344 455.449219 202.523438 C 457.136719 204.101562 459.785156 204.015625 461.378906 202.339844 C 462.96875 200.652344 462.882812 198.003906 461.195312 196.410156 C 456.941406 192.398438 449.816406 190.199219 442.675781 190.214844 C 435.476562 190.230469 428.410156 192.523438 424.269531 196.75 C 422.648438 198.398438 422.675781 201.042969 424.324219 202.679688 C 425.984375 204.285156 428.632812 204.269531 430.253906 202.609375 " fill-opacity="1" fill-rule="evenodd"/><path fill="#5d4a46" d="M 350.019531 202.609375 C 352.78125 199.792969 357.652344 198.609375 362.46875 198.59375 C 367.34375 198.582031 372.300781 199.777344 375.214844 202.523438 C 376.90625 204.101562 379.554688 204.015625 381.144531 202.339844 C 382.722656 200.652344 382.636719 198.003906 380.960938 196.410156 C 376.695312 192.398438 369.582031 190.199219 362.441406 190.214844 C 355.246094 190.230469 348.160156 192.523438 344.035156 196.75 C 342.414062 198.398438 342.445312 201.042969 344.089844 202.679688 C 345.738281 204.285156 348.402344 204.269531 350.019531 202.609375 " fill-opacity="1" fill-rule="evenodd"/><path fill="#e69684" d="M 404.609375 240.589844 C 404.609375 240.589844 407.367188 246.589844 408.71875 251.324219 C 409.226562 253.082031 409.59375 254.617188 409.382812 255.460938 C 409.285156 255.84375 408.960938 256.109375 408.566406 256.378906 C 407.972656 256.800781 407.199219 257.140625 406.394531 257.421875 C 403.71875 258.363281 400.609375 258.675781 400.609375 258.675781 C 399.820312 258.757812 399.242188 259.460938 399.328125 260.25 C 399.398438 261.039062 400.113281 261.617188 400.902344 261.53125 C 400.902344 261.53125 405.664062 261.039062 408.847656 259.53125 C 410.566406 258.703125 411.816406 257.53125 412.15625 256.179688 C 412.453125 255.027344 412.171875 252.914062 411.480469 250.535156 C 410.070312 245.617188 407.226562 239.394531 407.226562 239.394531 C 406.902344 238.675781 406.042969 238.351562 405.324219 238.675781 C 404.59375 239.011719 404.285156 239.859375 404.609375 240.589844 " fill-opacity="1" fill-rule="evenodd"/><path fill="#5d4a46" d="M 300.09375 195.75 C 300.09375 195.75 302.417969 242.125 309.96875 239.703125 C 316.023438 237.761719 312.078125 208.917969 312.078125 208.917969 C 336.78125 195.90625 346.554688 156.246094 345.78125 118.601562 C 350.851562 149.457031 407.664062 167.398438 458.996094 168.46875 C 482.628906 168.949219 487.542969 236.085938 493.882812 238.621094 C 499.316406 240.800781 501.035156 196.257812 501.035156 196.257812 C 501.035156 196.257812 516.148438 108.898438 441.492188 99.066406 C 366.820312 89.238281 318.542969 93.378906 305.953125 134.304688 C 293.347656 175.230469 300.09375 195.75 300.09375 195.75 " fill-opacity="1" fill-rule="evenodd"/></svg>