<svg width="387" height="202" viewBox="0 0 387 202" fill="none" xmlns="http://www.w3.org/2000/svg">
<path d="M396.195 123.97C396.145 125.414 396.039 126.912 395.841 128.438C395.208 133.431 387.335 143.957 369.113 151.005C347.237 159.457 320.116 162.997 301.426 148.834C302.845 161.031 289.198 168.908 277.795 173.384C265.651 178.113 253.263 182.906 240.265 183.467C227.265 184.012 213.306 179.579 205.705 169.019C194.999 187.68 167.704 194.26 149.692 182.535C138.652 198.366 116.678 205.567 98.4243 199.306C80.1759 193.077 67.2017 173.925 68.1661 154.644C58.0225 160.189 43.4392 150.689 44.4101 139.146C34.4806 148.184 17.3337 146.076 8.24302 136.198C-0.83266 126.317 -2.15907 110.807 3.01164 98.4201C6.49684 90.0892 12.5235 83.1025 19.7381 77.6055C19.4839 74.5431 19.7281 71.4322 20.4634 68.4469C21.2022 65.4931 22.4337 62.6807 24.1606 60.1675C30.9118 50.3555 44.6799 46.1104 55.7923 50.3741C51.3248 36.4548 62.3137 19.8567 76.8549 18.5283C90.9278 17.2443 104.274 30.615 103.432 44.6207C104.12 38.2152 109.359 33.321 114.648 29.5416C127.033 20.6901 137.499 28.7482 139.913 29.7152C143.466 12.5079 159.701 -0.668631 183.501 0.0262652C207.285 0.708291 222.386 16.4872 223.496 32.1355C229.175 24.0418 241.497 21.5472 249.879 26.7956C258.232 32.0634 261.37 44.2436 256.534 52.8765C270.677 39.4393 292.693 34.9958 310.933 41.8904C329.188 48.7829 342.759 66.6886 344.482 86.127C360.819 81.1078 397.182 91.0584 396.195 123.97Z" fill="#F7F7F7"/>
<path d="M129.267 123.985C135.254 123.466 141.298 125.325 146.403 128.495C147.319 129.063 148.309 129.699 149.38 129.577C150.609 129.436 151.478 128.363 152.324 127.46C156.962 122.513 164.394 121.023 171.107 121.981C177.819 122.938 184.022 126 190.093 129.02C189.159 122.276 187.963 114.999 183.069 110.269C178.825 106.167 172.32 104.84 166.592 106.262C160.865 107.683 155.942 111.606 152.611 116.478C151.623 117.925 150.499 119.626 148.752 119.766C147.658 119.853 146.635 119.278 145.662 118.769C136.806 114.14 125.746 113.996 116.772 118.393C107.798 122.789 101.13 131.617 99.3538 141.453C100.39 135.719 124.038 124.438 129.267 123.985Z" fill="#F7F7F7"/>
<path d="M3.01166 98.4199C6.49688 90.0884 12.5235 83.1023 19.7374 77.6053C29.8846 70.6878 38.9695 71.5856 46.661 75.937C23.6552 85.1956 27.4195 110.341 27.4195 110.341C33.801 91.6831 43.8054 86.1411 52.5984 83.338C62.1788 80.2842 72.1176 82.8088 77.8458 89.0435C82.1006 93.6757 82.6167 100.956 80.7827 107.041C96.7824 89.992 113.672 89.085 120.881 94.052C104.859 97.5401 101.099 112.453 101.099 112.453C142.516 92.2173 165.772 113 165.772 113C165.772 113 164.226 92.473 136.096 91.6174C137.629 77.0333 147.693 61.3272 164.83 60.2609C185.989 58.9604 203.459 74.0423 202.619 96.663C210.183 94.974 218.036 103.212 216.003 110.692C221.246 106.555 226.814 102.25 233.417 101.174C240.02 100.115 247.853 103.555 249.221 110.106C258.463 111.026 266.049 120.246 265.145 129.491C277.633 117.658 298.058 115.205 312.992 123.759C305.793 102.139 278.06 90.1876 257.389 99.779C257.867 84.5564 272.919 71.4277 288.058 73.0225C303.184 74.6351 315.168 90.6454 312.431 105.623C323.277 102.214 335.65 113.784 332.959 124.839C337.245 110.676 353.539 107.165 363.126 109.767C349.643 113.32 344.19 129.736 345.905 141.215C350.291 130.809 363.798 109.313 396.195 123.97C396.145 125.414 396.04 126.912 395.842 128.437C395.209 133.431 387.335 143.956 369.113 151.004C347.238 159.457 320.117 162.997 301.427 148.833C302.846 161.031 289.199 168.907 277.795 173.384C265.652 178.113 253.264 182.906 240.266 183.467C227.266 184.011 213.306 179.579 205.705 169.018C195 187.68 167.704 194.259 149.692 182.535C138.652 198.366 116.678 205.567 98.4244 199.306C80.1759 193.076 67.2024 173.924 68.1669 154.644C58.0232 160.189 43.4399 150.689 44.4108 139.146C34.4813 148.184 17.3337 146.075 8.24233 136.197C-0.832613 126.317 -2.15902 110.807 3.01166 98.4199Z" fill="#DDEBF8"/>
</svg>
