<svg xmlns="http://www.w3.org/2000/svg" xmlns:xlink="http://www.w3.org/1999/xlink" width="1080" zoomAndPan="magnify" viewBox="0 0 810 809.999993" height="1080" preserveAspectRatio="xMidYMid meet" version="1.0"><defs><clipPath id="4437d24a77"><path d="M 104.238281 217 L 708.832031 217 L 708.832031 730.71875 L 104.238281 730.71875 Z M 104.238281 217 " clip-rule="nonzero"/></clipPath><clipPath id="61c3bb2c64"><path d="M 566.824219 499.363281 C 555.320312 554.753906 543.761719 610.875 546.625 667.378906 C 547.304688 680.832031 548.515625 695.457031 540.992188 706.632812 C 531.964844 720.054688 513.949219 723.363281 497.878906 725.171875 C 429.0625 732.902344 358.257812 734.175781 291.75 714.878906 C 277.316406 710.691406 261.460938 703.941406 256.394531 689.789062 C 253.5 681.699219 254.824219 672.800781 255.777344 664.257812 C 261.914062 609.507812 251.355469 554.410156 240.851562 500.328125 C 225.023438 511.015625 207.890625 521.4375 190.753906 531.867188 C 152.566406 509.53125 122.644531 475.546875 104.304688 436.097656 C 156.832031 360.679688 235.464844 305.128906 323.109375 280.949219 C 334.011719 277.941406 345.566406 275.128906 353.824219 267.398438 C 361.285156 260.410156 365.039062 250.183594 366.109375 240.019531 C 367.179688 229.855469 365.824219 219.609375 366.074219 207.894531 C 394.222656 209.582031 422.492188 209.238281 450.660156 201.207031 C 439.699219 224.296875 452.753906 252.746094 472.699219 268.726562 C 492.644531 284.707031 518.015625 291.789062 541.78125 301.195312 C 608.742188 327.707031 666.996094 375.71875 708.5625 433.992188 C 688.949219 471.78125 659.339844 504.324219 620.800781 526.824219 C 603.429688 519.9375 587.199219 510.199219 566.824219 499.371094 Z M 566.824219 499.363281 " clip-rule="nonzero"/></clipPath></defs><path fill="#716a7d" d="M 275.707031 660.746094 C 272.441406 702.289062 269.175781 743.828125 264.789062 787.277344 C 308.992188 803.011719 356.554688 807.554688 403.453125 806.144531 C 450.347656 804.734375 496.859375 797.519531 546.152344 785.386719 C 543.347656 754.371094 539.394531 723.453125 532.550781 686.503906 C 501.863281 657.21875 461.753906 637.957031 419.707031 632.324219 C 377.664062 626.6875 333.898438 634.699219 275.703125 660.742188 Z M 275.707031 660.746094 " fill-opacity="1" fill-rule="nonzero"/><path fill="#545454" d="M 402.128906 810.007812 C 402.128906 810.007812 402.089844 810.007812 402.070312 810.007812 C 401.03125 809.976562 400.210938 809.109375 400.242188 808.066406 C 401.203125 775.222656 400.140625 741.980469 397.082031 709.265625 C 396.988281 708.230469 397.746094 707.3125 398.78125 707.214844 C 399.816406 707.121094 400.738281 707.882812 400.832031 708.914062 C 403.902344 741.785156 404.972656 775.179688 404.007812 808.179688 C 403.976562 809.199219 403.140625 810.007812 402.125 810.007812 Z M 402.128906 810.007812 " fill-opacity="1" fill-rule="nonzero"/><path fill="#545454" d="M 420.535156 807.121094 C 419.535156 807.121094 418.699219 806.335938 418.65625 805.324219 C 417.300781 774.933594 417.703125 744.140625 419.859375 713.804688 C 419.929688 712.765625 420.828125 711.988281 421.871094 712.058594 C 422.910156 712.132812 423.6875 713.035156 423.617188 714.070312 C 421.472656 744.265625 421.066406 774.910156 422.421875 805.15625 C 422.46875 806.195312 421.664062 807.074219 420.625 807.121094 C 420.597656 807.121094 420.566406 807.121094 420.539062 807.121094 Z M 420.535156 807.121094 " fill-opacity="1" fill-rule="nonzero"/><path fill="#545454" d="M 286.824219 748.789062 C 286.265625 748.789062 285.714844 748.542969 285.34375 748.074219 C 284.695312 747.253906 284.835938 746.074219 285.652344 745.425781 C 299.8125 734.226562 311.945312 719.964844 320.742188 704.191406 C 321.246094 703.285156 322.394531 702.957031 323.304688 703.464844 C 324.210938 703.972656 324.539062 705.121094 324.03125 706.03125 C 315 722.230469 302.535156 736.875 287.988281 748.386719 C 287.644531 748.660156 287.234375 748.792969 286.824219 748.792969 Z M 286.824219 748.789062 " fill-opacity="1" fill-rule="nonzero"/><path fill="#545454" d="M 531.722656 737.90625 C 531.277344 737.90625 530.832031 737.75 530.472656 737.425781 C 519.828125 727.941406 510.28125 717.214844 502.089844 705.550781 C 501.492188 704.699219 501.699219 703.523438 502.550781 702.925781 C 503.402344 702.328125 504.578125 702.535156 505.175781 703.386719 C 513.203125 714.816406 522.554688 725.324219 532.980469 734.613281 C 533.757812 735.304688 533.828125 736.496094 533.132812 737.269531 C 532.761719 737.6875 532.246094 737.902344 531.726562 737.902344 Z M 531.722656 737.90625 " fill-opacity="1" fill-rule="nonzero"/><path fill="#ffbf9c" d="M 566.824219 499.363281 C 555.320312 554.753906 543.761719 610.875 546.625 667.378906 C 547.304688 680.832031 548.515625 695.457031 540.992188 706.632812 C 531.964844 720.054688 513.949219 723.363281 497.878906 725.171875 C 429.0625 732.902344 358.257812 734.175781 291.75 714.878906 C 277.316406 710.691406 261.460938 703.941406 256.394531 689.789062 C 253.5 681.699219 254.824219 672.800781 255.777344 664.257812 C 261.914062 609.507812 251.355469 554.410156 240.851562 500.328125 C 225.023438 511.015625 207.890625 521.4375 190.753906 531.867188 C 152.566406 509.53125 122.644531 475.546875 104.304688 436.097656 C 156.832031 360.679688 235.464844 305.128906 323.109375 280.949219 C 334.011719 277.941406 345.566406 275.128906 353.824219 267.398438 C 361.285156 260.410156 365.039062 250.183594 366.109375 240.019531 C 367.179688 229.855469 365.824219 219.609375 366.074219 207.894531 C 394.222656 209.582031 422.496094 209.238281 450.660156 201.207031 C 439.699219 224.296875 452.753906 252.746094 472.699219 268.726562 C 492.644531 284.707031 518.015625 291.789062 541.78125 301.195312 C 608.742188 327.707031 666.996094 375.71875 708.5625 433.992188 C 688.949219 471.78125 659.339844 504.324219 620.800781 526.824219 C 603.429688 519.9375 587.199219 510.199219 566.824219 499.371094 Z M 566.824219 499.363281 " fill-opacity="1" fill-rule="nonzero"/><g clip-path="url(#4437d24a77)"><g clip-path="url(#61c3bb2c64)"><path fill="#59879b" d="M 339.171875 262.347656 C 341.222656 295.222656 352.867188 329.808594 409.714844 326.382812 C 466.5625 322.957031 479.574219 279.8125 474.777344 249.675781 C 469.984375 219.542969 729.214844 346.25 729.214844 346.25 L 789.007812 501.070312 L 775.867188 759.585938 L 182.035156 805.238281 L 63.75 705.109375 L 70.398438 324.597656 L 192.792969 217.328125 Z M 339.171875 262.347656 " fill-opacity="1" fill-rule="nonzero"/></g></g><path fill="#545454" d="M 323.625 151.46875 C 325.605469 137.367188 321.34375 123.222656 317.230469 109.589844 C 313.117188 95.957031 309.050781 81.714844 311.414062 67.671875 C 313.773438 53.628906 324.578125 39.929688 337.371094 40.59375 C 344.714844 25.933594 357.351562 13.996094 372.410156 7.503906 C 387.460938 1.007812 404.820312 0.0078125 420.519531 4.726562 C 430.410156 7.699219 440.429688 13.847656 442.796875 25.074219 C 463.097656 23.203125 482.910156 36.679688 491.976562 54.941406 C 501.039062 73.203125 500.5 95.144531 494.222656 114.539062 C 487.941406 133.933594 476.378906 151.171875 463.875 167.753906 C 419.296875 180.230469 369.902344 174.492188 323.625 151.46875 Z M 323.625 151.46875 " fill-opacity="1" fill-rule="nonzero"/><path fill="#ffbf9c" d="M 481.613281 131.605469 C 487.386719 131.113281 493.605469 130.71875 498.554688 133.722656 C 505.460938 137.910156 507.339844 147.476562 505.289062 155.289062 C 501.988281 167.878906 489.714844 177.527344 476.703125 177.765625 C 472.394531 202.445312 456.984375 222.902344 436.199219 232.917969 C 415.414062 242.933594 389.808594 242.242188 369.597656 231.117188 C 349.386719 219.992188 335.105469 198.726562 331.496094 175.871094 C 319.308594 174.824219 308.066406 166.316406 303.753906 154.867188 C 302.136719 150.5625 301.464844 145.667969 303.179688 141.402344 C 304.953125 136.992188 309.113281 133.820312 313.667969 132.457031 C 318.222656 131.097656 323.125 131.363281 328.367188 130.660156 C 333.910156 121.6875 333.472656 110.433594 333.800781 99.890625 C 334.132812 89.347656 336.054688 77.636719 344.414062 71.203125 C 352.980469 64.609375 365.109375 65.976562 375.625 68.488281 C 386.144531 71.007812 397.304688 74.335938 407.488281 70.710938 C 415.765625 67.765625 422.167969 60.5625 430.699219 58.484375 C 442.335938 55.65625 453.847656 63.125 462.851562 71.023438 C 468.605469 76.0625 474.230469 81.695312 476.894531 88.867188 C 481.5 101.246094 476.421875 115.621094 481.605469 131.609375 Z M 481.613281 131.605469 " fill-opacity="1" fill-rule="nonzero"/><path fill="#545454" d="M 402.574219 173.328125 C 399.558594 173.328125 396.535156 172.140625 394.371094 170.042969 C 391.773438 167.519531 390.449219 163.730469 390.921875 160.140625 C 391.382812 156.632812 393.3125 153.816406 395.179688 151.09375 C 395.980469 149.925781 396.738281 148.828125 397.371094 147.6875 C 401.699219 139.917969 400.496094 130.179688 398.75 120.042969 C 398.578125 119.015625 399.265625 118.042969 400.289062 117.867188 C 401.3125 117.695312 402.289062 118.382812 402.460938 119.40625 C 404.320312 130.230469 405.585938 140.679688 400.660156 149.519531 C 399.9375 150.8125 399.101562 152.039062 398.289062 153.222656 C 396.597656 155.6875 395.003906 158.019531 394.65625 160.632812 C 394.335938 163.0625 395.230469 165.632812 396.992188 167.335938 C 398.75 169.042969 401.347656 169.855469 403.761719 169.460938 C 404.789062 169.292969 405.757812 169.988281 405.925781 171.015625 C 406.09375 172.042969 405.398438 173.011719 404.371094 173.179688 C 403.777344 173.273438 403.175781 173.324219 402.574219 173.324219 Z M 402.574219 173.328125 " fill-opacity="1" fill-rule="nonzero"/><path fill="#545454" d="M 482.167969 166.320312 C 481.449219 166.320312 480.757812 165.90625 480.449219 165.207031 C 480.023438 164.253906 480.449219 163.140625 481.394531 162.714844 C 483.585938 161.730469 485.066406 159.1875 484.84375 156.792969 C 484.617188 154.402344 482.683594 152.183594 480.347656 151.625 C 479.71875 151.480469 479.210938 151.015625 479.003906 150.402344 C 478.792969 149.789062 478.914062 149.113281 479.320312 148.613281 L 487.15625 138.9375 C 487.808594 138.128906 488.996094 138.007812 489.804688 138.660156 C 490.613281 139.316406 490.738281 140.5 490.082031 141.3125 L 483.828125 149.039062 C 486.433594 150.605469 488.3125 153.402344 488.597656 156.445312 C 488.972656 160.433594 486.597656 164.515625 482.941406 166.15625 C 482.691406 166.269531 482.429688 166.324219 482.171875 166.324219 Z M 482.167969 166.320312 " fill-opacity="1" fill-rule="nonzero"/><path fill="#545454" d="M 324.839844 162.6875 C 324.585938 162.6875 324.328125 162.636719 324.082031 162.527344 C 320.820312 161.089844 318.464844 157.875 318.089844 154.332031 C 317.785156 151.480469 318.769531 148.574219 320.664062 146.453125 L 314.121094 139.261719 C 313.421875 138.492188 313.476562 137.300781 314.246094 136.597656 C 315.015625 135.898438 316.207031 135.957031 316.90625 136.726562 L 324.714844 145.304688 C 325.074219 145.699219 325.25 146.230469 325.191406 146.761719 C 325.140625 147.296875 324.859375 147.78125 324.425781 148.09375 C 322.640625 149.390625 321.601562 151.734375 321.832031 153.925781 C 322.066406 156.121094 323.582031 158.191406 325.601562 159.078125 C 326.550781 159.496094 326.984375 160.613281 326.566406 161.5625 C 326.253906 162.265625 325.566406 162.6875 324.839844 162.6875 Z M 324.839844 162.6875 " fill-opacity="1" fill-rule="nonzero"/><path fill="#545454" d="M 402.511719 194.328125 C 397.398438 194.328125 392.300781 192.746094 388.109375 189.785156 C 387.261719 189.183594 387.054688 188.007812 387.65625 187.160156 C 388.257812 186.3125 389.433594 186.109375 390.28125 186.707031 C 394.699219 189.828125 400.300781 191.144531 405.644531 190.324219 C 410.992188 189.503906 415.9375 186.5625 419.214844 182.257812 C 419.847656 181.429688 421.03125 181.269531 421.855469 181.902344 C 422.683594 182.535156 422.84375 183.714844 422.210938 184.539062 C 418.347656 189.613281 412.515625 193.078125 406.214844 194.042969 C 404.988281 194.234375 403.746094 194.324219 402.503906 194.324219 Z M 402.511719 194.328125 " fill-opacity="1" fill-rule="nonzero"/><path fill="#ffbf9c" d="M 577.15625 632.472656 C 608.703125 605.523438 633.507812 570.738281 648.710938 532.128906 C 641.210938 528.769531 630.9375 519.183594 630.9375 519.183594 C 630.9375 519.183594 681.242188 474.546875 698.742188 443.847656 C 719.953125 470.039062 736.308594 493.488281 739.394531 527.046875 C 742.632812 562.226562 725.390625 596.828125 700.992188 622.382812 C 676.597656 647.933594 645.527344 665.933594 614.855469 683.472656 C 599.636719 692.175781 582.527344 701.171875 565.429688 697.289062 C 549.894531 693.757812 537.125 679.96875 521.207031 680.449219 C 513.171875 680.695312 505.746094 684.632812 497.882812 686.289062 C 490.015625 687.949219 480.195312 686.300781 476.171875 677.0625 C 472.597656 676.777344 469.203125 674.734375 467.277344 671.710938 C 465.347656 668.6875 464.929688 664.75 466.175781 661.386719 C 462.050781 659.875 459.351562 655.203125 460.105469 650.875 C 460.847656 646.601562 464.359375 643.390625 467.90625 640.898438 C 475.816406 635.328125 484.960938 631.527344 492.875 626.90625 C 489.28125 627.699219 485.273438 625.921875 483.445312 622.730469 C 481.613281 619.535156 482.109375 615.179688 484.609375 612.480469 C 487.753906 609.089844 492.921875 608.726562 497.542969 608.875 C 519.460938 609.578125 541.132812 616.703125 559.195312 629.132812 C 564.226562 632.597656 570.761719 637.9375 577.148438 632.480469 Z M 577.15625 632.472656 " fill-opacity="1" fill-rule="nonzero"/><path fill="#545454" d="M 509.710938 628.894531 C 509.710938 628.894531 509.675781 628.894531 509.65625 628.894531 L 492.859375 628.429688 C 491.820312 628.398438 491 627.53125 491.03125 626.492188 C 491.054688 625.46875 491.898438 624.660156 492.910156 624.660156 C 492.929688 624.660156 492.945312 624.660156 492.964844 624.660156 L 509.765625 625.128906 C 510.800781 625.160156 511.625 626.023438 511.59375 627.0625 C 511.566406 628.085938 510.726562 628.894531 509.710938 628.894531 Z M 509.710938 628.894531 " fill-opacity="1" fill-rule="nonzero"/><path fill="#545454" d="M 466.351562 663.414062 C 465.621094 663.414062 464.929688 662.988281 464.621094 662.273438 C 464.210938 661.320312 464.652344 660.210938 465.605469 659.800781 C 477.097656 654.847656 489.074219 650.777344 501.203125 647.695312 C 504.277344 646.914062 507.304688 646.226562 510.480469 646.394531 C 514.28125 646.601562 517.628906 648.140625 519.65625 650.628906 C 520.3125 651.433594 520.191406 652.621094 519.382812 653.277344 C 518.578125 653.9375 517.390625 653.8125 516.734375 653.007812 C 515.375 651.34375 513.023438 650.304688 510.277344 650.15625 C 507.632812 650.011719 504.917969 650.640625 502.128906 651.347656 C 490.191406 654.378906 478.40625 658.386719 467.097656 663.257812 C 466.855469 663.367188 466.601562 663.414062 466.351562 663.414062 Z M 466.351562 663.414062 " fill-opacity="1" fill-rule="nonzero"/><path fill="#545454" d="M 476.621094 679.691406 C 475.867188 679.691406 475.152344 679.230469 474.863281 678.476562 C 474.488281 677.503906 474.976562 676.414062 475.949219 676.042969 C 489.734375 670.777344 504.199219 667.878906 518.949219 667.433594 C 518.964844 667.433594 518.984375 667.433594 519.003906 667.433594 C 520.019531 667.433594 520.855469 668.242188 520.886719 669.257812 C 520.917969 670.296875 520.097656 671.167969 519.0625 671.199219 C 504.734375 671.632812 490.683594 674.441406 477.296875 679.558594 C 477.074219 679.644531 476.847656 679.6875 476.621094 679.6875 Z M 476.621094 679.691406 " fill-opacity="1" fill-rule="nonzero"/><path fill="#545454" d="M 647.617188 534.171875 C 647.042969 534.171875 646.476562 533.910156 646.109375 533.417969 C 645.484375 532.582031 645.660156 531.402344 646.492188 530.78125 C 659.808594 520.847656 676.273438 514.753906 692.847656 513.625 C 693.886719 513.550781 694.785156 514.339844 694.855469 515.378906 C 694.929688 516.414062 694.140625 517.3125 693.105469 517.386719 C 677.238281 518.464844 661.488281 524.292969 648.746094 533.800781 C 648.40625 534.050781 648.011719 534.171875 647.617188 534.171875 Z M 647.617188 534.171875 " fill-opacity="1" fill-rule="nonzero"/><path fill="#ffbf9c" d="M 216.691406 687.28125 C 171.238281 666.28125 130.425781 635.3125 97.972656 597.183594 C 87.667969 585.078125 78.015625 571.910156 73.449219 556.679688 C 67.355469 536.363281 70.96875 514.125 79.210938 494.582031 C 87.457031 475.039062 99.644531 461.332031 112.128906 444.1875 C 131.683594 477.769531 154.085938 500.03125 184.046875 520.894531 C 178.296875 527.175781 173.085938 531.855469 167.597656 538.441406 C 185.777344 573.875 204.84375 610.425781 236.351562 634.632812 C 251.230469 635.101562 265.078125 627.820312 278.664062 621.742188 C 292.25 615.667969 307.71875 610.589844 321.761719 615.519531 C 324.867188 616.605469 328.097656 618.515625 328.945312 621.691406 C 329.914062 625.332031 327.164062 629.136719 323.71875 630.664062 C 320.273438 632.191406 316.339844 632.019531 310.621094 629.683594 C 319.730469 631.742188 328.617188 634.761719 337.085938 638.683594 C 341.171875 640.574219 345.355469 642.847656 347.742188 646.660156 C 350.128906 650.476562 349.960938 656.242188 344.054688 658.464844 C 347.449219 659.425781 349.347656 663.457031 348.671875 666.921875 C 348 670.386719 345.296875 673.179688 342.179688 674.832031 C 339.0625 676.488281 335.539062 677.175781 332.523438 676.628906 C 334.292969 682.261719 329.667969 688.320312 324.058594 690.15625 C 318.453125 691.996094 312.332031 690.71875 306.652344 689.121094 C 300.972656 687.523438 295.179688 685.597656 289.304688 686.195312 C 282.164062 686.921875 275.984375 691.253906 269.367188 694.042969 C 254.71875 700.226562 237.746094 697.007812 216.691406 687.28125 Z M 216.691406 687.28125 " fill-opacity="1" fill-rule="nonzero"/><path fill="#545454" d="M 332.484375 679.566406 C 332.167969 679.566406 331.847656 679.488281 331.550781 679.316406 C 319.742188 672.542969 305.804688 669.796875 292.308594 671.574219 C 291.273438 671.710938 290.332031 670.984375 290.195312 669.957031 C 290.058594 668.925781 290.785156 667.976562 291.816406 667.839844 C 306.128906 665.953125 320.902344 668.863281 333.425781 676.046875 C 334.328125 676.5625 334.636719 677.714844 334.121094 678.617188 C 333.769531 679.226562 333.140625 679.5625 332.484375 679.5625 Z M 332.484375 679.566406 " fill-opacity="1" fill-rule="nonzero"/><path fill="#545454" d="M 344.992188 661.003906 C 344.789062 661.003906 344.582031 660.96875 344.378906 660.902344 C 329.003906 655.613281 313.015625 652.015625 296.855469 650.207031 C 295.824219 650.089844 295.078125 649.15625 295.195312 648.125 C 295.3125 647.09375 296.238281 646.347656 297.277344 646.464844 C 313.707031 648.304688 329.96875 651.960938 345.605469 657.339844 C 346.589844 657.675781 347.109375 658.75 346.773438 659.730469 C 346.503906 660.511719 345.773438 661 344.992188 661 Z M 344.992188 661.003906 " fill-opacity="1" fill-rule="nonzero"/><path fill="#545454" d="M 168.113281 542.238281 C 167.617188 542.238281 167.125 542.042969 166.757812 541.660156 C 155.542969 530.011719 138.589844 523.863281 122.519531 525.609375 C 121.484375 525.722656 120.554688 524.976562 120.441406 523.941406 C 120.328125 522.90625 121.078125 521.980469 122.109375 521.863281 C 139.316406 519.992188 157.460938 526.578125 169.46875 539.042969 C 170.191406 539.792969 170.167969 540.988281 169.417969 541.707031 C 169.050781 542.058594 168.582031 542.234375 168.113281 542.234375 Z M 168.113281 542.238281 " fill-opacity="1" fill-rule="nonzero"/><path fill="#545454" d="M 239.136719 484.335938 C 238.214844 484.335938 237.414062 483.660156 237.277344 482.722656 C 232.953125 453.222656 230.476562 423.152344 229.921875 393.339844 C 229.902344 392.304688 230.730469 391.445312 231.769531 391.425781 C 231.78125 391.425781 231.792969 391.425781 231.804688 391.425781 C 232.828125 391.425781 233.667969 392.246094 233.6875 393.273438 C 234.242188 422.925781 236.703125 452.839844 241.003906 482.179688 C 241.15625 483.207031 240.441406 484.164062 239.414062 484.316406 C 239.320312 484.332031 239.226562 484.335938 239.140625 484.335938 Z M 239.136719 484.335938 " fill-opacity="1" fill-rule="nonzero"/><path fill="#545454" d="M 574.121094 483.851562 C 574.042969 483.851562 573.960938 483.847656 573.878906 483.835938 C 572.847656 483.703125 572.117188 482.761719 572.25 481.726562 L 582.785156 400.128906 C 582.921875 399.097656 583.859375 398.367188 584.898438 398.5 C 585.925781 398.632812 586.65625 399.578125 586.523438 400.613281 L 575.988281 482.207031 C 575.867188 483.160156 575.054688 483.851562 574.121094 483.851562 Z M 574.121094 483.851562 " fill-opacity="1" fill-rule="nonzero"/><path fill="#716a7d" d="M 503.695312 483.726562 C 503.414062 483.726562 503.132812 483.660156 502.871094 483.535156 C 487.226562 475.894531 474.019531 465.109375 463.628906 451.476562 C 463.328125 451.082031 463.195312 450.582031 463.261719 450.089844 C 465.277344 434.796875 464.960938 418.019531 464.652344 401.792969 C 464.640625 401.210938 464.898438 400.652344 465.355469 400.289062 C 465.808594 399.921875 466.410156 399.785156 466.976562 399.921875 C 494.550781 406.550781 521.148438 407.863281 545.789062 408.296875 C 546.3125 408.304688 546.808594 408.53125 547.15625 408.921875 C 547.507812 409.308594 547.679688 409.824219 547.632812 410.347656 L 543.820312 452.5625 C 543.777344 453.039062 543.550781 453.484375 543.191406 453.804688 C 528.539062 466.75 516.460938 475.207031 504.785156 483.386719 C 504.460938 483.613281 504.082031 483.730469 503.703125 483.730469 Z M 467.089844 449.804688 C 476.832031 462.386719 489.082031 472.425781 503.527344 479.660156 C 514.6875 471.84375 526.261719 463.667969 540.132812 451.476562 L 543.695312 412.027344 C 520.113281 411.566406 494.777344 410.199219 468.457031 404.144531 C 468.742188 419.484375 468.933594 435.222656 467.089844 449.808594 Z M 541.9375 452.390625 Z M 541.9375 452.390625 " fill-opacity="1" fill-rule="nonzero"/><path fill="#545454" d="M 418.949219 108.847656 C 418.8125 113.746094 427.101562 113.632812 437.316406 113.917969 C 447.53125 114.203125 455.800781 114.777344 455.9375 109.878906 C 456.074219 104.980469 447.945312 99.347656 437.730469 99.0625 C 427.515625 98.777344 419.085938 103.957031 418.949219 108.851562 Z M 418.949219 108.847656 " fill-opacity="1" fill-rule="nonzero"/><path fill="#545454" d="M 436.34375 124.816406 C 436.898438 124.824219 437.449219 124.894531 437.996094 125.03125 C 438.539062 125.167969 439.066406 125.371094 439.578125 125.636719 C 440.09375 125.902344 440.578125 126.226562 441.039062 126.609375 C 441.496094 126.996094 441.921875 127.429688 442.3125 127.917969 C 442.703125 128.402344 443.046875 128.929688 443.351562 129.5 C 443.65625 130.074219 443.914062 130.675781 444.121094 131.308594 C 444.328125 131.941406 444.484375 132.59375 444.589844 133.265625 C 444.691406 133.933594 444.738281 134.613281 444.734375 135.296875 C 444.726562 135.980469 444.667969 136.65625 444.554688 137.324219 C 444.441406 137.992188 444.273438 138.644531 444.054688 139.273438 C 443.835938 139.902344 443.570312 140.5 443.257812 141.066406 C 442.941406 141.632812 442.585938 142.152344 442.1875 142.632812 C 441.789062 143.113281 441.359375 143.542969 440.894531 143.917969 C 440.425781 144.292969 439.933594 144.609375 439.417969 144.867188 C 438.902344 145.125 438.371094 145.316406 437.824219 145.445312 C 437.277344 145.574219 436.722656 145.636719 436.167969 145.632812 C 435.609375 145.625 435.058594 145.554688 434.515625 145.417969 C 433.96875 145.28125 433.441406 145.078125 432.929688 144.8125 C 432.417969 144.546875 431.929688 144.222656 431.472656 143.839844 C 431.011719 143.453125 430.585938 143.019531 430.199219 142.535156 C 429.808594 142.046875 429.460938 141.519531 429.15625 140.949219 C 428.851562 140.375 428.59375 139.773438 428.386719 139.140625 C 428.179688 138.507812 428.023438 137.855469 427.921875 137.183594 C 427.820312 136.515625 427.769531 135.835938 427.777344 135.152344 C 427.78125 134.46875 427.839844 133.792969 427.957031 133.125 C 428.070312 132.457031 428.234375 131.804688 428.453125 131.175781 C 428.671875 130.546875 428.9375 129.949219 429.253906 129.382812 C 429.566406 128.816406 429.921875 128.296875 430.320312 127.816406 C 430.71875 127.335938 431.148438 126.90625 431.617188 126.53125 C 432.082031 126.15625 432.574219 125.839844 433.089844 125.582031 C 433.605469 125.324219 434.140625 125.132812 434.6875 125.003906 C 435.234375 124.875 435.785156 124.8125 436.34375 124.816406 Z M 436.34375 124.816406 " fill-opacity="1" fill-rule="nonzero"/><path fill="#545454" d="M 388.863281 109.074219 C 389.152344 113.964844 380.863281 114.117188 370.667969 114.726562 C 360.46875 115.339844 352.222656 116.175781 351.929688 111.285156 C 351.636719 106.398438 359.578125 100.503906 369.78125 99.890625 C 379.980469 99.277344 388.574219 104.183594 388.867188 109.074219 Z M 388.863281 109.074219 " fill-opacity="1" fill-rule="nonzero"/><path fill="#545454" d="M 382.328125 135.089844 C 382.332031 135.773438 382.28125 136.449219 382.175781 137.121094 C 382.070312 137.792969 381.914062 138.445312 381.703125 139.074219 C 381.492188 139.707031 381.234375 140.308594 380.929688 140.878906 C 380.621094 141.449219 380.273438 141.976562 379.882812 142.460938 C 379.488281 142.945312 379.0625 143.378906 378.601562 143.761719 C 378.140625 144.144531 377.652344 144.464844 377.140625 144.730469 C 376.628906 144.992188 376.097656 145.195312 375.554688 145.328125 C 375.007812 145.464844 374.457031 145.535156 373.898438 145.539062 C 373.34375 145.539062 372.792969 145.476562 372.246094 145.34375 C 371.699219 145.214844 371.167969 145.019531 370.652344 144.761719 C 370.136719 144.5 369.644531 144.183594 369.179688 143.804688 C 368.714844 143.429688 368.285156 143 367.890625 142.515625 C 367.492188 142.035156 367.140625 141.511719 366.828125 140.945312 C 366.515625 140.378906 366.25 139.78125 366.035156 139.148438 C 365.820312 138.519531 365.65625 137.871094 365.542969 137.199219 C 365.433594 136.53125 365.375 135.851562 365.371094 135.171875 C 365.367188 134.488281 365.417969 133.808594 365.523438 133.140625 C 365.628906 132.46875 365.789062 131.816406 365.996094 131.183594 C 366.207031 130.550781 366.464844 129.949219 366.773438 129.382812 C 367.078125 128.8125 367.429688 128.285156 367.820312 127.800781 C 368.210938 127.3125 368.636719 126.878906 369.097656 126.5 C 369.558594 126.117188 370.046875 125.792969 370.558594 125.53125 C 371.074219 125.265625 371.601562 125.066406 372.148438 124.929688 C 372.695312 124.792969 373.246094 124.726562 373.800781 124.722656 C 374.359375 124.71875 374.910156 124.785156 375.457031 124.914062 C 376.003906 125.046875 376.535156 125.242188 377.050781 125.5 C 377.566406 125.757812 378.054688 126.078125 378.519531 126.453125 C 378.984375 126.832031 379.414062 127.261719 379.8125 127.742188 C 380.207031 128.222656 380.5625 128.75 380.875 129.316406 C 381.1875 129.882812 381.449219 130.480469 381.664062 131.109375 C 381.882812 131.742188 382.046875 132.390625 382.15625 133.058594 C 382.269531 133.730469 382.328125 134.40625 382.328125 135.089844 Z M 382.328125 135.089844 " fill-opacity="1" fill-rule="nonzero"/><path fill="#545454" d="M 404.894531 238.960938 C 393.488281 238.960938 382.085938 237.085938 371.28125 233.34375 C 370.300781 233.003906 369.78125 231.929688 370.117188 230.949219 C 370.460938 229.96875 371.535156 229.445312 372.515625 229.785156 C 392.402344 236.675781 414.414062 236.996094 434.492188 230.691406 C 435.484375 230.378906 436.539062 230.929688 436.851562 231.921875 C 437.164062 232.914062 436.613281 233.972656 435.621094 234.285156 C 425.683594 237.40625 415.289062 238.960938 404.894531 238.960938 Z M 404.894531 238.960938 " fill-opacity="1" fill-rule="nonzero"/><path fill="#545454" d="M 319.222656 633.535156 C 319.085938 633.535156 318.945312 633.519531 318.804688 633.488281 C 313.359375 632.25 307.765625 631.597656 302.179688 631.550781 C 301.140625 631.542969 300.304688 630.691406 300.3125 629.652344 C 300.320312 628.609375 301.175781 627.777344 302.210938 627.785156 C 308.066406 627.835938 313.929688 628.519531 319.640625 629.820312 C 320.65625 630.050781 321.292969 631.058594 321.058594 632.074219 C 320.863281 632.949219 320.085938 633.539062 319.226562 633.539062 Z M 319.222656 633.535156 " fill-opacity="1" fill-rule="nonzero"/></svg>