<svg width="107" height="142" viewBox="0 0 107 142" fill="none" xmlns="http://www.w3.org/2000/svg">
<path d="M75.4203 49.0833C74.1299 44.8794 73.0606 40.6108 72.2168 36.2951C71.8341 31.9084 71.1603 27.552 70.1998 23.2548C70.1691 20.193 69.5185 17.1691 68.2873 14.3656C66.9832 11.5228 65.8183 8.39315 63.0929 6.85005C61.1064 5.72858 58.5331 4.67666 56.2511 4.57669C51.6174 4.38543 47.4575 5.18089 43.8063 8.0541C38.8901 11.914 38.3641 18.7993 36.9949 24.6935C36.3783 27.3081 36.2209 30.01 36.5298 32.6786C36.5993 33.261 36.6862 33.7957 36.7949 34.2912L34.0173 34.7694L32.0396 62.3757L76.9939 65.2141C76.9939 65.2141 82.7838 64.9012 85.557 61.1934C85.5396 61.2064 78.4935 58.8418 75.4203 49.0833Z" fill="#263238"/>
<path d="M38.0947 97.6445C38.0947 97.6445 30.3705 105.673 28.6753 116.966L54.582 133.362L80.6627 116.192C80.6627 116.192 78.5936 105.716 72.0908 97.6663L38.0947 97.6445Z" fill="#263238"/>
<path d="M46.623 140.856C47.0056 140.83 68.5047 140.856 68.5047 140.856L81.9362 141.764C86.622 141.908 87.9739 139.591 87.8652 138.057C87.7218 136.105 85.744 133.892 85.744 133.892C85.744 133.892 74.7162 131.528 74.4424 131.719C74.1685 131.91 47.6489 133.923 47.6489 133.923L46.623 140.856Z" fill="#AE7461"/>
<path d="M76.2636 111.711C76.4592 112.124 97.8888 118.022 97.8888 118.022L54.3472 133.484C54.3472 133.484 48.1009 125.851 48.2965 125.851C48.4921 125.851 76.2636 111.711 76.2636 111.711Z" fill="#263238"/>
<path d="M57.2119 127.307V141.025C57.2119 141.025 84.9443 141.673 94.1247 139.634C103.305 137.595 108.591 127.62 105.296 122.46C101.436 116.401 91.973 117.031 88.8608 117.37C85.7485 117.709 57.2119 127.307 57.2119 127.307Z" fill="#263238"/>
<path d="M35.8123 113.067C35.8123 113.067 8.74063 114.324 4.73291 116.766L49.1699 131.68C49.1699 131.68 55.4162 124.047 55.2206 124.047C55.025 124.047 35.8123 113.067 35.8123 113.067Z" fill="#263238"/>
<path d="M52.9909 132.523C52.9909 132.523 23.2416 120.165 19.8512 118.822C12.1748 115.779 0.503673 113.21 0.0124879 124.008C-0.478697 134.805 13.6266 141.264 23.4851 141.938H50.6002L52.9909 132.523Z" fill="#263238"/>
<path d="M57.2117 125.286L48.9528 126.046C48.9528 126.046 47.4836 124.038 46.2187 123.551C44.9538 123.064 42.6153 123.551 41.0765 122.93C39.5377 122.308 35.617 119.174 34.1217 118.148C32.8083 117.266 31.2939 116.73 29.7184 116.588C29.7184 116.588 26.241 115.892 24.1284 117.892C23.1591 118.8 23.0635 120.869 23.0635 120.869C23.0635 120.869 47.488 133.888 47.7575 133.749C48.027 133.61 57.2074 135.488 57.2074 135.488L57.2117 125.286Z" fill="#AE7461"/>
<path d="M47.7617 133.732C47.6361 133.693 47.5152 133.64 47.4009 133.575C47.1401 133.454 46.8054 133.288 46.3881 133.084L42.6847 131.228L37.2077 128.437C35.1517 127.373 32.861 126.264 30.5311 124.96C28.2012 123.656 25.9627 122.439 23.8892 121.422C22.0673 120.505 20.1902 119.702 18.2689 119.018C16.9734 118.568 15.6508 118.201 14.309 117.918C13.8352 117.814 13.4613 117.762 13.2092 117.71C13.0798 117.696 12.9527 117.665 12.8311 117.618C12.9607 117.616 13.0903 117.626 13.2179 117.649C13.4744 117.684 13.8482 117.718 14.3307 117.805C15.6867 118.046 17.0233 118.386 18.3297 118.822C20.2771 119.484 22.178 120.276 24.0196 121.191C26.1061 122.204 28.336 123.434 30.6789 124.717C33.0218 125.999 35.2952 127.133 37.3425 128.194L42.789 131.041L46.4533 132.984L47.44 133.523C47.5539 133.582 47.6616 133.652 47.7617 133.732Z" fill="#455A64"/>
<path d="M57.2115 135.462C57.2115 135.545 55.0946 135.223 52.517 134.741C49.9393 134.258 47.8572 133.811 47.8746 133.732C47.892 133.654 49.9871 133.976 52.5691 134.454C55.1511 134.932 57.2245 135.384 57.2115 135.462Z" fill="#6F4439"/>
<path d="M57.2117 138.057C57.1951 137.972 57.1878 137.886 57.19 137.8C57.19 137.609 57.19 137.366 57.19 137.057C57.19 136.374 57.19 135.431 57.1508 134.245C57.1508 131.806 57.1204 128.385 57.103 124.338V124.234L57.2117 124.212L67.0093 122.239L83.1315 119.066L87.9999 118.148L89.33 117.909C89.4839 117.873 89.6413 117.852 89.7994 117.849C89.6501 117.899 89.4976 117.94 89.343 117.97L88.039 118.261L83.1358 119.266L67.0528 122.526L57.2508 124.469L57.3551 124.338C57.3334 128.385 57.316 131.806 57.303 134.245C57.303 135.431 57.2726 136.374 57.2639 137.057C57.2639 137.361 57.2639 137.609 57.2639 137.8C57.2561 137.887 57.2386 137.973 57.2117 138.057Z" fill="#455A64"/>
<path d="M46.2315 121.856C46.1924 121.895 45.5143 121.195 44.3146 120.196C42.7544 118.901 41.0596 117.777 39.2593 116.844C37.4587 115.935 35.5637 115.227 33.6085 114.732C32.1132 114.354 31.1613 114.227 31.17 114.175C31.3941 114.163 31.6188 114.177 31.8394 114.219C32.4484 114.291 33.0534 114.394 33.652 114.527C35.6357 114.969 37.5561 115.658 39.368 116.579C41.1986 117.516 42.9055 118.676 44.4494 120.035C44.9199 120.445 45.3683 120.881 45.7925 121.339C45.956 121.496 46.1031 121.669 46.2315 121.856Z" fill="#455A64"/>
<path d="M83.2576 113.91C83.0197 113.939 82.78 113.95 82.5404 113.945C81.8877 113.993 81.2387 114.083 80.5974 114.214C78.4718 114.644 76.3876 115.258 74.3685 116.049C72.3323 116.816 70.3757 117.78 68.5264 118.926C67.1137 119.826 66.353 120.543 66.3096 120.495C66.467 120.307 66.6417 120.134 66.8312 119.978C67.0405 119.778 67.2627 119.592 67.4962 119.422C67.7657 119.226 68.0613 118.987 68.4178 118.748C70.2514 117.541 72.2137 116.543 74.2685 115.77C76.3016 114.971 78.4104 114.38 80.5626 114.006C81.2147 113.895 81.8746 113.835 82.5361 113.827C82.7793 113.82 83.0224 113.848 83.2576 113.91Z" fill="#455A64"/>
<path d="M44.228 49.2692C44.228 49.2692 46.5883 58.5799 55.5861 57.5976C62.1063 56.8847 61.2369 49.0127 61.2369 49.0127L44.228 49.2692Z" fill="#AE7461"/>
<path d="M32.1569 53.5381C32.0613 54.0336 33.3566 74.4547 33.3566 74.4547L35.2866 84.0176L38.3293 93.0285L33.9825 102.809C47.714 107.821 63.445 108.964 75.5768 102.87L71.7212 92.4373C71.7212 92.4373 73.6729 77.6583 74.0554 71.8119C74.4379 65.9655 69.1218 51.2082 69.1218 51.2082L61.2585 49.2695H44.367L32.1569 53.5381Z" fill="#475EA4"/>
<path d="M12.0793 97.3707C12.0793 97.3707 5.28532 95.0713 7.39351 89.2162C9.50169 83.3611 17.2346 72.4811 19.5297 68.5082C21.8248 64.5352 24.9936 56.3372 30.3966 54.1943C35.7997 52.0513 36.9994 52.4208 36.9994 52.4208C36.9994 52.4208 40.3116 66.4695 33.7393 74.1546L32.357 73.72L20.6207 87.6296L39.038 92.2415L38.2512 100.935L12.0793 97.3707Z" fill="#AE7461"/>
<path d="M68.3306 63.6313C68.3306 63.6313 65.5399 58.7282 65.1618 57.5459C64.7836 56.3635 64.0229 53.3425 63.4231 53.0774C62.8232 52.8122 62.3277 53.8685 62.119 55.0073C61.9104 56.1462 63.5144 58.5978 62.9884 58.9933C62.4624 59.3889 53.356 56.8199 51.8389 56.407C50.3219 55.9941 46.049 55.1812 45.923 57.2416C45.923 57.2416 43.8539 57.1547 43.7279 58.0284C43.6395 58.4322 43.6395 58.8503 43.7279 59.2541C43.7279 59.2541 43.3497 60.832 44.6581 61.358C45.3779 61.6584 46.1286 61.8785 46.8967 62.0143C46.8967 62.0143 45.8404 62.5403 46.7706 63.6357C47.7008 64.7311 53.4429 66.9653 53.4429 66.9653C53.4429 66.9653 56.0509 69.5082 58.3417 70.0776C60.6324 70.647 64.5054 70.647 64.5054 70.647L68.3306 63.6313Z" fill="#AE7461"/>
<path d="M69.1219 51.2083L74.877 53.0339C74.877 53.0339 78.7021 53.9424 81.1189 56.6026C83.5357 59.2628 86.2481 65.1918 88.5085 66.7132C90.7688 68.2346 98.0322 74.846 98.619 77.6584C99.2059 80.4707 99.0537 87.3864 95.1764 87.7689C95.1764 87.7689 74.7075 66.3263 74.4771 66.4089C74.2467 66.4915 72.3037 69.4864 72.3037 69.4864C72.3037 69.4864 70.0564 63.9356 69.0306 60.9711C68.0047 58.0066 69.1219 51.2083 69.1219 51.2083Z" fill="#AE7461"/>
<path d="M68.3308 63.6318C68.3308 63.6318 79.1455 69.8608 83.614 70.6432C88.0825 71.4256 92.3337 71.5777 94.3853 73.7815C96.437 75.9854 95.1938 87.7695 95.1938 87.7695C95.1938 87.7695 92.8466 88.7562 88.013 86.5524C83.1793 84.3485 64.4839 70.6432 64.4839 70.6432L68.3308 63.6318Z" fill="#AE7461"/>
<path d="M38.7424 92.7155C38.7424 92.7155 41.0505 90.5204 43.3195 89.738C45.5886 88.9556 46.9187 87.8428 48.0401 87.3342C49.405 86.717 50.9351 86.378 50.5526 88.1601C50.3352 89.1729 49.1529 89.8988 47.9184 90.7465C46.6839 91.5941 45.3929 91.8505 46.3319 92.12C47.2708 92.3895 51.8566 93.3371 54.156 93.2111C54.156 93.2111 59.5373 93.185 59.5982 94.5673C59.6591 95.9495 53.6083 95.5062 52.6651 95.654C52.1222 95.7382 51.5862 95.8617 51.0611 96.0234C51.0611 96.0234 57.3335 96.519 59.1201 96.8928C60.9066 97.2666 60.7675 98.375 60.0894 98.6967C59.7445 98.862 59.3904 99.0071 59.0288 99.1314C59.0288 99.1314 59.5373 100.092 58.5463 100.435C57.5552 100.779 49.2398 100.501 49.2398 100.501C49.2398 100.501 55.0124 101.044 55.421 101.505C55.504 101.623 55.5563 101.76 55.5731 101.903C55.5898 102.047 55.5706 102.192 55.5171 102.326C55.4636 102.461 55.3775 102.579 55.2666 102.672C55.1557 102.764 55.0235 102.828 54.8819 102.857C54.2473 102.974 48.44 102.531 48.1227 102.613C46.0506 102.946 43.9296 102.797 41.9242 102.178C38.725 101.231 37.9165 100.257 37.9165 100.257L38.7424 92.7155Z" fill="#AE7461"/>
<path d="M93.6722 73.1515C93.5815 73.127 93.494 73.092 93.4114 73.0471L92.6942 72.6994C91.818 72.2712 90.9165 71.8967 89.9949 71.5779C88.6327 71.1025 87.2134 70.8102 85.7742 70.7086C84.1615 70.5608 82.2967 70.5825 80.5015 69.8957C78.8368 69.269 77.2111 68.5432 75.6331 67.7223C74.1683 66.9834 72.8686 66.2792 71.7863 65.6794C70.7039 65.0795 69.8345 64.5753 69.239 64.2232L68.5566 63.8102C68.4753 63.7656 68.3994 63.7116 68.3306 63.6494C68.4175 63.6837 68.5018 63.7243 68.5827 63.7711L69.2825 64.145L71.8645 65.5403C72.9555 66.1227 74.2596 66.8052 75.7244 67.5354C77.3003 68.3514 78.9214 69.0771 80.5798 69.7088C82.3185 70.3826 84.1658 70.3695 85.7959 70.526C87.252 70.6433 88.6852 70.9592 90.0557 71.4649C90.9759 71.8018 91.872 72.2012 92.7377 72.6603L93.4375 73.0428C93.5181 73.0736 93.5966 73.1099 93.6722 73.1515Z" fill="#6F4439"/>
<path d="M56.1421 58.9497C55.6356 58.859 55.1348 58.7385 54.6425 58.589C53.7209 58.3542 52.443 58.063 51.0129 57.8283C49.5828 57.5935 48.2744 57.4588 47.3268 57.3936C46.8117 57.3765 46.2979 57.3301 45.7881 57.2545C45.931 57.2249 46.0772 57.2147 46.2228 57.2241C46.4879 57.2241 46.8748 57.2241 47.3529 57.2241C49.8438 57.3226 52.3128 57.73 54.7033 58.4368C55.138 58.5716 55.5292 58.6933 55.7813 58.7845C55.9079 58.8245 56.0291 58.88 56.1421 58.9497Z" fill="#6F4439"/>
<path d="M57.0898 61.4063C57.0898 61.4671 54.047 60.9716 50.3523 60.25C46.6575 59.5285 43.6452 58.946 43.6582 58.8721C43.6713 58.7982 46.701 59.3285 50.3957 60.0284C54.0905 60.7282 57.0985 61.3454 57.0898 61.4063Z" fill="#6F4439"/>
<path d="M54.947 63.5309C54.5384 63.4821 54.1343 63.4007 53.7386 63.2875C52.9953 63.1179 51.9695 62.8876 50.835 62.6572C49.7005 62.4268 48.6616 62.2225 47.914 62.1095C47.5055 62.0574 47.1016 61.9746 46.7056 61.8617C47.1191 61.8476 47.533 61.8783 47.94 61.953C48.6964 62.0443 49.7396 62.2051 50.8785 62.4355C52.0173 62.6659 53.0519 62.9223 53.7778 63.1353C54.1803 63.226 54.5722 63.3586 54.947 63.5309Z" fill="#6F4439"/>
<path d="M50.6523 98.449C52.0399 98.4632 53.4257 98.5532 54.8035 98.7185C56.1893 98.8078 57.5692 98.9718 58.9373 99.2097C57.5497 99.1956 56.1639 99.1056 54.7861 98.9402C53.4004 98.8506 52.0205 98.6866 50.6523 98.449Z" fill="#6F4439"/>
<path d="M21.251 87.517C20.0807 87.6697 18.9197 87.8873 17.7736 88.169C16.6443 88.5247 15.5357 88.9426 14.4526 89.4209C14.7222 89.1959 15.0222 89.01 15.3437 88.8688C16.1019 88.4873 16.8953 88.1801 17.7127 87.9516C18.5286 87.7276 19.3641 87.582 20.2078 87.517C20.5537 87.4673 20.905 87.4673 21.251 87.517Z" fill="#6F4439"/>
<path d="M28.4707 66.8826C28.7404 67.1593 28.9781 67.4655 29.1792 67.7955C29.5878 68.3823 30.1225 69.2125 30.6615 70.1601C31.2005 71.1077 31.6395 71.9944 31.9351 72.6465C32.1164 72.9885 32.262 73.3483 32.3698 73.7201C32.1486 73.4049 31.9593 73.0686 31.8047 72.716C31.4743 72.0857 31.0136 71.2164 30.5006 70.2731C29.9877 69.3299 29.4531 68.4909 29.0792 67.8824C28.8483 67.567 28.6448 67.2326 28.4707 66.8826Z" fill="#6F4439"/>
<path d="M52.6606 88.7073L53.3474 77.9882H51.5869L54.7861 72.4678L58.307 77.9056H56.3858L57.0769 88.6378L52.6606 88.7073Z" fill="#E0E0E0"/>
<path d="M49.0572 2.82881C48.5431 1.89029 47.7153 1.16248 46.7187 0.772789C45.6178 0.263685 44.4194 0 43.2065 0C41.9936 0 40.7952 0.263685 39.6943 0.772789C38.6016 1.30031 37.655 2.08773 36.9373 3.06607C36.2197 4.04442 35.7529 5.18383 35.5779 6.38447C35.43 7.58999 35.6142 8.81299 36.1106 9.92147C36.607 11.0299 37.3968 11.9818 38.3946 12.6742C37.1024 12.7154 35.8399 13.072 34.7172 13.7131C34.5433 13.791 34.3866 13.9025 34.256 14.0413C34.1255 14.1801 34.0237 14.3433 33.9565 14.5216C33.8131 15.1084 34.4303 15.6561 35.0302 15.6822C35.4802 15.6797 35.9208 15.5534 36.3038 15.3171C36.0787 15.4285 35.8791 15.5853 35.7176 15.7775C35.556 15.9697 35.4359 16.1933 35.3649 16.4342C35.1823 17.3036 36.0821 18.0686 36.9558 18.1034C37.8295 18.1381 38.6424 17.6687 39.3943 17.234L48.4965 5.72376C49.3528 5.08044 49.5093 3.7851 49.0572 2.82881Z" fill="#263238"/>
<path d="M44.0628 12.7576L59.0331 8.34128C63.858 7.6371 67.2919 13.4748 67.8092 18.3389C68.3612 23.7245 68.822 30.3229 68.3438 34.3784C67.3745 42.533 61.2064 43.8066 61.2064 43.8066C61.2064 43.8066 61.2065 43.9283 61.2412 46.3364V51.2961C61.3064 52.8739 61.0282 53.4042 60.0633 54.6561C57.8551 57.5163 53.83 57.8988 49.0833 56.1427C46.3318 55.1256 44.4192 53.0782 44.2106 50.292L44.2367 17.2913C44.1671 15.796 42.5979 12.9575 44.0628 12.7576Z" fill="#AE7461"/>
<path d="M62.6104 25.7101C62.7451 25.5754 63.5188 26.1752 64.636 26.197C65.7531 26.2187 66.5877 25.6754 66.705 25.8145C66.7659 25.8753 66.6268 26.1187 66.2703 26.3708C65.779 26.6963 65.199 26.8618 64.6099 26.8446C64.0282 26.835 63.4648 26.6401 63.0016 26.2883C62.6582 25.997 62.5452 25.7666 62.6104 25.7101Z" fill="#263238"/>
<path d="M52.6822 25.997C52.8039 25.8579 53.6167 26.41 54.7339 26.3622C55.851 26.3143 56.6508 25.7232 56.7768 25.8579C56.8377 25.9144 56.716 26.1622 56.3682 26.4404C55.8981 26.7935 55.3302 26.9924 54.7425 27.0098C54.1626 27.0429 53.5872 26.8906 53.0995 26.5752C52.7474 26.31 52.6213 26.0709 52.6822 25.997Z" fill="#263238"/>
<path d="M60.1759 30.5873C60.1759 30.5265 60.8583 30.3787 61.9754 30.1874C62.2623 30.1483 62.5275 30.0787 62.5709 29.8831C62.5816 29.5871 62.5029 29.2948 62.3449 29.0442L61.4017 26.9056C60.0976 23.8629 59.1587 21.3417 59.2848 21.2939C59.4108 21.2461 60.554 23.6716 61.8494 26.7187C62.1623 27.475 62.4623 28.1879 62.7448 28.8921C62.9387 29.2301 63.0064 29.6259 62.9361 30.0092C62.9009 30.1096 62.8436 30.2009 62.7683 30.2761C62.6931 30.3514 62.6018 30.4087 62.5014 30.4439C62.3452 30.4943 62.1829 30.5235 62.0189 30.5308C60.8844 30.6177 60.1802 30.6525 60.1759 30.5873Z" fill="#263238"/>
<path d="M61.237 43.7885C57.4247 43.996 53.6297 43.1413 50.2744 41.3196C50.2744 41.3196 53.1781 46.8834 61.2587 45.8098L61.237 43.7885Z" fill="#6F4439"/>
<path d="M58.3591 35.7466C58.0541 35.8354 57.7295 35.8308 57.4273 35.7331C57.1251 35.6355 56.8591 35.4494 56.6638 35.1989C56.4966 34.9701 56.3954 34.6998 56.3713 34.4174C56.3472 34.135 56.4011 33.8515 56.5271 33.5977C56.6532 33.3439 56.8464 33.1295 57.0859 32.978C57.3254 32.8265 57.6019 32.7437 57.8853 32.7386C58.2261 32.7011 58.5686 32.7942 58.8436 32.999C59.1186 33.2039 59.3058 33.5053 59.3675 33.8427C59.6631 35.4249 58.3591 35.7466 58.3591 35.7466Z" fill="#6F4439"/>
<path d="M56.2422 19.2464C56.1596 19.5594 55.0338 19.5246 53.7428 19.8071C52.4518 20.0897 51.4303 20.5504 51.2303 20.2983C51.139 20.1766 51.2955 19.8636 51.6954 19.5376C52.2282 19.1217 52.8492 18.8333 53.5108 18.6947C54.1724 18.556 54.8569 18.5708 55.5119 18.7378C56.0118 18.8813 56.2769 19.0986 56.2422 19.2464Z" fill="#263238"/>
<path d="M66.7269 20.1988C66.4704 20.4162 65.6576 20.0337 64.6317 19.8728C63.6059 19.712 62.7148 19.7685 62.554 19.4773C62.4844 19.3338 62.6583 19.1035 63.0712 18.9209C63.6321 18.7003 64.244 18.643 64.836 18.7557C65.4288 18.8458 65.9828 19.1055 66.4313 19.5034C66.7573 19.812 66.8399 20.0902 66.7269 20.1988Z" fill="#263238"/>
<path d="M59.085 7.46698L59.1241 7.64085H59.0936L59.085 7.46698Z" fill="#263238"/>
<path d="M43.6846 49.3092C47.7315 49.0745 48.2878 43.4454 48.0314 41.3199C47.7465 38.9557 47.2903 36.6153 46.6665 34.3172C45.7102 30.8398 47.0229 27.0972 47.5054 23.4807C49.5741 23.1436 51.4479 22.0613 52.7737 20.438C54.3994 18.5428 55.3818 16.1955 56.3424 13.8874C56.2786 16.1653 55.5068 18.3668 54.1343 20.1859C54.5898 20.257 55.0557 20.2201 55.4944 20.0782C55.933 19.9363 56.3322 19.6932 56.6597 19.3687C57.31 18.7133 57.8151 17.9283 58.142 17.0649C59.0199 15.0127 59.5079 12.8148 59.5808 10.5839C59.8809 13.7775 59.5199 16.9988 58.5201 20.0468C59.1049 19.9398 59.7061 19.9636 60.2806 20.1163C60.8674 20.1989 61.5411 20.1815 61.9584 19.7599C62.2111 19.4503 62.3695 19.0746 62.4148 18.6775C62.9772 15.9604 63.0684 13.1667 62.6844 10.4187C63.4549 11.8758 64.0781 13.4062 64.5448 14.9871C65.0104 16.5779 65.0224 18.267 64.5795 19.8642C64.7131 19.9967 64.8935 20.071 65.0816 20.071C65.2697 20.071 65.4501 19.9967 65.5836 19.8642C65.8354 19.5815 65.988 19.2244 66.0183 18.8471C66.2313 17.4822 65.9922 16.0956 65.7488 14.7394C66.5617 16.1782 66.8312 17.843 67.2789 19.4295C67.7266 21.0161 68.4395 22.6418 69.8174 23.5503C70.0511 21.4781 69.9838 19.383 69.6174 17.33C69.3436 15.6305 68.5351 13.9439 67.7918 12.3921C67.0025 10.6697 65.8865 9.11671 64.5057 7.81931C62.1193 5.72851 61.1239 6.6283 59.5981 7.4281L59.4156 7.502C59.4175 7.46435 59.4175 7.42663 59.4156 7.38898L59.3504 7.06732C55.3576 6.17288 51.1979 6.36653 47.3055 7.62806C44.4323 8.56696 44.1671 14.7524 43.4673 11.814C43.0326 10.0362 40.7332 11.6575 40.7071 11.7097C37.3166 17.8256 33.7218 27.5232 33.5566 42.8499L43.6846 49.3092Z" fill="#263238"/>
<path d="M40.7415 11.4752C41.224 11.7012 42.5933 9.60172 45.0448 7.94995C47.4964 6.29817 49.9045 5.70701 49.8611 5.17236C49.8611 4.92894 49.1525 4.73769 48.0354 4.8507C46.5825 5.04661 45.1959 5.58145 43.9878 6.41204C42.7797 7.24263 41.7838 8.3457 41.0806 9.63215C40.5807 10.6536 40.5372 11.3709 40.7415 11.4752Z" fill="#455A64"/>
<path d="M59.2854 33.6559C59.2854 33.6559 59.2462 33.5689 59.1636 33.4298C59.0382 33.2401 58.862 33.0895 58.6551 32.9951C58.3546 32.8475 58.0134 32.8047 57.6857 32.8734C57.4877 32.893 57.298 32.9627 57.1344 33.076C56.9709 33.1894 56.839 33.3425 56.7512 33.5211C56.5732 33.8839 56.527 34.2973 56.6208 34.6904C56.6625 34.8495 56.7355 34.9987 56.8355 35.1293C56.9355 35.2599 57.0605 35.3693 57.2032 35.4511C57.4845 35.5812 57.7751 35.6902 58.0726 35.7771C58.0726 35.7771 57.977 35.7988 57.8075 35.7771C57.562 35.7595 57.3226 35.693 57.1033 35.5815C56.9346 35.4974 56.7851 35.3796 56.6639 35.2352C56.5428 35.0909 56.4527 34.9232 56.3991 34.7425C56.2735 34.2965 56.3168 33.8198 56.5208 33.4037C56.6225 33.1791 56.789 32.9899 56.9989 32.8604C57.2568 32.7102 57.5491 32.6289 57.8475 32.6243C58.1459 32.6197 58.4405 32.692 58.7029 32.8343C58.9358 32.9533 59.1213 33.148 59.2288 33.3864C59.3071 33.5559 59.2984 33.6559 59.2854 33.6559Z" fill="#263238"/>
<path d="M65.4271 36.4289C65.4075 36.2183 65.4588 36.0072 65.5731 35.8292C65.6873 35.6512 65.8578 35.5165 66.0574 35.4466C66.224 35.3715 66.4053 35.3345 66.588 35.3383C66.7707 35.342 66.9503 35.3865 67.1137 35.4683C67.2414 35.2749 67.4182 35.1191 67.6261 35.0168C67.8341 34.9145 68.0655 34.8694 68.2966 34.8863C68.5277 34.9031 68.7501 34.9812 68.941 35.1125C69.1319 35.2438 69.2844 35.4237 69.3827 35.6335C69.6587 35.5008 69.9648 35.4435 70.2702 35.4671C70.5755 35.4908 70.8691 35.5947 71.1214 35.7682C71.3631 35.9421 71.538 36.1935 71.6171 36.4805C71.6962 36.7675 71.6746 37.073 71.5561 37.3461C72.4254 37.7808 71.8125 39.0153 70.9084 38.724C71.1316 38.8952 71.2851 39.1416 71.3403 39.4175C71.3955 39.6933 71.3486 39.9798 71.2083 40.2237C71.0577 40.4619 70.8559 40.6636 70.6176 40.814C70.3792 40.9644 70.1103 41.0597 69.8304 41.093C69.2668 41.1764 68.6912 41.0898 68.1771 40.8444C67.6629 40.5989 67.2337 40.2058 66.9441 39.7151C66.6314 39.905 66.2603 39.9751 65.8998 39.9124C65.5393 39.8497 65.2137 39.6584 64.9834 39.374C64.7531 39.0896 64.6338 38.7314 64.6474 38.3657C64.6611 38 64.8068 37.6517 65.0577 37.3852C64.3234 37.3259 63.6163 37.081 63.0028 36.6735C62.3892 36.2659 61.8892 35.7091 61.5498 35.0554C62.708 35.8219 64.0362 36.2934 65.4184 36.4289" fill="white"/>
</svg>
