<svg xmlns="http://www.w3.org/2000/svg" xmlns:xlink="http://www.w3.org/1999/xlink" width="1080" zoomAndPan="magnify" viewBox="0 0 810 809.999993" height="1080" preserveAspectRatio="xMidYMid meet" version="1.0"><path fill="#545454" d="M 730.375 222.265625 C 730.375 222.265625 689.875 261.46875 667.359375 211.410156 C 645.972656 163.78125 664.441406 2.59375 576.3125 45.683594 C 571.128906 48.277344 565.621094 51.515625 559.628906 55.566406 C 559.628906 55.566406 464.535156 42.605469 438.453125 108.539062 C 438.289062 108.539062 438.128906 108.703125 437.964844 108.703125 C 415.449219 118.585938 404.757812 131.21875 404.269531 131.707031 C 403.621094 132.355469 403.785156 133.488281 404.433594 134.136719 C 404.59375 134.136719 404.59375 134.296875 404.757812 134.296875 L 372.03125 202.660156 L 287.953125 333.558594 L 307.71875 337.933594 C 280.339844 332.425781 279.53125 334.042969 279.53125 334.042969 L 283.742188 324.324219 C 283.742188 324.324219 283.257812 315.414062 280.015625 315.414062 C 276.777344 315.414062 269.808594 318.652344 268.027344 325.945312 C 268.027344 325.945312 254.746094 329.992188 254.746094 332.746094 C 254.746094 335.503906 241.296875 360.9375 243.082031 365.957031 C 245.023438 370.980469 247.617188 374.707031 247.617188 380.863281 C 247.617188 387.019531 251.34375 392.363281 254.421875 388.3125 C 257.5 384.589844 262.195312 381.023438 262.195312 381.023438 L 230.121094 505.441406 L 236.925781 506.574219 L 202.09375 677.808594 L 197.882812 675.863281 C 193.671875 673.921875 188.808594 675.054688 185.570312 678.292969 C 175.6875 688.175781 154.628906 708.589844 144.421875 710.53125 C 130.652344 713.285156 97.441406 728.515625 80.433594 728.515625 C 68.445312 728.515625 67.148438 738.71875 67.308594 744.714844 C 66.664062 745.847656 66.175781 747.304688 66.175781 748.765625 C 64.878906 767.71875 64.878906 771.121094 64.878906 771.28125 C 64.878906 772.09375 65.527344 773.0625 66.664062 773.0625 C 67.148438 773.0625 67.632812 772.902344 67.957031 772.417969 C 73.789062 777.277344 100.035156 795.582031 151.875 794.449219 C 211.328125 793.152344 246.320312 798.984375 254.90625 796.554688 C 262.035156 794.285156 274.347656 735.480469 284.066406 714.257812 C 286.335938 709.234375 284.875 703.566406 280.824219 700.003906 L 280.015625 699.355469 L 379.808594 547.558594 C 380.132812 547.722656 380.457031 547.882812 380.617188 547.882812 C 380.78125 547.882812 380.941406 547.882812 381.105469 547.882812 C 385.476562 564.246094 422.738281 699.191406 435.210938 739.367188 C 448.496094 782.136719 501.46875 810 604.664062 795.421875 C 707.859375 780.839844 670.921875 586.117188 670.921875 586.117188 L 670.273438 579.796875 L 663.46875 520.183594 C 663.46875 520.183594 683.234375 410.023438 674.808594 329.023438 C 673.351562 315.253906 670.4375 303.101562 666.546875 292.570312 C 722.601562 309.90625 746.574219 264.546875 730.375 222.265625 Z M 478.789062 270.214844 C 465.019531 270.539062 445.417969 283.339844 427.113281 298.726562 C 401.679688 320.113281 377.863281 346.195312 373.328125 351.539062 C 367.335938 350.890625 361.339844 350.082031 355.507812 348.625 L 308.042969 338.09375 C 319.21875 340.363281 334.285156 343.601562 355.507812 348.625 L 419.175781 212.058594 C 419.335938 212.21875 419.660156 212.21875 419.820312 212.21875 C 421.929688 212.21875 427.597656 211.894531 441.691406 187.273438 C 441.855469 191.160156 441.367188 195.695312 439.261719 199.097656 C 434.886719 206.550781 445.257812 213.355469 451.734375 214.324219 C 451.734375 214.324219 451.574219 215.785156 451.734375 217.726562 C 451.898438 221.777344 453.195312 228.257812 460.320312 228.421875 C 460.320312 228.421875 459.1875 235.0625 463.722656 236.84375 C 464.535156 237.167969 465.507812 237.328125 466.316406 237.167969 C 466.316406 237.167969 471.175781 241.378906 470.527344 249.15625 C 470.203125 256.769531 483.972656 268.757812 506.167969 255.636719 C 528.363281 242.515625 528.363281 242.515625 528.363281 242.515625 L 544.238281 258.226562 C 543.429688 258.550781 513.296875 269.40625 478.789062 270.214844 Z M 614.058594 232.144531 C 610.011719 230.039062 607.582031 229.390625 607.582031 229.390625 C 590.570312 229.066406 578.90625 201.527344 578.90625 201.527344 C 578.90625 201.527344 639.65625 160.542969 587.007812 82.132812 C 587.007812 82.132812 583.605469 67.714844 593.808594 70.792969 C 594.621094 70.957031 595.59375 71.28125 596.402344 71.765625 C 609.847656 78.085938 618.757812 98.011719 612.925781 129.277344 C 609.199219 148.066406 604.179688 193.753906 614.058594 232.144531 Z M 614.058594 232.144531 " fill-opacity="1" fill-rule="nonzero"/><path fill="#545454" d="M 442.503906 21.546875 L 458.539062 20.25 L 457.082031 36.289062 C 456.921875 37.097656 457.730469 38.070312 458.539062 38.230469 L 458.703125 38.230469 C 459.511719 38.230469 460.160156 37.585938 460.484375 36.773438 L 462.265625 18.628906 C 462.265625 18.144531 462.105469 17.65625 461.78125 17.335938 C 461.457031 17.011719 460.96875 16.847656 460.484375 16.847656 L 444.445312 18.144531 L 445.902344 2.105469 C 446.066406 1.296875 445.257812 0.324219 444.445312 0.160156 C 443.472656 0.160156 442.664062 0.808594 442.503906 1.621094 L 440.71875 19.765625 C 440.71875 20.25 440.882812 20.734375 441.207031 21.058594 C 441.53125 21.546875 442.015625 21.707031 442.503906 21.546875 Z M 442.503906 21.546875 " fill-opacity="1" fill-rule="nonzero"/><path fill="#545454" d="M 490.128906 50.707031 C 490.292969 50.707031 490.617188 50.707031 490.777344 50.542969 L 507.625 43.578125 C 508.113281 43.417969 508.4375 43.09375 508.597656 42.605469 C 508.761719 42.121094 508.597656 41.632812 508.4375 41.308594 L 499.6875 27.703125 L 514.753906 21.546875 C 515.5625 21.222656 516.050781 20.25 515.5625 19.277344 C 515.238281 18.46875 514.269531 17.980469 513.296875 18.46875 L 496.449219 25.433594 C 495.960938 25.597656 495.636719 25.921875 495.476562 26.40625 C 495.3125 26.890625 495.476562 27.378906 495.636719 27.703125 L 504.386719 41.308594 L 489.320312 47.464844 C 488.511719 47.789062 488.023438 48.761719 488.511719 49.734375 C 488.835938 50.382812 489.480469 50.707031 490.128906 50.707031 Z M 490.128906 50.707031 " fill-opacity="1" fill-rule="nonzero"/><path fill="#545454" d="M 421.117188 68.203125 C 421.441406 68.527344 421.929688 68.6875 422.253906 68.6875 C 422.253906 68.6875 422.253906 68.6875 422.414062 68.6875 C 422.898438 68.6875 423.386719 68.363281 423.546875 68.039062 L 433.105469 55.078125 L 444.285156 66.90625 C 444.933594 67.554688 446.066406 67.554688 446.714844 66.90625 C 447.363281 66.257812 447.363281 65.125 446.714844 64.476562 L 434.238281 51.191406 C 433.917969 50.867188 433.429688 50.707031 432.945312 50.707031 C 432.457031 50.707031 431.972656 51.03125 431.808594 51.355469 L 422.253906 64.3125 L 411.074219 52.488281 C 410.425781 51.839844 409.292969 51.839844 408.644531 52.488281 C 407.996094 53.136719 407.996094 54.269531 408.644531 54.917969 Z M 421.117188 68.203125 " fill-opacity="1" fill-rule="nonzero"/><path fill="#545454" d="M 578.746094 201.367188 C 574.207031 195.695312 574.371094 175.285156 574.371094 175.285156 C 571.777344 192.941406 557.359375 192.457031 557.359375 192.457031 C 557.359375 192.457031 575.34375 181.117188 556.875 166.699219 C 538.40625 152.117188 538.890625 132.191406 538.890625 132.191406 C 520.425781 141.425781 503.898438 143.046875 489.804688 140.941406 C 495.152344 136.890625 490.128906 131.21875 490.128906 131.21875 C 498.554688 130.570312 495.3125 121.015625 495.3125 121.015625 L 462.429688 115.828125 C 476.847656 110.96875 475.875 100.117188 475.875 100.117188 C 460.808594 102.058594 448.335938 105.949219 438.289062 110.320312 C 437.964844 109.835938 437.804688 109.675781 437.804688 109.675781 C 463.078125 42.605469 559.304688 55.726562 559.304688 55.726562 C 559.304688 55.726562 581.175781 66.097656 586.683594 82.132812 C 639.65625 160.378906 578.746094 201.367188 578.746094 201.367188 Z M 730.375 222.265625 C 730.375 222.265625 689.875 261.46875 667.359375 211.410156 C 645.972656 163.78125 664.441406 2.59375 576.3125 45.683594 C 582.46875 52.164062 591.542969 62.371094 593.808594 70.632812 C 594.621094 70.792969 595.59375 71.117188 596.402344 71.605469 C 609.847656 77.921875 618.757812 97.847656 612.925781 129.113281 C 609.523438 147.90625 604.179688 193.265625 614.058594 231.984375 C 620.539062 257.578125 633.824219 280.097656 658.609375 289.65625 C 661.203125 290.628906 663.792969 291.601562 666.0625 292.246094 C 722.601562 309.90625 746.574219 264.546875 730.375 222.265625 Z M 730.375 222.265625 " fill-opacity="1" fill-rule="nonzero"/><path fill="#72a881" d="M 604.339844 795.097656 C 501.144531 809.839844 448.011719 781.8125 434.886719 739.042969 C 421.605469 696.277344 380.457031 546.101562 380.457031 546.101562 L 299.292969 503.496094 L 296.378906 516.941406 L 237.410156 506.574219 L 230.605469 505.441406 L 262.359375 380.863281 C 262.359375 380.863281 262.683594 381.023438 263.167969 381.347656 C 263.332031 381.511719 263.492188 381.511719 263.816406 381.671875 C 264.625 382.15625 266.085938 382.96875 267.542969 383.941406 C 268.027344 384.265625 268.515625 384.589844 269.324219 384.910156 C 271.917969 386.371094 275.316406 388.3125 279.042969 390.421875 C 279.367188 390.582031 279.855469 390.90625 280.339844 391.066406 C 287.792969 395.117188 297.027344 399.976562 306.746094 404.351562 C 308.691406 405.160156 310.472656 406.132812 312.578125 406.945312 C 313.875 407.429688 315.332031 408.078125 316.628906 408.726562 C 317.4375 409.050781 318.570312 409.535156 319.382812 409.859375 C 320.839844 410.347656 322.296875 410.992188 323.757812 411.640625 C 324.726562 411.964844 326.023438 412.453125 326.996094 412.777344 C 328.128906 413.101562 329.265625 413.585938 330.398438 413.910156 C 331.371094 414.234375 332.667969 414.558594 333.636719 414.882812 C 333.636719 414.882812 333.636719 414.882812 333.800781 414.882812 C 334.933594 415.207031 336.066406 415.53125 337.203125 415.855469 C 337.363281 415.855469 337.527344 415.855469 337.527344 416.015625 C 338.5 416.339844 339.46875 416.503906 340.441406 416.824219 C 341.578125 417.148438 342.710938 417.3125 343.683594 417.636719 C 344.652344 417.960938 345.949219 418.121094 346.921875 418.285156 C 349.515625 418.769531 352.105469 419.09375 354.375 419.257812 C 354.699219 419.257812 355.183594 419.257812 355.507812 419.417969 C 357.453125 419.578125 359.070312 419.578125 360.691406 419.417969 C 384.019531 418.285156 457.730469 413.425781 498.554688 410.832031 C 521.882812 443.070312 585.546875 532.492188 596.078125 563.597656 C 596.078125 563.597656 631.394531 584.65625 669.789062 579.148438 L 670.4375 585.46875 C 670.597656 585.792969 707.371094 780.355469 604.339844 795.097656 Z M 604.339844 795.097656 " fill-opacity="1" fill-rule="nonzero"/><path fill="#ffbf9c" d="M 460.160156 342.628906 C 433.753906 349.597656 402.488281 354.617188 373.167969 351.539062 C 377.703125 346.195312 401.515625 320.113281 426.949219 298.726562 C 436.507812 310.066406 453.03125 330.15625 460.160156 342.628906 Z M 495.476562 121.015625 L 462.589844 115.828125 C 477.007812 110.96875 476.035156 100.117188 476.035156 100.117188 C 460.96875 102.058594 448.496094 105.949219 438.453125 110.320312 C 416.097656 120.203125 405.566406 132.839844 405.566406 132.839844 L 371.871094 202.5 L 287.792969 333.558594 L 355.183594 348.460938 L 419.820312 210.277344 C 425.816406 210.113281 434.886719 196.019531 441.691406 183.871094 C 446.875 174.472656 450.601562 166.210938 450.601562 166.210938 C 450.601562 166.210938 469.878906 165.402344 481.382812 163.621094 C 492.882812 162.160156 489.480469 154.871094 489.480469 154.871094 L 460.160156 152.28125 L 445.09375 155.195312 L 458.539062 148.230469 C 458.539062 148.230469 470.042969 147.257812 483.8125 143.371094 C 486.566406 142.722656 488.347656 141.589844 489.804688 140.617188 C 495.152344 136.566406 490.128906 130.894531 490.128906 130.894531 C 498.714844 130.570312 495.476562 121.015625 495.476562 121.015625 Z M 526.582031 318.976562 L 526.582031 409.535156 C 526.582031 409.535156 515.238281 410.183594 498.554688 411.480469 C 457.730469 414.070312 384.019531 418.769531 360.691406 420.066406 C 327.804688 421.523438 262.359375 381.1875 262.359375 381.1875 C 262.359375 381.1875 257.335938 384.75 254.582031 388.476562 C 251.667969 392.203125 247.777344 387.179688 247.777344 381.023438 C 247.777344 374.707031 245.023438 370.980469 243.242188 366.121094 C 241.296875 361.097656 254.90625 335.664062 254.90625 332.910156 C 254.90625 330.15625 268.191406 326.105469 268.191406 326.105469 C 269.972656 318.816406 276.9375 315.574219 280.179688 315.574219 C 283.417969 315.574219 283.902344 324.484375 283.902344 324.484375 L 279.691406 334.207031 C 279.691406 334.207031 280.503906 332.746094 307.878906 338.09375 C 307.878906 338.09375 307.878906 338.09375 308.042969 338.09375 C 319.21875 340.363281 334.285156 343.601562 355.507812 348.625 C 361.339844 349.921875 367.335938 351.054688 373.328125 351.539062 C 402.488281 354.617188 433.753906 349.597656 460.320312 342.628906 C 498.066406 332.746094 526.582031 318.976562 526.582031 318.976562 Z M 560.925781 298.566406 C 512.808594 308.773438 534.355469 272.644531 544.5625 258.226562 C 537.757812 250.613281 529.65625 243.484375 528.847656 242.675781 L 528.6875 242.675781 C 528.6875 242.675781 528.6875 242.675781 506.492188 255.796875 C 484.296875 268.921875 470.527344 257.09375 470.851562 249.316406 C 471.339844 241.703125 466.640625 237.328125 466.640625 237.328125 C 465.667969 237.328125 464.695312 237.167969 464.046875 237.007812 C 459.511719 235.222656 460.644531 228.582031 460.644531 228.582031 C 453.679688 228.421875 452.222656 221.941406 452.058594 217.890625 C 451.898438 215.785156 452.058594 214.488281 452.058594 214.488281 C 445.578125 213.515625 435.210938 206.875 439.585938 199.261719 C 442.179688 195.046875 442.179688 188.890625 441.855469 184.195312 C 447.039062 174.796875 450.765625 166.535156 450.765625 166.535156 C 450.765625 166.535156 470.042969 165.726562 481.542969 163.945312 C 493.046875 162.484375 489.644531 155.195312 489.644531 155.195312 L 460.320312 152.117188 L 445.09375 155.195312 L 458.539062 148.230469 C 458.539062 148.230469 470.042969 147.257812 483.8125 143.371094 C 486.566406 142.722656 488.347656 141.589844 489.804688 140.617188 C 503.738281 142.882812 520.425781 141.101562 538.890625 131.867188 C 538.890625 131.867188 538.40625 151.957031 556.875 166.375 C 575.34375 180.953125 557.359375 192.132812 557.359375 192.132812 C 557.359375 192.132812 571.941406 192.457031 574.371094 174.960938 C 574.371094 174.960938 574.207031 195.695312 578.746094 201.042969 C 578.746094 201.042969 590.40625 228.582031 607.417969 228.90625 C 607.417969 229.390625 620.703125 285.769531 560.925781 298.566406 Z M 380.132812 546.101562 L 279.367188 699.355469 C 279.367188 699.355469 251.667969 703.890625 224.613281 675.863281 L 296.214844 517.265625 L 299.132812 503.820312 Z M 296.214844 517.105469 L 224.613281 675.703125 C 224.613281 675.703125 221.535156 679.105469 216.511719 684.125 L 201.769531 677.808594 L 236.925781 506.734375 Z M 296.214844 517.105469 " fill-opacity="1" fill-rule="nonzero"/><path fill="#527a8b" d="M 593.484375 70.792969 C 583.28125 67.714844 586.683594 82.132812 586.683594 82.132812 C 581.011719 66.097656 559.304688 55.726562 559.304688 55.726562 C 565.296875 51.679688 570.96875 48.4375 575.988281 45.847656 C 582.46875 52.164062 591.21875 62.53125 593.484375 70.792969 Z M 674.324219 328.859375 C 672.867188 315.089844 669.949219 302.941406 666.0625 292.410156 C 663.632812 291.761719 661.039062 290.628906 658.609375 289.816406 C 633.824219 280.261719 620.703125 257.742188 614.058594 232.144531 C 610.011719 230.039062 607.582031 229.390625 607.582031 229.390625 C 607.582031 229.390625 620.863281 285.929688 560.925781 298.566406 C 512.808594 308.773438 534.355469 272.644531 544.5625 258.226562 C 543.753906 258.550781 513.457031 269.566406 478.953125 270.214844 C 465.183594 270.539062 445.582031 283.339844 427.273438 298.726562 C 436.832031 310.066406 453.355469 330.15625 460.484375 342.628906 C 498.390625 332.746094 527.066406 318.816406 527.066406 318.816406 L 527.066406 409.375 C 527.066406 409.375 515.726562 410.023438 499.039062 411.316406 C 522.367188 443.554688 586.035156 532.980469 596.5625 564.085938 C 596.5625 564.085938 631.878906 585.144531 670.273438 579.636719 L 663.46875 520.019531 C 662.984375 519.859375 682.910156 409.699219 674.324219 328.859375 Z M 280.339844 700.003906 L 279.53125 699.355469 C 279.53125 699.355469 251.828125 703.890625 224.773438 675.863281 C 224.773438 675.863281 221.695312 679.265625 216.675781 684.289062 C 205.011719 695.953125 182.492188 716.203125 161.269531 723.492188 C 130.8125 734.023438 68.929688 730.132812 67.472656 749.25 C 66.015625 768.203125 66.015625 771.445312 66.015625 771.445312 C 66.015625 771.445312 91.773438 795.90625 151.226562 794.449219 C 210.679688 792.988281 245.671875 798.984375 254.257812 796.554688 C 261.386719 794.285156 273.699219 735.480469 283.417969 714.257812 C 285.6875 709.234375 284.550781 703.402344 280.339844 700.003906 Z M 202.09375 677.808594 L 197.882812 675.863281 C 193.671875 673.921875 188.808594 675.054688 185.570312 678.292969 C 175.6875 688.175781 154.628906 708.589844 144.421875 710.53125 C 130.652344 713.285156 97.441406 728.515625 80.433594 728.515625 C 63.421875 728.515625 67.632812 748.925781 67.632812 748.925781 C 68.929688 729.808594 130.976562 733.699219 161.433594 723.167969 C 182.652344 715.878906 205.171875 695.464844 216.835938 683.964844 Z M 202.09375 677.808594 " fill-opacity="1" fill-rule="nonzero"/><path fill="#545454" d="M 522.855469 192.292969 C 522.855469 201.691406 515.238281 209.304688 505.84375 209.304688 C 496.449219 209.304688 488.835938 201.691406 488.835938 192.292969 C 488.835938 182.898438 496.449219 175.285156 505.84375 175.285156 C 515.078125 175.285156 522.855469 182.898438 522.855469 192.292969 Z M 544.238281 258.226562 C 544.238281 258.066406 544.238281 258.066406 544.238281 258.226562 C 557.523438 250.613281 567.082031 197.316406 567.082031 197.316406 C 559.953125 219.1875 528.363281 242.515625 528.363281 242.515625 Z M 344.492188 416.503906 C 343.683594 416.015625 342.546875 416.339844 342.222656 417.148438 L 297.675781 502.6875 L 297.675781 502.847656 C 297.675781 502.847656 297.675781 503.011719 297.511719 503.011719 L 294.597656 516.292969 L 223.152344 674.566406 C 222.507812 675.214844 219.753906 678.292969 215.539062 682.667969 C 204.039062 694.171875 181.683594 714.257812 160.945312 721.386719 C 149.605469 725.273438 133.730469 727.21875 118.339844 729 C 91.933594 732.238281 66.824219 735.15625 65.851562 748.601562 C 64.554688 767.554688 64.554688 770.957031 64.554688 771.121094 C 64.554688 772.09375 65.203125 772.902344 66.339844 772.902344 C 67.308594 772.902344 68.121094 772.253906 68.121094 771.121094 C 68.121094 770.957031 68.121094 767.554688 69.417969 748.765625 C 70.0625 738.234375 94.851562 735.316406 118.824219 732.402344 C 134.378906 730.457031 150.417969 728.675781 162.082031 724.625 C 183.625 717.175781 206.46875 696.601562 218.132812 684.9375 C 223.152344 679.914062 225.90625 676.675781 226.230469 676.511719 C 226.394531 676.351562 226.394531 676.1875 226.554688 676.027344 L 298.160156 517.429688 C 298.160156 517.265625 298.320312 517.265625 298.320312 517.105469 L 301.238281 503.820312 L 345.625 418.445312 C 345.464844 417.796875 345.300781 416.824219 344.492188 416.503906 Z M 554.445312 778.410156 C 508.4375 774.199219 478.628906 739.53125 465.34375 675.539062 C 460.160156 651.078125 425.007812 557.28125 409.617188 517.265625 C 419.011719 503.496094 425.652344 488.269531 429.378906 472.066406 C 429.542969 471.257812 429.054688 470.125 428.085938 469.960938 C 427.273438 469.800781 426.140625 470.285156 425.976562 471.257812 C 422.414062 487.296875 415.773438 502.363281 406.214844 515.96875 C 406.214844 515.96875 406.214844 516.132812 406.050781 516.132812 C 393.09375 534.925781 379 544.480469 379 544.644531 C 378.1875 545.128906 378.027344 546.101562 378.511719 547.074219 C 378.835938 547.558594 379.320312 547.722656 379.808594 547.722656 C 380.132812 547.722656 380.457031 547.558594 380.78125 547.398438 C 381.265625 547.074219 394.0625 538.164062 406.863281 520.34375 C 419.820312 554.363281 456.597656 651.886719 461.457031 676.1875 C 474.902344 741.796875 506.007812 777.277344 553.472656 781.8125 L 553.632812 781.8125 C 554.445312 781.8125 555.09375 781.164062 555.417969 780.355469 C 556.0625 779.21875 555.417969 778.410156 554.445312 778.410156 Z M 526.582031 320.597656 C 526.742188 320.597656 527.066406 320.597656 527.226562 320.4375 L 580.851562 294.515625 C 581.660156 294.191406 581.984375 293.21875 581.660156 292.246094 C 581.335938 291.4375 580.363281 291.113281 579.390625 291.4375 L 525.769531 317.359375 C 524.960938 317.683594 524.636719 318.652344 524.960938 319.625 C 525.285156 320.273438 526.09375 320.597656 526.582031 320.597656 Z M 476.359375 179.496094 C 477.496094 178.847656 478.464844 177.714844 479.277344 176.902344 C 480.085938 175.933594 480.734375 174.796875 481.382812 173.664062 C 480.085938 173.988281 478.953125 174.3125 477.816406 174.796875 C 476.683594 175.121094 475.550781 175.445312 474.578125 175.769531 C 472.472656 176.417969 470.527344 176.578125 468.585938 176.742188 C 466.640625 176.742188 464.695312 176.417969 462.589844 175.933594 C 460.484375 175.285156 458.539062 174.472656 456.273438 173.179688 C 456.921875 175.769531 458.703125 178.039062 460.808594 179.496094 C 463.074219 180.953125 465.832031 182.089844 468.585938 182.089844 C 471.5 181.925781 474.09375 181.117188 476.359375 179.496094 Z M 463.398438 208.171875 C 462.265625 208.492188 460.96875 208.332031 460.808594 208.171875 C 458.863281 205.902344 454.003906 206.710938 451.898438 207.035156 C 451.089844 207.199219 450.441406 208.007812 450.601562 209.140625 C 450.765625 209.953125 451.574219 210.601562 452.707031 210.4375 C 455.136719 210.113281 458.054688 210.113281 458.539062 210.4375 C 459.351562 211.410156 460.808594 211.734375 462.265625 211.734375 C 464.046875 211.734375 465.832031 211.246094 466.800781 210.601562 C 468.585938 209.464844 468.90625 207.523438 467.9375 206.0625 C 465.992188 202.660156 461.457031 198.9375 461.292969 198.773438 C 460.644531 198.125 459.351562 198.289062 458.863281 198.9375 C 458.214844 199.585938 458.378906 200.878906 459.027344 201.367188 C 459.027344 201.367188 463.238281 204.929688 465.019531 207.847656 C 464.695312 207.523438 464.371094 208.007812 463.398438 208.171875 Z M 406.863281 133.972656 C 407.023438 133.8125 417.554688 121.5 439.261719 111.941406 C 449.953125 107.082031 461.78125 103.679688 474.253906 102.058594 C 473.769531 105.136719 471.5 111.132812 462.105469 114.210938 L 445.417969 116.640625 C 445.09375 116.640625 444.933594 116.800781 444.769531 116.964844 L 422.414062 132.679688 C 421.765625 133.164062 421.605469 134.136719 422.089844 135.109375 C 422.414062 135.59375 422.898438 135.757812 423.386719 135.757812 C 423.710938 135.757812 424.035156 135.59375 424.359375 135.433594 L 446.066406 119.71875 L 462.265625 117.289062 L 493.855469 122.308594 C 494.179688 123.769531 494.34375 126.035156 493.53125 127.65625 C 492.882812 128.628906 491.589844 129.113281 490.128906 129.4375 L 454.167969 131.542969 C 454.003906 131.542969 453.679688 131.542969 453.519531 131.707031 L 425.652344 145.476562 C 424.84375 145.800781 424.519531 146.933594 425.007812 147.742188 C 425.332031 148.230469 425.816406 148.554688 426.464844 148.554688 C 426.789062 148.554688 426.949219 148.554688 427.273438 148.390625 L 454.8125 134.621094 L 489.644531 132.515625 C 490.128906 133.324219 490.941406 134.785156 490.777344 136.242188 C 490.617188 137.214844 490.128906 138.347656 488.996094 139.15625 C 487.863281 140.128906 485.917969 140.941406 483.648438 141.589844 C 470.203125 145.152344 458.703125 146.449219 458.539062 146.449219 C 458.378906 146.449219 458.054688 146.449219 457.890625 146.609375 L 444.445312 153.574219 C 443.796875 153.898438 443.472656 154.710938 443.636719 155.683594 C 443.960938 156.492188 444.769531 156.816406 445.582031 156.816406 L 460.160156 153.898438 L 488.1875 156.492188 C 488.347656 157.140625 488.347656 157.949219 487.863281 158.921875 C 487.050781 160.378906 484.621094 161.515625 481.21875 162 C 469.878906 163.457031 450.765625 164.429688 450.601562 164.429688 C 449.953125 164.429688 449.46875 164.753906 449.144531 165.402344 C 449.144531 165.402344 445.417969 173.824219 440.234375 182.898438 C 427.597656 205.738281 421.765625 208.332031 419.984375 208.332031 C 419.011719 208.332031 418.203125 209.140625 418.203125 210.113281 C 418.203125 211.085938 419.011719 211.894531 419.984375 211.894531 C 422.089844 211.894531 428.40625 211.570312 443.148438 184.519531 C 447.199219 177.066406 450.601562 170.101562 451.734375 167.832031 C 455.785156 167.671875 471.664062 166.859375 481.707031 165.402344 C 486.242188 164.753906 489.480469 163.132812 490.941406 160.378906 C 492.722656 157.300781 491.101562 154.222656 491.101562 154.0625 C 490.777344 153.574219 490.292969 153.253906 489.804688 153.089844 L 460.484375 150.335938 C 460.320312 150.335938 460.160156 150.335938 460 150.335938 L 456.921875 150.820312 L 459.511719 149.527344 C 461.617188 149.363281 472.308594 148.230469 484.785156 144.667969 C 487.539062 144.019531 489.804688 142.882812 491.265625 141.75 C 493.207031 140.453125 494.179688 138.511719 494.34375 136.402344 C 494.503906 134.621094 494.019531 133.003906 493.371094 131.867188 C 494.828125 131.382812 496.125 130.410156 496.773438 129.113281 C 499.203125 125.386719 497.257812 120.042969 497.257812 119.878906 C 497.097656 119.394531 496.609375 118.90625 495.960938 118.746094 L 468.585938 114.535156 C 478.304688 108.703125 477.816406 99.46875 477.816406 99.304688 C 477.816406 98.820312 477.496094 98.496094 477.171875 98.171875 C 476.847656 97.847656 476.359375 97.6875 475.875 97.847656 C 462.429688 99.628906 449.628906 103.195312 437.964844 108.214844 C 415.449219 118.097656 404.757812 130.734375 404.269531 131.21875 C 403.621094 131.867188 403.785156 133.164062 404.433594 133.648438 C 405.082031 134.785156 406.214844 134.621094 406.863281 133.972656 Z M 598.183594 391.878906 C 598.023438 391.066406 597.050781 390.421875 596.078125 390.742188 L 526.257812 407.917969 C 525.445312 408.078125 524.796875 409.050781 525.121094 410.023438 C 525.285156 410.832031 525.933594 411.316406 526.902344 411.316406 C 527.066406 411.316406 527.226562 411.316406 527.226562 411.316406 L 597.050781 394.144531 C 598.023438 393.660156 598.507812 392.6875 598.183594 391.878906 Z M 472.632812 224.207031 C 471.175781 221.128906 456.757812 218.539062 451.734375 217.726562 C 451.898438 221.777344 453.195312 228.257812 460.320312 228.421875 C 460.320312 228.421875 459.1875 235.0625 463.722656 236.84375 C 464.535156 237.167969 465.507812 237.328125 466.316406 237.167969 C 474.09375 236.359375 472.632812 224.207031 472.632812 224.207031 Z M 460.484375 36.613281 L 462.265625 18.46875 C 462.265625 17.980469 462.105469 17.496094 461.78125 17.171875 C 461.457031 16.847656 460.96875 16.6875 460.484375 16.6875 L 444.445312 17.980469 L 445.902344 1.945312 C 446.066406 1.132812 445.257812 0.160156 444.445312 0 C 443.472656 0 442.664062 0.648438 442.503906 1.457031 L 440.71875 19.601562 C 440.71875 20.089844 440.882812 20.574219 441.207031 20.898438 C 441.53125 21.222656 442.015625 21.382812 442.503906 21.382812 L 458.539062 20.089844 L 457.082031 36.125 C 456.921875 36.9375 457.730469 37.90625 458.539062 38.070312 L 458.703125 38.070312 C 459.675781 38.230469 460.484375 37.585938 460.484375 36.613281 Z M 422.574219 68.6875 C 423.0625 68.6875 423.546875 68.363281 423.710938 68.039062 L 433.269531 55.078125 L 444.445312 66.90625 C 445.09375 67.554688 446.226562 67.554688 446.875 66.90625 C 447.523438 66.257812 447.523438 65.125 446.875 64.476562 L 434.402344 51.191406 C 434.078125 50.867188 433.59375 50.707031 433.105469 50.707031 C 432.621094 50.707031 432.132812 51.03125 431.972656 51.355469 L 422.414062 64.3125 L 411.234375 52.488281 C 410.589844 51.839844 409.453125 51.839844 408.804688 52.488281 C 408.15625 53.136719 408.15625 54.269531 408.804688 54.917969 L 421.28125 68.203125 C 421.441406 68.527344 421.929688 68.6875 422.574219 68.6875 C 422.414062 68.6875 422.414062 68.6875 422.574219 68.6875 Z M 490.617188 50.707031 L 507.464844 43.738281 C 507.949219 43.578125 508.273438 43.253906 508.4375 42.769531 C 508.597656 42.28125 508.4375 41.796875 508.273438 41.472656 L 499.527344 27.863281 L 514.59375 21.707031 C 515.402344 21.382812 515.886719 20.410156 515.402344 19.441406 C 515.078125 18.628906 514.105469 18.144531 513.132812 18.628906 L 496.285156 25.597656 C 495.800781 25.757812 495.476562 26.082031 495.3125 26.566406 C 495.152344 27.054688 495.3125 27.539062 495.476562 27.863281 L 504.222656 41.472656 L 489.15625 47.628906 C 488.347656 47.953125 487.863281 48.925781 488.347656 49.894531 C 488.671875 50.542969 489.15625 50.867188 489.804688 50.867188 C 490.292969 50.707031 490.453125 50.707031 490.617188 50.707031 Z M 490.617188 50.707031 " fill-opacity="1" fill-rule="nonzero"/></svg>