<svg width="166" height="154" viewBox="0 0 166 154" fill="none" xmlns="http://www.w3.org/2000/svg">
<g clip-path="url(#clip0_1_3026)">
<path d="M98.2383 120.613C108.938 119.109 125.455 112.191 130.271 109.605C149.984 99.0172 156.403 85.843 158.413 79.0453C158.598 78.433 158.649 77.7924 158.563 77.1615C158.476 76.5306 158.254 75.9223 157.909 75.3725C157.564 74.8228 157.104 74.3428 156.556 73.9611C156.008 73.5793 155.382 73.3035 154.717 73.15C149.984 72.007 141.684 70.9844 131.049 73.3305" stroke="#263238" stroke-width="3" stroke-linecap="round" stroke-linejoin="round"/>
<path d="M34.9509 73.2703C24.3165 70.9844 16.0165 72.007 11.2829 73.15C10.6176 73.3035 9.99235 73.5793 9.44407 73.961C8.89579 74.3428 8.43569 74.8228 8.09102 75.3725C7.74636 75.9223 7.52414 76.5306 7.43753 77.1615C7.35092 77.7924 7.40169 78.433 7.58683 79.0453C9.59698 85.843 16.0165 99.0773 35.729 109.605C55.4415 119.109 57.0626 118.809 67.4376 120.313" stroke="#263238" stroke-width="3" stroke-linecap="round" stroke-linejoin="round"/>
<path d="M83 114.297C83 114.297 108.938 102.042 108.938 69.3246C108.938 43.6904 92.9859 30.6485 86.1125 26.1513C85.2104 25.5759 84.1199 25.2656 83 25.2656C81.8801 25.2656 80.7896 25.5759 79.8875 26.1513C73.0141 30.6485 57.0625 43.6904 57.0625 69.3246C57.0625 102.042 83 114.297 83 114.297Z" stroke="#263238" stroke-width="3" stroke-linecap="round" stroke-linejoin="round"/>
<path d="M83 114.297C90.7859 112.826 111.743 102.534 124.33 83.5315C136.918 64.5294 133.803 49.4294 131.338 42.8126C130.961 41.7484 130.136 40.848 129.028 40.292C127.921 39.7361 126.614 39.5657 125.368 39.8152C117.919 41.2695 110.95 44.1906 104.995 48.3549" stroke="#263238" stroke-width="3" stroke-linecap="round" stroke-linejoin="round"/>
<path d="M61.0047 48.3549C55.0502 44.1906 48.0812 41.2695 40.6316 39.8152C39.3863 39.5657 38.0788 39.7361 36.9716 40.292C35.8644 40.848 35.0394 41.7484 34.6624 42.8126C32.1968 49.4294 29.0824 64.5859 41.6697 83.5315C54.2569 102.477 75.2141 112.826 83 114.297" stroke="#263238" stroke-width="3" stroke-linecap="round" stroke-linejoin="round"/>
</g>
<defs>
<clipPath id="clip0_1_3026">
<rect width="166" height="154" fill="white"/>
</clipPath>
</defs>
</svg>
